<?xml version="1.0" standalone="no"?>
<!DOCTYPE svg PUBLIC "-//W3C//DTD SVG 1.1//EN" "http://www.w3.org/Graphics/SVG/1.1/DTD/svg11.dtd" >
<svg xmlns="http://www.w3.org/2000/svg" xmlns:xlink="http://www.w3.org/1999/xlink" version="1.1">
<metadata>
Created by FontForge 20170731 at Mon Dec 13 15:42:06 2021
 By Aleksey,,,
</metadata>
<defs>
<font id="GramatikaDemo-Slanted" horiz-adv-x="1064" >
  <font-face 
    font-family="Gramatika Demo Slanted"
    font-weight="400"
    font-style="oblique"
    font-stretch="normal"
    units-per-em="2048"
    panose-1="0 0 0 0 0 0 0 0 0 0"
    ascent="1638"
    descent="-410"
    x-height="1024"
    cap-height="1331"
    bbox="-332 -338 1896 1587"
    underline-thickness="122"
    underline-position="-368"
    slope="-14"
    unicode-range="U+000D-2014"
  />
<missing-glyph horiz-adv-x="2048" 
d="M358 1331h1332v-1331h-1332v1331zM481 1208v-1085h1086v1085h-1086zM938 666l-252 252l86 86l252 -252l252 252l86 -86l-252 -252l252 -252l-86 -86l-252 252l-252 -252l-86 86z" />
    <glyph glyph-name=".notdef" horiz-adv-x="2048" 
d="M358 1331h1332v-1331h-1332v1331zM481 1208v-1085h1086v1085h-1086zM938 666l-252 252l86 86l252 -252l252 252l86 -86l-252 -252l252 -252l-86 -86l-252 252l-252 -252l-86 86z" />
    <glyph glyph-name="uni0000" horiz-adv-x="0" 
 />
    <glyph glyph-name="uni0000" horiz-adv-x="0" 
 />
    <glyph glyph-name="uni000D" unicode="&#xd;" horiz-adv-x="409" 
 />
    <glyph glyph-name="space" unicode=" " horiz-adv-x="409" 
 />
    <glyph glyph-name="space" unicode="&#x2008;" horiz-adv-x="409" 
 />
    <glyph glyph-name="space" unicode="&#xa0;" horiz-adv-x="409" 
 />
    <glyph glyph-name="comma" unicode="," horiz-adv-x="409" 
d="M-147 -246l20 82q73 0 111.5 34t54.5 99l8 31h-94l47 195h176l-55 -226q-27 -106 -91 -160.5t-157 -54.5h-20z" />
    <glyph glyph-name="hyphen" unicode="-" horiz-adv-x="819" 
d="M834 727l-29 -123h-819l28 123h820z" />
    <glyph glyph-name="period" unicode="." horiz-adv-x="409" 
d="M0 195h174l-47 -195h-174z" />
    <glyph glyph-name="zero" unicode="0" horiz-adv-x="1228" 
d="M440 -31q-160 0 -266 80.5t-142 235.5t19 381q54 219 169 379t260 238.5t306 78.5t267.5 -80t143 -235t-18.5 -381q-41 -165 -118 -298.5t-175 -220t-211.5 -132.5t-233.5 -46zM236 666q-32 -127 -34.5 -228t18.5 -164.5t61.5 -105.5t87.5 -59t102 -17t110.5 17t116.5 59
t113.5 105.5t101 164.5t80.5 228q31 127 33.5 228t-19 164.5t-62 105t-87.5 58.5t-102 17t-110.5 -17t-116 -58.5t-113.5 -105t-101 -164.5t-79 -228z" />
    <glyph glyph-name="one" unicode="1" horiz-adv-x="501" 
d="M262 0h-174l256 1024h-246l23 92h10q73 0 135.5 19t106 51t73 68t48.5 77h102z" />
    <glyph glyph-name="two" unicode="2" horiz-adv-x="1126" 
d="M905 0h-1022l33 133q109 71 240.5 153t216.5 134t180 113.5t155.5 108t116 99t87.5 104t46 107.5q10 47 10.5 89t-17 78.5t-48 63t-82.5 41.5t-121 15q-160 0 -272 -93t-152 -255h-174q30 120 92 211.5t146 147.5t182.5 84t208.5 28q103 0 186.5 -23.5t145.5 -73.5
t82.5 -127.5t-2.5 -185.5q-15 -58 -48.5 -114t-78 -104t-109 -100t-129 -95t-151 -96t-162.5 -96.5t-176.5 -103.5t-179.5 -110h829z" />
    <glyph glyph-name="three" unicode="3" horiz-adv-x="1157" 
d="M229 1331h1035l-33 -133l-576 -381q231 -8 340.5 -109t59.5 -298q-22 -90 -75 -168.5t-133.5 -140t-195 -97t-248.5 -35.5q-94 0 -169 19t-123.5 53t-80.5 78.5t-44 98.5t-11 109t15 113h172q-13 -51 -13.5 -99t15 -94t47.5 -80t89 -54.5t134 -20.5t143.5 18.5t114.5 49
t85 72t59 86t34 92.5q18 64 9.5 112t-32 81.5t-66 54t-93.5 29.5t-115 9h-153l29 113l587 389h-839z" />
    <glyph glyph-name="four" unicode="4" horiz-adv-x="1198" 
d="M676 338h-715l27 113l905 880h205l-215 -860h235l-33 -133h-235l-86 -338h-174zM881 1163l-711 -692h539z" />
    <glyph glyph-name="five" unicode="5" horiz-adv-x="1157" 
d="M-10 440h172q-13 -51 -13.5 -99t15 -94t47.5 -80t89 -54.5t134 -20.5q161 0 281.5 88.5t163.5 259.5q43 170 -34.5 259t-238.5 89q-69 0 -136 -14.5t-113 -36t-82.5 -42.5t-54.5 -35l-17 -15l-123 41l252 645h891l-33 -133h-758l-162 -410q7 5 19 13.5t53 29.5t84.5 37
t109.5 29.5t132 13.5q99 0 177 -23.5t127 -65t78 -99t30.5 -126.5t-15.5 -146q-55 -218 -233 -350t-429 -132q-90 0 -162.5 19t-121 53t-81.5 79t-47.5 98t-14.5 109t14 113z" />
    <glyph glyph-name="six" unicode="6" horiz-adv-x="1198" 
d="M440 -31q-263 0 -373.5 157.5t-31.5 477.5q92 367 281.5 562.5t469.5 195.5q75 0 137 -13t105.5 -35.5t76 -53.5t51 -66.5t27.5 -75t7.5 -78.5t-10.5 -77h-174q10 31 8 63.5t-9 63t-28 57.5t-49.5 47.5t-73 32.5t-98.5 12q-186 0 -325 -145.5t-210 -397.5h10
q7 9 20.5 23.5t59.5 51.5t96 65.5t128.5 51.5t158.5 23q154 0 256.5 -62t138 -165.5t3.5 -232.5q-35 -140 -133.5 -251t-234.5 -171t-284 -60zM633 788q-149 0 -276 -90.5t-169 -257.5q-21 -88 -8.5 -153.5t53.5 -109t99 -64.5t129 -21q149 0 275.5 90.5t168.5 257.5
q21 88 8.5 153.5t-53.5 109t-98.5 64.5t-128.5 21z" />
    <glyph glyph-name="seven" unicode="7" horiz-adv-x="1126" 
d="M197 1331h1065l-35 -133q-307 -252 -519 -543t-343 -655h-195q141 350 360 642t533 556h-901z" />
    <glyph glyph-name="eight" unicode="8" horiz-adv-x="1167" 
d="M1141 1014q-17 -66 -55 -121t-80 -86t-82.5 -53t-66.5 -30l-26 -7l-4 -10l10 -2.5t26.5 -7.5t37.5 -14t43 -22.5t43.5 -32.5t37.5 -44t26.5 -57t10.5 -71t-11 -87q-44 -181 -214.5 -290.5t-426.5 -109.5t-371.5 109.5t-71.5 290.5q20 80 67 144.5t100.5 99t104 57.5
t83.5 30l34 7l4 10l-7.5 2.5t-19 8t-28.5 14t-31.5 21.5t-32 30t-27 39t-19 49t-6 60.5t9.5 72.5q17 67 60 128t110.5 111t168 79.5t218.5 29.5q80 0 145.5 -13.5t109.5 -38t76.5 -57.5t46 -71.5t17 -81t-9.5 -86.5zM371 1004q-27 -104 34 -170t203 -66q141 0 235.5 66
t121.5 170q26 104 -36 169.5t-204 65.5q-141 0 -234.5 -65.5t-119.5 -169.5zM150 362q-30 -118 42 -194t248 -76t286 76t140 194q30 120 -42.5 196.5t-248.5 76.5t-285.5 -76.5t-139.5 -196.5z" />
    <glyph glyph-name="nine" unicode="9" horiz-adv-x="1198" 
d="M756 1362q173 0 280 -67t144.5 -208t-19.5 -360q-92 -367 -281.5 -562.5t-469.5 -195.5q-75 0 -136.5 13t-105.5 35.5t-76.5 54t-50.5 67t-27 75t-8 78.5t10 77h174q-7 -38 -7.5 -76t17.5 -74.5t46 -64.5t78.5 -45t115.5 -17q186 0 325 145.5t210 397.5h-10
q-7 -9 -20.5 -23.5t-59.5 -51.5t-96 -65.5t-128.5 -51.5t-158.5 -23q-154 0 -256.5 62t-138 166t-3.5 233q35 140 133.5 251t234.5 170.5t284 59.5zM563 543q149 0 276 90.5t169 257.5q21 89 8.5 154t-53.5 108.5t-99 64.5t-129 21q-149 0 -275.5 -90.5t-168.5 -257.5
q-21 -89 -8.5 -154t53.5 -108.5t98.5 -64.5t128.5 -21z" />
    <glyph glyph-name="A" unicode="A" horiz-adv-x="1249" 
d="M-156 0l844 1331h205l178 -1331h-184l-43 358h-594l-223 -358h-183zM332 492h495l-79 667z" />
    <glyph glyph-name="B" unicode="B" horiz-adv-x="1177" 
d="M508 0h-602l332 1331h604q95 0 164.5 -18t117.5 -58.5t60 -105t-8 -156.5q-12 -50 -35.5 -93.5t-50.5 -73t-57 -53.5t-57.5 -38t-49.5 -23t-36 -12l-13 -4l-3 -10q3 -1 8.5 -2t22.5 -7t33 -14t36.5 -22t37 -30.5t31 -41t22.5 -53t7.5 -66.5t-11.5 -81q-92 -369 -553 -369
zM113 133h430q128 0 216 58.5t118 177.5q30 118 -32 181.5t-183 63.5h-431zM807 1198h-430l-113 -450h430q113 0 194 58.5t111 176.5q28 110 -25 162.5t-167 52.5z" />
    <glyph glyph-name="C" unicode="C" horiz-adv-x="1290" 
d="M51 666q77 317 282.5 506.5t504.5 189.5q88 0 159.5 -14.5t120.5 -39.5t86.5 -60.5t57 -77t31 -88t9.5 -94.5t-8 -97h-174q26 167 -58 257.5t-255 90.5q-197 0 -349.5 -147.5t-221.5 -425.5q-70 -277 9.5 -425.5t276.5 -148.5q171 0 300.5 90.5t185.5 257.5h174
q-24 -72 -60 -136t-95 -126.5t-132.5 -107.5t-177 -73t-225.5 -28q-121 0 -212.5 33t-148.5 94t-85.5 147.5t-26.5 192.5t32 230z" />
    <glyph glyph-name="D" unicode="D" horiz-adv-x="1249" 
d="M385 0h-479l332 1331h481q155 0 266 -48t168 -135t70.5 -209.5t-25.5 -272.5q-77 -306 -290.5 -486t-522.5 -180zM113 133h307q99 0 188 30.5t168.5 93t141 167t96.5 242.5q32 142 24 243t-57.5 165t-123.5 94t-173 30h-307z" />
    <glyph glyph-name="E" unicode="E" horiz-adv-x="1105" 
d="M-94 0l332 1331h983l-35 -133h-809l-113 -450h666l-33 -134h-666l-118 -481h809l-35 -133h-981z" />
    <glyph glyph-name="F" unicode="F" 
d="M-94 0l332 1331h962l-35 -133h-788l-113 -450h645l-32 -134h-646l-153 -614h-172z" />
    <glyph glyph-name="G" unicode="G" horiz-adv-x="1320" 
d="M51 666q77 316 287 506t510 190q88 0 159.5 -14.5t121 -39.5t87 -60.5t56.5 -77t31 -88t10 -94.5t-8 -97h-175q26 167 -58 257.5t-255 90.5q-198 0 -355 -148.5t-226 -424.5q-70 -276 13.5 -425t282.5 -149q70 0 133.5 18.5t112.5 48.5t91.5 72.5t73.5 87.5t56.5 95.5
t41 93.5t26.5 86h-512l33 133h676l-183 -727h-133l84 334q-6 -14 -14.5 -31t-32.5 -55t-51.5 -72t-72.5 -73.5t-95 -67.5t-119.5 -47t-144.5 -19q-121 0 -213.5 33t-151 94t-88.5 147.5t-29 193t31 229.5z" />
    <glyph glyph-name="H" unicode="H" horiz-adv-x="1208" 
d="M238 1331h174l-148 -583h717l147 583h175l-334 -1331h-174l153 614h-717l-153 -614h-172z" />
    <glyph glyph-name="I" unicode="I" horiz-adv-x="317" 
d="M78 0h-172l332 1331h174z" />
    <glyph glyph-name="J" unicode="J" horiz-adv-x="1105" 
d="M25 553h174l-31 -123q-41 -163 11.5 -250.5t221.5 -87.5t265 87.5t137 250.5l223 901h174l-223 -901q-56 -223 -212 -342t-394 -119q-237 0 -334 119t-41 342z" />
    <glyph glyph-name="K" unicode="K" horiz-adv-x="1146" 
d="M78 0h-172l332 1331h174l-172 -686l817 686h198l-649 -536l342 -795h-209l-274 678l-275 -227z" />
    <glyph glyph-name="L" unicode="L" horiz-adv-x="1044" 
d="M881 133l-35 -133h-940l332 1331h174l-299 -1198h768z" />
    <glyph glyph-name="M" unicode="M" horiz-adv-x="1536" 
d="M-94 0l332 1331h266l147 -1126l713 1126h266l-334 -1331h-174l287 1147l-727 -1147h-164l-153 1147l-287 -1147h-172z" />
    <glyph glyph-name="N" unicode="N" horiz-adv-x="1249" 
d="M78 0h-172l332 1331h204l451 -1106l276 1106h174l-333 -1331h-205l-451 1106z" />
    <glyph glyph-name="O" unicode="O" horiz-adv-x="1392" 
d="M522 -31q-124 0 -220 34t-155.5 96t-93 149t-31.5 192.5t29 225.5q37 150 110.5 277t176.5 220.5t239.5 146t290.5 52.5q124 0 220 -34t156 -96t93.5 -148.5t32 -192t-28.5 -225.5q-38 -150 -112 -277t-177 -221t-239.5 -146.5t-290.5 -52.5zM236 666
q-49 -194 -18 -321.5t117.5 -190t217.5 -62.5q98 0 189 35.5t171.5 105t144 180.5t99.5 253q49 194 17 321.5t-118.5 189.5t-217.5 62q-98 0 -189 -35.5t-171.5 -104.5t-143.5 -180t-98 -253z" />
    <glyph glyph-name="P" unicode="P" horiz-adv-x="1146" 
d="M78 0h-172l332 1331h604q91 0 161.5 -21.5t119.5 -66.5t64 -114.5t-7 -165.5q-24 -93 -76 -165t-122.5 -116t-152.5 -66t-172 -22h-430zM377 1198l-117 -471h420q114 0 200 59.5t115 176.5t-27.5 176t-170.5 59h-420z" />
    <glyph glyph-name="Q" unicode="Q" horiz-adv-x="1392" 
d="M49 666q38 150 112 277t177 220.5t239.5 146t290.5 52.5q124 0 220 -34t156 -96t93.5 -148.5t31.5 -192t-30 -225.5q-76 -310 -290 -500l125 -166l-115 -92l-129 170q-185 -109 -410 -109q-124 0 -219.5 34t-155 96t-93 149t-32 192.5t28.5 225.5zM233 666
q-48 -194 -17 -321.5t117.5 -190t217.5 -62.5q160 0 299 92l-145 195l116 92l140 -190q135 147 194 385q70 279 -22 426t-295 147q-98 0 -189.5 -35.5t-172 -104.5t-144 -180t-99.5 -253z" />
    <glyph glyph-name="R" unicode="R" horiz-adv-x="1177" 
d="M238 1331h593q214 0 311 -83t54 -255q-13 -52 -39 -98t-57 -77t-65.5 -57t-67 -41t-58.5 -25.5t-41 -14.5l-16 -4l-2 -10q3 0 7.5 -1t19 -5t28 -9.5t30.5 -17.5t30.5 -26.5t25.5 -38t17.5 -51t3.5 -66t-13 -82.5l-41 -164q-15 -59 -14.5 -98.5t10 -59t29.5 -37.5l-4 -10
h-195q-2 1 -4.5 4.5t-7.5 18t-6.5 35t2.5 59.5t16 88l31 123q17 65 16.5 110.5t-15 76t-48.5 48t-80 24.5t-113 7h-348l-149 -594h-172zM260 727h389q141 0 235 64t126 192q28 112 -32 163.5t-202 51.5h-399z" />
    <glyph glyph-name="S" unicode="S" horiz-adv-x="1157" 
d="M-25 440h172q-12 -56 -12.5 -107t19 -95t53.5 -76.5t91 -51t132 -18.5q79 0 146 17.5t113.5 45t82.5 66t56.5 77.5t31.5 81q16 54 7 97t-41.5 74t-102 47.5t-174.5 16.5q-111 0 -194 17.5t-132.5 49.5t-78 77t-29.5 99t12 116q42 172 209 280.5t409 108.5q81 0 147 -13
t111 -35.5t77.5 -54t50 -66.5t25 -75t5.5 -78t-12 -77h-174q8 32 8.5 63.5t-7 63t-27.5 58t-50 47t-77 32.5t-107 12q-100 0 -181.5 -27.5t-141 -88.5t-81.5 -150q-26 -104 46.5 -164.5t244.5 -60.5q289 0 390.5 -86.5t56.5 -262.5q-47 -188 -216.5 -309t-433.5 -121
q-95 0 -170.5 17.5t-126 50t-84 75.5t-47.5 96.5t-13 111t17 120.5z" />
    <glyph glyph-name="T" unicode="T" horiz-adv-x="1177" 
d="M633 1198h-471l35 133h1116l-35 -133h-471l-299 -1198h-174z" />
    <glyph glyph-name="U" unicode="U" horiz-adv-x="1208" 
d="M238 1331h174l-213 -860q-47 -189 14.5 -284t249.5 -95t296.5 95t155.5 284l213 860h175l-213 -860q-125 -502 -658 -502q-529 0 -407 502z" />
    <glyph glyph-name="V" unicode="V" horiz-adv-x="1249" 
d="M176 1331h184l140 -1159l721 1159h184l-846 -1331h-205z" />
    <glyph glyph-name="W" unicode="W" horiz-adv-x="1740" 
d="M176 1331h174l8 -1118l596 1118h164l35 -1118l569 1118h174l-692 -1331h-194l-39 1075l-576 -1075h-194z" />
    <glyph glyph-name="X" unicode="X" horiz-adv-x="1290" 
d="M-135 0l688 686l-336 645h215l246 -530l512 530h215l-660 -645l347 -686h-215l-259 561l-540 -561h-213z" />
    <glyph glyph-name="Y" unicode="Y" horiz-adv-x="1228" 
d="M506 584l-330 747h205l246 -612l553 612h204l-702 -747l-147 -584h-177z" />
    <glyph glyph-name="Z" unicode="Z" horiz-adv-x="1146" 
d="M1022 1198h-840l35 133h1045l-35 -133l-1104 -1065h840l-35 -133h-1043l35 133z" />
    <glyph glyph-name="a" unicode="a" horiz-adv-x="1054" 
d="M225 -31q-169 0 -241 85.5t-39 221.5q17 68 54 123.5t99.5 100.5t160.5 69.5t224 24.5q84 0 142 13t88.5 39t44 50.5t22.5 61.5q23 90 -32 132t-181 42q-266 0 -319 -215h-174q41 170 181.5 254t342.5 84q211 0 299.5 -82t46.5 -256l-119 -471q-22 -62 -10.5 -96
t82.5 -27l-31 -123q-49 -10 -94 -10q-28 0 -48.5 2t-41.5 8t-33 16.5t-22 27.5t-8 41.5t8 57.5l8 31q-6 -8 -18 -22t-52.5 -49.5t-85 -62.5t-113.5 -49t-141 -22zM436 492q-46 0 -90.5 -9.5t-89 -30t-77.5 -60.5t-46 -95q-23 -93 21 -149t143 -56q45 0 91 13t96 43.5t93 76
t80 117t60 160.5l16 69q-1 -3 -9 -10t-31 -19.5t-54 -23t-85 -18.5t-118 -8z" />
    <glyph glyph-name="b" unicode="b" horiz-adv-x="1116" 
d="M-94 0l332 1331h174l-123 -491q6 9 18 23.5t52 51.5t83.5 65.5t111 51.5t136.5 23q96 0 167.5 -29t113.5 -79.5t62 -119.5t17.5 -148t-24.5 -167q-28 -111 -80 -206.5t-126.5 -172t-177.5 -120.5t-222 -44q-69 0 -124.5 22t-86 53.5t-51 63.5t-26.5 54l-7 22l-47 -184
h-172zM629 932q-137 0 -255 -110.5t-167 -309.5q-50 -199 13 -309.5t200 -110.5q140 0 254.5 104.5t167.5 315.5q26 111 22.5 190.5t-36 130.5t-82.5 75t-117 24z" />
    <glyph glyph-name="c" unicode="c" 
d="M379 -31q-99 0 -174.5 28t-121.5 77.5t-70 118t-23.5 149t22.5 170.5q28 113 84 210.5t135 172t187 117.5t231 43q87 0 156 -21t112 -57t71 -85.5t32 -106.5t-6 -119h-185q14 126 -38.5 196t-172.5 70q-140 0 -254 -104.5t-167 -315.5q-26 -111 -22.5 -190.5t36 -130.5
t82.5 -75t117 -24q120 0 207.5 70t134.5 196h184q-49 -164 -197 -276.5t-360 -112.5z" />
    <glyph glyph-name="d" unicode="d" horiz-adv-x="1116" 
d="M12 512q28 111 80 206.5t126.5 172t177.5 120.5t222 44q50 0 93.5 -12t72.5 -31t53 -41.5t37.5 -45.5t23 -42t12.5 -31l3 -12l121 491h174l-331 -1331h-175l48 184q-6 -9 -18 -23.5t-52.5 -51.5t-84 -65.5t-111 -51.5t-136.5 -23q-96 0 -167.5 29t-113 79.5t-61.5 119.5
t-17.5 148t23.5 167zM197 512q-26 -111 -22.5 -190.5t36 -130.5t82.5 -75t117 -24q137 0 253.5 110.5t167.5 309.5q49 199 -13.5 309.5t-199.5 110.5q-140 0 -254 -104.5t-167 -315.5z" />
    <glyph glyph-name="e" unicode="e" 
d="M379 -31q-99 0 -174.5 28t-121.5 77.5t-70 118t-23.5 149t22.5 170.5q28 113 83.5 210.5t134 172t184 117.5t225.5 43q98 0 171 -28.5t114.5 -77t62 -113.5t19 -136t-20.5 -147l-20 -82h-779q-39 -191 25.5 -285t198.5 -94q103 0 191 55.5t138 159.5h174
q-70 -153 -209.5 -245.5t-324.5 -92.5zM608 932q-125 0 -226.5 -83.5t-160.5 -254.5h590q41 168 -18.5 253t-184.5 85z" />
    <glyph glyph-name="f" unicode="f" horiz-adv-x="655" 
d="M109 1024h204l19 72q35 146 97 201t192 55h174l-33 -133h-123q-65 0 -89.5 -20.5t-43.5 -102.5l-19 -72h226l-33 -133h-225l-224 -891h-174l224 891h-205z" />
    <glyph glyph-name="g" unicode="g" horiz-adv-x="1116" 
d="M16 532q26 103 76.5 194.5t124.5 166t177 118.5t222 44q50 0 93.5 -12t72.5 -31t53 -41.5t37.5 -45.5t23 -42t12.5 -31l3 -12l47 184h175l-232 -922q-49 -199 -205 -319.5t-395 -120.5q-201 0 -299.5 94t-77.5 244h174q-12 -105 51.5 -160t182.5 -55q52 0 98.5 9t93.5 32
t85 58t69 90.5t49 127.5l31 123q-6 -9 -18 -23.5t-52.5 -51.5t-84 -65.5t-111 -51.5t-136.5 -23q-96 0 -167.5 29t-113.5 78t-62.5 116t-19 142.5t22.5 156.5zM201 532q-50 -197 14 -298t203 -101q136 0 254 107t164 292q46 186 -19 293t-201 107q-139 0 -252.5 -101.5
t-162.5 -298.5z" />
    <glyph glyph-name="h" unicode="h" horiz-adv-x="1024" 
d="M238 1331h174l-123 -491q8 9 21.5 23.5t58 51.5t90 65.5t112 51.5t129.5 23q160 0 231 -91t27 -268l-174 -696h-174l164 655q34 133 -10 200t-148 67q-85 0 -162 -37.5t-141.5 -120.5t-93.5 -201l-141 -563h-172z" />
    <glyph glyph-name="i" unicode="i" horiz-adv-x="319" 
d="M160 1024h174l-256 -1024h-172zM362 1137h-174l50 194h174z" />
    <glyph glyph-name="j" unicode="j" horiz-adv-x="317" 
d="M-332 -307l31 127q41 -4 61 -4q57 0 86 26t50 107l266 1075h174l-268 -1075q-37 -149 -99.5 -207.5t-191.5 -58.5q-27 0 -54.5 2.5t-40.5 4.5zM362 1137h-174l50 194h174z" />
    <glyph glyph-name="k" unicode="k" horiz-adv-x="993" 
d="M238 1331h174l-211 -839l635 532h194l-498 -412l263 -612h-205l-199 494l-237 -197l-76 -297h-172z" />
    <glyph glyph-name="l" unicode="l" horiz-adv-x="317" 
d="M78 0h-172l332 1331h174z" />
    <glyph glyph-name="m" unicode="m" horiz-adv-x="1536" 
d="M160 1024h174l-45 -184q6 9 18 23.5t49.5 51.5t77.5 65.5t99 51.5t116 23q110 0 168 -57t57 -169q13 16 25.5 31.5t54 55t81.5 66.5t100 50t118 23q149 0 205.5 -89.5t11.5 -269.5l-174 -696h-174l164 655q34 138 5 202.5t-122 64.5q-104 0 -197.5 -81t-133.5 -223
l-156 -618h-174l164 655q68 267 -107 267q-106 0 -202.5 -85.5t-133.5 -232.5l-151 -604h-172z" />
    <glyph glyph-name="n" unicode="n" horiz-adv-x="1024" 
d="M160 1024h174l-45 -184q8 9 21.5 23.5t58 51.5t90 65.5t112 51.5t129.5 23q160 0 231 -91t27 -268l-174 -696h-174l164 655q34 133 -10 200t-148 67q-85 0 -162 -37.5t-141.5 -120.5t-93.5 -201l-141 -563h-172z" />
    <glyph glyph-name="o" unicode="o" horiz-adv-x="1105" 
d="M377 -31q-99 0 -174.5 28t-121.5 77.5t-69.5 118t-22.5 149t23 170.5q28 113 84 210.5t135 172t187 117.5t231 43q99 0 174.5 -28t122 -77.5t70.5 -118t23 -149t-23 -170.5q-29 -113 -85 -210.5t-135.5 -172t-187.5 -117.5t-231 -43zM197 512q-54 -211 8.5 -315.5
t202.5 -104.5t254.5 104.5t168.5 315.5q26 111 22.5 190.5t-36 130.5t-82.5 75t-117 24q-140 0 -254 -104.5t-167 -315.5z" />
    <glyph glyph-name="p" unicode="p" horiz-adv-x="1116" 
d="M-170 -307l330 1331h174l-45 -184q6 9 18 23.5t52 51.5t83.5 65.5t111 51.5t136.5 23q96 0 167.5 -29t113.5 -79.5t62 -119.5t17.5 -148t-24.5 -167q-28 -111 -80 -206.5t-126.5 -172t-177.5 -120.5t-222 -44q-69 0 -124.5 22t-86 53.5t-51 63.5t-26.5 54l-7 22
l-123 -491h-172zM629 932q-137 0 -255 -110.5t-167 -309.5q-50 -199 13 -309.5t200 -110.5q140 0 254.5 104.5t167.5 315.5q26 111 22.5 190.5t-36 130.5t-82.5 75t-117 24z" />
    <glyph glyph-name="q" unicode="q" horiz-adv-x="1116" 
d="M12 512q28 111 80 206.5t126.5 172t177.5 120.5t222 44q50 0 93.5 -12t72.5 -31t53 -41.5t37.5 -45.5t23 -42t12.5 -31l3 -12l48 184h174l-332 -1331h-174l121 491q-6 -9 -18 -23.5t-52.5 -51.5t-84 -65.5t-111 -51.5t-136.5 -23q-96 0 -167.5 29t-113.5 79.5t-62 119.5
t-17.5 148t24.5 167zM197 512q-26 -111 -22.5 -190.5t36 -130.5t82.5 -75t117 -24q137 0 254.5 110.5t166.5 309.5q50 199 -13 309.5t-200 110.5q-140 0 -254 -104.5t-167 -315.5z" />
    <glyph glyph-name="r" unicode="r" horiz-adv-x="696" 
d="M78 0h-172l254 1024h174l-68 -274q7 14 25 40.5t58.5 71t87.5 81t116.5 64t140.5 27.5h51l-40 -164h-62q-161 0 -281.5 -109t-175.5 -331z" />
    <glyph glyph-name="s" unicode="s" horiz-adv-x="962" 
d="M-57 307h172q-24 -96 32 -155.5t189 -59.5q76 0 135 17t94.5 46.5t56 61.5t29.5 70q5 28 6.5 54.5t-13.5 50t-42 41t-78.5 28t-122.5 10.5q-194 0 -279 70t-52 207q33 131 167.5 219t340.5 88q99 0 170 -22.5t105.5 -56.5t50 -79t14.5 -83t-11 -77h-174q5 22 6 44
t-7 50.5t-26.5 49.5t-59.5 36t-99 15q-118 0 -194 -46.5t-99 -137.5q-21 -82 40.5 -118t197.5 -36q210 0 296.5 -76t53.5 -211q-38 -153 -176.5 -245.5t-360.5 -92.5q-93 0 -164 17.5t-114 48.5t-68.5 73.5t-26.5 92.5t11 106z" />
    <glyph glyph-name="t" unicode="t" horiz-adv-x="675" 
d="M86 891l33 133h205l77 307h174l-77 -307h225l-33 -133h-225l-158 -635q-20 -85 -5 -114t71 -29l125 8l-29 -121q-78 -20 -180 -20q-128 0 -162 65t6 211l158 635h-205z" />
    <glyph glyph-name="u" unicode="u" horiz-adv-x="1024" 
d="M160 1024h174l-164 -655q-33 -133 11.5 -200t148.5 -67q85 0 162 37.5t141.5 120.5t93.5 201l139 563h174l-256 -1024h-174l47 188q-8 -9 -21.5 -23.5t-58 -52.5t-90 -67t-112 -52.5t-129.5 -23.5q-159 0 -230 90.5t-28 268.5z" />
    <glyph glyph-name="v" unicode="v" 
d="M272 0l-163 1024h184l110 -870l545 870h185l-676 -1024h-185z" />
    <glyph glyph-name="w" unicode="w" horiz-adv-x="1515" 
d="M150 0l-41 1024h184l10 -860l451 860h184l20 -860l441 860h184l-553 -1024h-215l-22 813l-428 -813h-215z" />
    <glyph glyph-name="x" unicode="x" 
d="M-135 0l530 532l-256 492h205l182 -379l371 379h205l-502 -492l266 -532h-204l-191 420l-403 -420h-203z" />
    <glyph glyph-name="y" unicode="y" 
d="M303 0l-194 1024h194l131 -842l514 842h185l-689 -1075q-95 -147 -172 -206.5t-200 -59.5q-27 0 -60 2.5t-52 4.5l-19 3l32 129q60 -6 101 -6q57 0 103 29t93 104z" />
    <glyph glyph-name="z" unicode="z" horiz-adv-x="983" 
d="M139 1024h881l-33 -133l-876 -758h686l-33 -133h-879l33 133l875 758h-687z" />
    <glyph glyph-name="uni0401" unicode="&#x401;" horiz-adv-x="1105" 
d="M-94 0l330 1331h983l-33 -133h-809l-113 -450h666l-33 -134h-666l-120 -481h809l-33 -133h-981zM944 1587h174l-49 -194h-174zM463 1587h174l-49 -194h-174z" />
    <glyph glyph-name="uni0410" unicode="&#x410;" horiz-adv-x="1249" 
d="M-156 0l844 1331h205l178 -1331h-184l-43 358h-594l-223 -358h-183zM332 492h495l-79 667z" />
    <glyph glyph-name="uni0411" unicode="&#x411;" horiz-adv-x="1187" 
d="M-94 0l332 1331h993l-35 -133h-819l-113 -450h461q91 0 160.5 -20t118 -64.5t61 -114.5t-9.5 -170q-49 -190 -188.5 -284.5t-327.5 -94.5h-633zM113 133h450q111 0 194 63.5t113 182.5q27 113 -25.5 174t-162.5 61h-451z" />
    <glyph glyph-name="uni0412" unicode="&#x412;" horiz-adv-x="1177" 
d="M508 0h-602l332 1331h604q95 0 164.5 -18t117.5 -58.5t60 -105t-8 -156.5q-12 -50 -35.5 -93.5t-50.5 -73t-57 -53.5t-57.5 -38t-49.5 -23t-36 -12l-13 -4l-3 -10q3 -1 8.5 -2t22.5 -7t33 -14t36.5 -22t37 -30.5t31 -41t22.5 -53t7.5 -66.5t-11.5 -81q-92 -369 -553 -369
zM113 133h430q128 0 216 58.5t118 177.5q30 118 -32 181.5t-183 63.5h-431zM807 1198h-430l-113 -450h430q113 0 194 58.5t111 176.5q28 110 -25 162.5t-167 52.5z" />
    <glyph glyph-name="uni0413" unicode="&#x413;" horiz-adv-x="1024" 
d="M78 0h-172l332 1331h921l-35 -133h-747z" />
    <glyph glyph-name="uni0414" unicode="&#x414;" horiz-adv-x="1392" 
d="M-47 -307h-174l108 440h41q55 0 114.5 51t122.5 154t127.5 276t121.5 400l78 317h860l-299 -1198h184l-109 -440h-174l76 307h-1003zM162 133h717l266 1065h-522l-52 -205q-88 -354 -193 -572t-216 -288z" />
    <glyph glyph-name="uni0415" unicode="&#x415;" horiz-adv-x="1105" 
d="M-94 0l332 1331h983l-35 -133h-809l-113 -450h666l-33 -134h-666l-118 -481h809l-35 -133h-981z" />
    <glyph glyph-name="uni0416" unicode="&#x416;" horiz-adv-x="1751" 
d="M88 0h-223l778 707l-446 624h204l404 -594l149 594h174l-149 -594l702 594h205l-762 -624l428 -707h-225l-369 655l-163 -655h-174l163 655z" />
    <glyph glyph-name="uni0417" unicode="&#x417;" horiz-adv-x="1146" 
d="M-35 399h172q-35 -141 37.5 -224t245.5 -83q177 0 287 77.5t139 199.5q17 58 7.5 100.5t-31 70t-62.5 44t-87 23.5t-104 7h-225l33 134h225q145 0 244 69.5t129 186.5q6 34 6 67.5t-18.5 64t-48.5 53.5t-84 36.5t-125 13.5q-77 0 -141.5 -17t-108 -44.5t-76.5 -64.5
t-51.5 -73.5t-28.5 -76.5h-174q18 72 63.5 140.5t118.5 127.5t184.5 95t243.5 36q77 0 141 -11t110 -29.5t80 -45.5t54 -58t30 -67t9 -72.5t-10 -74.5q-14 -54 -40 -100.5t-56 -77t-63.5 -55t-64.5 -38t-55.5 -22.5t-39.5 -12l-15 -3l-2 -10q4 0 10.5 -1t25.5 -5t37.5 -10
t42 -18.5t42.5 -28t36.5 -40.5t26 -54.5t8.5 -70.5t-12 -89q-43 -178 -219.5 -289t-421.5 -111q-252 0 -363 114.5t-61 315.5z" />
    <glyph glyph-name="uni0418" unicode="&#x418;" horiz-adv-x="1228" 
d="M238 1331h174l-277 -1106l1004 1106h184l-334 -1331h-174l277 1106l-1004 -1106h-182z" />
    <glyph glyph-name="uni0419" unicode="&#x419;" horiz-adv-x="1228" 
d="M506 1587h164q-37 -153 135 -153q93 0 144.5 42.5t68.5 110.5h164q-8 -32 -23 -62.5t-46.5 -67t-73.5 -63.5t-109.5 -45t-149.5 -18t-140.5 18t-87 45t-42 63.5t-13 67t8.5 62.5zM238 1331h174l-277 -1106l1004 1106h184l-334 -1331h-174l277 1106l-1004 -1106h-182z" />
    <glyph glyph-name="uni041A" unicode="&#x41a;" horiz-adv-x="1146" 
d="M78 0h-172l332 1331h174l-172 -686l817 686h198l-649 -536l342 -795h-209l-274 678l-275 -227z" />
    <glyph glyph-name="uni041B" unicode="&#x41b;" horiz-adv-x="1259" 
d="M-154 0l37 145q18 -6 49 -6q46 0 85 16t85.5 64.5t88.5 131.5t91 224.5t97 335.5l104 420h871l-332 -1331h-174l299 1198h-533l-75 -307q-84 -335 -176 -534.5t-193.5 -283t-232.5 -83.5q-23 0 -45.5 2.5t-33.5 5.5z" />
    <glyph glyph-name="uni041C" unicode="&#x41c;" horiz-adv-x="1536" 
d="M-94 0l332 1331h266l147 -1126l713 1126h266l-334 -1331h-174l287 1147l-727 -1147h-164l-153 1147l-287 -1147h-172z" />
    <glyph glyph-name="uni041D" unicode="&#x41d;" horiz-adv-x="1208" 
d="M238 1331h174l-148 -583h717l147 583h175l-334 -1331h-174l153 614h-717l-153 -614h-172z" />
    <glyph glyph-name="uni041E" unicode="&#x41e;" horiz-adv-x="1392" 
d="M522 -31q-124 0 -220 34t-155.5 96t-93 149t-31.5 192.5t29 225.5q37 150 110.5 277t176.5 220.5t239.5 146t290.5 52.5q124 0 220 -34t156 -96t93.5 -148.5t32 -192t-28.5 -225.5q-38 -150 -112 -277t-177 -221t-239.5 -146.5t-290.5 -52.5zM236 666
q-49 -194 -18 -321.5t117.5 -190t217.5 -62.5q98 0 189 35.5t171.5 105t144 180.5t99.5 253q49 194 17 321.5t-118.5 189.5t-217.5 62q-98 0 -189 -35.5t-171.5 -104.5t-143.5 -180t-98 -253z" />
    <glyph glyph-name="uni041F" unicode="&#x41f;" horiz-adv-x="1208" 
d="M-94 0l332 1331h1065l-334 -1331h-174l299 1198h-717l-299 -1198h-172z" />
    <glyph glyph-name="uni0420" unicode="&#x420;" horiz-adv-x="1146" 
d="M78 0h-172l332 1331h604q91 0 161.5 -21.5t119.5 -66.5t64 -114.5t-7 -165.5q-24 -93 -76 -165t-122.5 -116t-152.5 -66t-172 -22h-430zM377 1198l-117 -471h420q114 0 200 59.5t115 176.5t-27.5 176t-170.5 59h-420z" />
    <glyph glyph-name="uni0421" unicode="&#x421;" horiz-adv-x="1290" 
d="M51 666q77 317 282.5 506.5t504.5 189.5q88 0 159.5 -14.5t120.5 -39.5t86.5 -60.5t57 -77t31 -88t9.5 -94.5t-8 -97h-174q26 167 -58 257.5t-255 90.5q-197 0 -349.5 -147.5t-221.5 -425.5q-70 -277 9.5 -425.5t276.5 -148.5q171 0 300.5 90.5t185.5 257.5h174
q-24 -72 -60 -136t-95 -126.5t-132.5 -107.5t-177 -73t-225.5 -28q-121 0 -212.5 33t-148.5 94t-85.5 147.5t-26.5 192.5t32 230z" />
    <glyph glyph-name="uni0422" unicode="&#x422;" horiz-adv-x="1177" 
d="M633 1198h-471l35 133h1116l-35 -133h-471l-299 -1198h-174z" />
    <glyph glyph-name="uni0423" unicode="&#x423;" horiz-adv-x="1249" 
d="M176 1331h195l243 -839l596 839h195l-780 -1075q-110 -152 -207 -209t-207 -57q-27 0 -57.5 2.5t-47.5 5.5l-16 2l37 150q41 -7 102 -7q33 0 56 4t56 19t68 50t74 91z" />
    <glyph glyph-name="uni0424" unicode="&#x424;" horiz-adv-x="1464" 
d="M522 174q-299 0 -418.5 131t-62.5 361t241.5 360.5t483.5 130.5l45 174h174l-45 -174q300 0 420 -131t63 -360q-59 -230 -243.5 -361t-483.5 -131l-45 -174h-174zM907 1024l-178 -717q203 0 332 84t178 275q47 191 -41 274.5t-291 83.5zM733 1024q-203 0 -332 -83.5
t-176 -274.5q-49 -191 39 -275t291 -84z" />
    <glyph glyph-name="uni0425" unicode="&#x425;" horiz-adv-x="1290" 
d="M-135 0l688 686l-336 645h215l246 -530l512 530h215l-660 -645l347 -686h-215l-259 561l-540 -561h-213z" />
    <glyph glyph-name="uni0426" unicode="&#x426;" horiz-adv-x="1320" 
d="M-94 0l330 1331h174l-299 -1198h696l299 1198h174l-299 -1198h184l-108 -440h-174l75 307h-1052z" />
    <glyph glyph-name="uni0427" unicode="&#x427;" horiz-adv-x="1146" 
d="M217 1331h174l-96 -379q-22 -77 -19.5 -141t28 -110t89 -71.5t164.5 -25.5q144 0 250.5 58.5t122.5 125.5l137 543h174l-334 -1331h-174l158 625q-7 -6 -19 -16.5t-54 -37t-87.5 -47t-115.5 -37t-142 -16.5q-238 0 -325.5 116.5t-36.5 323.5z" />
    <glyph glyph-name="uni0428" unicode="&#x428;" horiz-adv-x="1658" 
d="M1419 0h-1513l332 1331h174l-299 -1198h497l299 1198h172l-299 -1198h498l299 1198h174z" />
    <glyph glyph-name="uni0429" unicode="&#x429;" horiz-adv-x="1792" 
d="M1430 0h-1524l330 1331h174l-299 -1198h497l299 1198h172l-299 -1198h498l299 1198h174l-299 -1198h184l-108 -440h-174z" />
    <glyph glyph-name="uni042A" unicode="&#x42a;" horiz-adv-x="1413" 
d="M449 1198h-297l34 133h471l-147 -583h440q91 0 160.5 -20t118 -64.5t61 -114.5t-9.5 -170q-49 -190 -188.5 -284.5t-327.5 -94.5h-614zM358 133h430q111 0 194.5 63.5t113.5 182.5q27 112 -25.5 173.5t-163.5 61.5h-430z" />
    <glyph glyph-name="uni042B" unicode="&#x42b;" horiz-adv-x="1423" 
d="M238 1331h174l-148 -583h389q91 0 160.5 -20t118 -64.5t61 -114.5t-9.5 -170q-49 -190 -188.5 -284.5t-327.5 -94.5h-561zM113 133h379q111 0 194 63.5t113 182.5q27 112 -25.5 173.5t-163.5 61.5h-379zM1343 1331h175l-334 -1331h-174z" />
    <glyph glyph-name="uni042C" unicode="&#x42c;" horiz-adv-x="1167" 
d="M518 0h-612l332 1331h174l-148 -583h441q91 0 160 -20t117.5 -64.5t61 -114.5t-9.5 -170q-49 -190 -188.5 -284.5t-327.5 -94.5zM113 133h430q111 0 194 63.5t113 182.5q27 113 -25.5 174t-162.5 61h-431z" />
    <glyph glyph-name="uni042D" unicode="&#x42d;" horiz-adv-x="1290" 
d="M-4 440h172q-26 -167 58 -257.5t255 -90.5q188 0 336 134t221 388h-704l33 134h702q43 238 -39.5 364.5t-263.5 126.5q-171 0 -300 -90.5t-185 -257.5h-175q24 72 60.5 136t95 126.5t132 107.5t177.5 73t226 28q151 0 256 -51t156 -143t60.5 -220t-30.5 -282
q-39 -155 -109.5 -282t-168.5 -220t-228.5 -144t-281.5 -51q-88 0 -159 14.5t-121 39.5t-86.5 61t-57 76t-30 88t-9.5 94.5t8 97.5z" />
    <glyph glyph-name="uni042E" unicode="&#x42e;" horiz-adv-x="1740" 
d="M-94 0l332 1331h174l-148 -583h217q43 131 113.5 240.5t165.5 194t220 132t267 47.5q123 0 216 -36t149 -99.5t83.5 -151.5t25.5 -191t-31 -218q-37 -145 -105.5 -269.5t-166.5 -221t-231 -151.5t-286 -55q-98 0 -177.5 23t-134.5 65.5t-92 100.5t-53.5 130.5t-16 154
t18.5 171.5h-215l-153 -614h-172zM1217 1239q-196 0 -351 -151t-221 -422q-68 -272 11.5 -423t275.5 -151t350.5 151t222.5 423q66 272 -13 422.5t-275 150.5z" />
    <glyph glyph-name="uni042F" unicode="&#x42f;" horiz-adv-x="1187" 
d="M47 0h-192l532 598q-154 16 -224 105.5t-28 259.5q24 96 77 169t124 115.5t149 63t162 20.5h635l-334 -1331h-174l150 594h-355zM319 963q-30 -118 22 -177t165 -59h450l117 471h-450q-113 0 -193.5 -58.5t-110.5 -176.5z" />
    <glyph glyph-name="uni0430" unicode="&#x430;" horiz-adv-x="1054" 
d="M225 -31q-169 0 -241 85.5t-39 221.5q17 68 54 123.5t99.5 100.5t160.5 69.5t224 24.5q84 0 142 13t88.5 39t44 50.5t22.5 61.5q23 90 -32 132t-181 42q-266 0 -319 -215h-174q41 170 181.5 254t342.5 84q211 0 299.5 -82t46.5 -256l-119 -471q-22 -62 -10.5 -96
t82.5 -27l-31 -123q-49 -10 -94 -10q-28 0 -48.5 2t-41.5 8t-33 16.5t-22 27.5t-8 41.5t8 57.5l8 31q-6 -8 -18 -22t-52.5 -49.5t-85 -62.5t-113.5 -49t-141 -22zM436 492q-46 0 -90.5 -9.5t-89 -30t-77.5 -60.5t-46 -95q-23 -93 21 -149t143 -56q45 0 91 13t96 43.5t93 76
t80 117t60 160.5l16 69q-1 -3 -9 -10t-31 -19.5t-54 -23t-85 -18.5t-118 -8z" />
    <glyph glyph-name="uni0431" unicode="&#x431;" horiz-adv-x="1105" 
d="M371 -31q-128 0 -214 44t-125 123.5t-43.5 191t31.5 245.5q43 172 106.5 305t155.5 237.5t221 160t290 55.5h112q74 0 115 22.5t55 80.5h103q-10 -38 -19.5 -64.5t-34 -68.5t-55.5 -68t-84.5 -46t-120.5 -20h-174q-362 0 -502 -450h11q3 6 9 17t27.5 41.5t45.5 58.5
t64 62.5t83.5 59t102.5 41.5t122 17q98 0 172 -29t117 -78t64 -116.5t19.5 -142t-21.5 -156.5q-27 -106 -82 -198.5t-133.5 -166t-186.5 -116t-231 -42.5zM602 891q-136 0 -254 -107t-164 -292q-50 -197 14 -298.5t203 -101.5t253.5 101.5t164.5 298.5t-14 298t-203 101z
" />
    <glyph glyph-name="uni0432" unicode="&#x432;" horiz-adv-x="1003" 
d="M160 1024h481q61 0 111.5 -8t94 -25.5t69 -46t36.5 -70t-4 -96.5q-14 -55 -45 -98t-65.5 -66t-67 -37.5t-53.5 -18.5l-21 -5l-2 -10l12.5 -2.5t31.5 -8.5t42 -18t43 -30t35 -44.5t18 -61.5t-8 -81q-20 -81 -66 -140.5t-111 -93t-138 -48.5t-158 -15h-489zM504 471h-307
l-86 -338h307q105 0 174.5 37.5t95.5 136.5q12 40 5.5 68.5t-20.5 47t-41.5 29t-58 15t-69.5 4.5zM301 891l-76 -297h277q224 0 264 154q5 31 5 53.5t-12.5 38.5t-27 26t-38 15.5t-45.5 7.5t-50 2h-297z" />
    <glyph glyph-name="uni0433" unicode="&#x433;" horiz-adv-x="829" 
d="M78 0h-172l254 1024h727l-33 -133h-553z" />
    <glyph glyph-name="uni0434" unicode="&#x434;" horiz-adv-x="1239" 
d="M-51 -307h-172l110 440h39q112 0 206.5 153t182.5 502l60 236h747l-223 -891h184l-110 -440h-174l78 307h-850zM172 133h553l188 758h-409l-31 -123q-63 -249 -134.5 -409.5t-166.5 -225.5z" />
    <glyph glyph-name="uni0435" unicode="&#x435;" 
d="M379 -31q-99 0 -174.5 28t-121.5 77.5t-70 118t-23.5 149t22.5 170.5q28 113 83.5 210.5t134 172t184 117.5t225.5 43q98 0 171 -28.5t114.5 -77t62 -113.5t19 -136t-20.5 -147l-20 -82h-779q-39 -191 25.5 -285t198.5 -94q103 0 191 55.5t138 159.5h174
q-70 -153 -209.5 -245.5t-324.5 -92.5zM608 932q-125 0 -226.5 -83.5t-160.5 -254.5h590q41 168 -18.5 253t-184.5 85z" />
    <glyph glyph-name="uni0436" unicode="&#x436;" horiz-adv-x="1484" 
d="M78 0h-223l616 553l-342 471h205l299 -440l110 440h175l-111 -440l520 440h205l-580 -471l344 -553h-225l-285 502l-124 -502h-175l125 502z" />
    <glyph glyph-name="uni0437" unicode="&#x437;" horiz-adv-x="1013" 
d="M-41 338h172q-28 -114 25 -180t200 -66q150 0 234 60.5t108 154.5q12 48 -1.5 81.5t-48 50.5t-74.5 24.5t-91 7.5h-184l29 123h184q104 0 175 41t91 123q20 75 -30.5 124.5t-180.5 49.5q-73 0 -133 -21.5t-97.5 -55.5t-60 -69t-30.5 -69h-174q14 55 50.5 110t97.5 108
t159.5 86.5t218.5 33.5q80 0 143 -11.5t103.5 -31t69 -46t38.5 -57.5t13.5 -64.5t-7.5 -66.5q-14 -55 -47 -98t-70.5 -66t-72.5 -37.5t-58 -18.5l-24 -5l-2 -10q10 -1 26.5 -4.5t57 -20t68.5 -39.5t44.5 -69t2.5 -103q-38 -151 -185.5 -244.5t-371.5 -93.5q-229 0 -319 100
t-48 269z" />
    <glyph glyph-name="uni0438" unicode="&#x438;" horiz-adv-x="1044" 
d="M160 1024h174l-199 -799l752 799h174l-256 -1024h-174l198 799l-751 -799h-172z" />
    <glyph glyph-name="uni0439" unicode="&#x439;" horiz-adv-x="1044" 
d="M-94 0l254 1024h174l-199 -799l752 799h174l-256 -1024h-174l200 799l-753 -799h-172zM360 1331h164q-35 -143 127 -143q85 0 135 39t66 104h164q-9 -32 -23.5 -61.5t-45 -64.5t-71 -60.5t-105.5 -42.5t-144 -17q-66 0 -117 11.5t-80.5 32t-48.5 45t-24.5 53t-4.5 54
t8 50.5z" />
    <glyph glyph-name="uni043A" unicode="&#x43a;" horiz-adv-x="993" 
d="M78 0h-172l254 1024h174l-133 -532l635 532h194l-498 -412l263 -612h-205l-201 494l-237 -197z" />
    <glyph glyph-name="uni043B" unicode="&#x43b;" horiz-adv-x="1075" 
d="M-154 0l35 143q15 -4 35 -4q43 0 75 10.5t68 43.5t66.5 92.5t65 159t69.5 241.5l84 338h748l-254 -1024h-174l221 891h-410l-55 -225q-92 -368 -205.5 -522t-288.5 -154q-23 0 -43 2.5t-29 5.5z" />
    <glyph glyph-name="uni043C" unicode="&#x43c;" horiz-adv-x="1310" 
d="M-94 0l254 1024h266l109 -840l526 840h266l-256 -1024h-174l215 860l-543 -860h-163l-113 860l-215 -860h-172z" />
    <glyph glyph-name="uni043D" unicode="&#x43d;" horiz-adv-x="1024" 
d="M78 0h-172l254 1024h174l-109 -430h533l108 430h174l-256 -1024h-174l119 471h-532z" />
    <glyph glyph-name="uni043E" unicode="&#x43e;" horiz-adv-x="1105" 
d="M377 -31q-99 0 -174.5 28t-121.5 77.5t-69.5 118t-22.5 149t23 170.5q28 113 84 210.5t135 172t187 117.5t231 43q99 0 174.5 -28t122 -77.5t70.5 -118t23 -149t-23 -170.5q-29 -113 -85 -210.5t-135.5 -172t-187.5 -117.5t-231 -43zM197 512q-54 -211 8.5 -315.5
t202.5 -104.5t254.5 104.5t168.5 315.5q26 111 22.5 190.5t-36 130.5t-82.5 75t-117 24q-140 0 -254 -104.5t-167 -315.5z" />
    <glyph glyph-name="uni043F" unicode="&#x43f;" horiz-adv-x="1024" 
d="M-94 0l254 1024h880l-256 -1024h-174l224 891h-533l-223 -891h-172z" />
    <glyph glyph-name="uni0440" unicode="&#x440;" horiz-adv-x="1116" 
d="M-170 -307l330 1331h174l-45 -184q6 9 18 23.5t52 51.5t83.5 65.5t111 51.5t136.5 23q96 0 167.5 -29t113.5 -79.5t62 -119.5t17.5 -148t-24.5 -167q-28 -111 -80 -206.5t-126.5 -172t-177.5 -120.5t-222 -44q-69 0 -124.5 22t-86 53.5t-51 63.5t-26.5 54l-7 22
l-123 -491h-172zM629 932q-137 0 -255 -110.5t-167 -309.5q-50 -199 13 -309.5t200 -110.5q140 0 254.5 104.5t167.5 315.5q26 111 22.5 190.5t-36 130.5t-82.5 75t-117 24z" />
    <glyph glyph-name="uni0441" unicode="&#x441;" 
d="M379 -31q-99 0 -174.5 28t-121.5 77.5t-70 118t-23.5 149t22.5 170.5q28 113 84 210.5t135 172t187 117.5t231 43q87 0 156 -21t112 -57t71 -85.5t32 -106.5t-6 -119h-185q14 126 -38.5 196t-172.5 70q-140 0 -254 -104.5t-167 -315.5q-26 -111 -22.5 -190.5t36 -130.5
t82.5 -75t117 -24q120 0 207.5 70t134.5 196h184q-49 -164 -197 -276.5t-360 -112.5z" />
    <glyph glyph-name="uni0442" unicode="&#x442;" horiz-adv-x="993" 
d="M465 891h-379l33 133h932l-33 -133h-379l-223 -891h-174z" />
    <glyph glyph-name="uni0443" unicode="&#x443;" 
d="M303 0l-194 1024h194l131 -842l514 842h185l-689 -1075q-95 -147 -172 -206.5t-200 -59.5q-27 0 -60 2.5t-52 4.5l-19 3l32 129q60 -6 101 -6q57 0 103 29t93 104z" />
    <glyph glyph-name="uni0444" unicode="&#x444;" horiz-adv-x="1361" 
d="M14 512q59 241 243.5 392t434.5 151l68 276h174l-68 -276q125 0 217.5 -40.5t142.5 -112.5t64.5 -171.5t-16.5 -218.5q-61 -242 -245.5 -392.5t-434.5 -150.5l-68 -276h-174l68 276q-249 0 -357.5 150.5t-48.5 392.5zM836 932l-211 -840q68 0 135.5 23t132 71t117 132
t80.5 194q25 115 16.5 195t-50 130t-97 72.5t-123.5 22.5zM199 512q-26 -115 -18 -195t49.5 -130t97 -72.5t123.5 -22.5l211 840q-69 0 -136 -23t-131.5 -71t-116.5 -132t-79 -194z" />
    <glyph glyph-name="uni0445" unicode="&#x445;" 
d="M-135 0l530 532l-256 492h205l182 -379l371 379h205l-502 -492l266 -532h-204l-191 420l-403 -420h-203z" />
    <glyph glyph-name="uni0446" unicode="&#x446;" horiz-adv-x="1157" 
d="M-94 0l254 1024h174l-223 -891h532l223 891h174l-223 -891h184l-110 -440h-174l78 307h-889z" />
    <glyph glyph-name="uni0447" unicode="&#x447;" horiz-adv-x="972" 
d="M150 1024h174l-68 -266q-34 -139 8 -202.5t172 -63.5q111 0 188 39.5t97 113.5l94 379h174l-256 -1024h-174l121 481q-5 -5 -14.5 -13.5t-42 -29.5t-68 -37t-91 -29.5t-112.5 -13.5q-168 0 -245.5 90.5t-34.5 268.5z" />
    <glyph glyph-name="uni0448" unicode="&#x448;" horiz-adv-x="1536" 
d="M-94 0l254 1024h174l-223 -891h436l223 891h172l-223 -891h436l223 891h174l-256 -1024h-1390z" />
    <glyph glyph-name="uni0449" unicode="&#x449;" horiz-adv-x="1669" 
d="M-94 0l254 1024h174l-223 -891h436l223 891h172l-223 -891h436l223 891h174l-223 -891h184l-110 -440h-174l78 307h-1401z" />
    <glyph glyph-name="uni044A" unicode="&#x44a;" horiz-adv-x="1146" 
d="M311 891h-245l32 133h420l-104 -420h276q56 0 102.5 -5.5t90 -19t72.5 -35.5t49.5 -55t22 -78t-10.5 -104q-21 -85 -68 -147t-113 -95.5t-138.5 -49t-157.5 -15.5h-451zM295 133h266q105 0 174.5 37.5t95.5 136.5q12 40 5.5 68.5t-20.5 47t-41.5 29t-58 15t-69.5 4.5
h-266z" />
    <glyph glyph-name="uni044B" unicode="&#x44b;" horiz-adv-x="1228" 
d="M160 1024h174l-105 -420h236q56 0 102.5 -5.5t90 -19t72.5 -35.5t49.5 -55t22 -78t-10.5 -104q-21 -85 -68.5 -147t-113 -95.5t-138.5 -49t-158 -15.5h-407zM1071 1024h174l-256 -1024h-174zM111 133h225q105 0 174.5 37.5t95.5 136.5q12 40 5.5 68.5t-20.5 47t-41.5 29
t-58 15t-69.5 4.5h-225z" />
    <glyph glyph-name="uni044C" unicode="&#x44c;" horiz-adv-x="962" 
d="M354 0h-448l254 1024h174l-105 -420h277q48 0 88.5 -4t79.5 -13.5t68 -25t53 -38.5t34.5 -54t13 -71.5t-11.5 -90.5q-21 -85 -68 -147t-113 -95.5t-138.5 -49t-157.5 -15.5zM111 133h266q105 0 174.5 37.5t95.5 136.5q12 40 5.5 68.5t-20.5 47t-41.5 29t-58 15t-69.5 4.5
h-266z" />
    <glyph glyph-name="uni044D" unicode="&#x44d;" 
d="M233 666h-184q49 164 198 276.5t361 112.5q99 0 174.5 -28t122 -77.5t70.5 -118t23 -149t-23 -170.5q-29 -113 -85 -210.5t-135.5 -172t-187.5 -117.5t-231 -43q-87 0 -155.5 21t-111.5 57t-70.5 85.5t-31.5 106.5t6 119h185q-15 -126 37 -196t172 -70q133 0 243.5 94
t167.5 285h-495l28 123h494q25 170 -39 254t-188 84q-121 0 -209.5 -70.5t-135.5 -195.5z" />
    <glyph glyph-name="uni044E" unicode="&#x44e;" horiz-adv-x="1443" 
d="M-94 0l254 1024h174l-109 -430h189q47 134 125 234.5t199.5 163.5t269.5 63q99 0 172.5 -28t117 -77.5t64 -118.5t18 -148.5t-25.5 -170.5q-29 -114 -82 -210.5t-128.5 -172t-180.5 -118t-228 -42.5q-95 0 -166.5 25.5t-114 71t-66 108.5t-23 138t15.5 159h-184
l-119 -471h-172zM977 932q-138 0 -243.5 -103t-158.5 -317q-55 -214 -1 -317t192 -103q137 0 242.5 103t160.5 317q53 214 -1 317t-191 103z" />
    <glyph glyph-name="uni044F" unicode="&#x44f;" horiz-adv-x="1013" 
d="M68 0h-193l389 432q-238 51 -182 285q21 85 69.5 147t115 95.5t138.5 49t154 15.5h471l-256 -1024h-174l105 420h-267zM266 717q-12 -40 -5.5 -68.5t20.5 -47t42 -29t58.5 -15t69.5 -4.5h286l86 338h-286q-40 0 -72.5 -4.5t-65.5 -16t-57.5 -30.5t-44.5 -50t-31 -73z" />
    <glyph glyph-name="uni0451" unicode="&#x451;" 
d="M379 -31q-99 0 -174.5 28t-121.5 77.5t-70 118t-23.5 149t22.5 170.5q28 113 83.5 210.5t134 172t184 117.5t225.5 43q98 0 171 -28.5t114.5 -77t62 -113.5t19 -136t-20.5 -147l-20 -82h-779q-39 -191 25.5 -285t198.5 -94q103 0 191 55.5t138 159.5h174
q-70 -153 -209.5 -245.5t-324.5 -92.5zM221 594h590q41 168 -18.5 253t-184.5 85t-226.5 -83.5t-160.5 -254.5zM997 1137h-174l47 194h174zM496 1137h-174l47 194h174z" />
    <glyph glyph-name="uni2000" unicode="&#x2000;" horiz-adv-x="1024" 
 />
    <glyph glyph-name="uni2001" unicode="&#x2001;" horiz-adv-x="2048" 
 />
    <glyph glyph-name="uni2001" unicode="&#x3000;" horiz-adv-x="2048" 
 />
    <glyph glyph-name="uni2009" unicode="&#x2009;" horiz-adv-x="204" 
 />
    <glyph glyph-name="uni2009" unicode="&#x202f;" horiz-adv-x="204" 
 />
    <glyph glyph-name="hairspace" unicode="&#x200a;" horiz-adv-x="102" 
 />
    <glyph glyph-name="uniFEFF" unicode="&#x200b;" horiz-adv-x="0" 
 />
    <glyph glyph-name="uniFEFF" unicode="&#xfeff;" horiz-adv-x="0" 
 />
    <glyph glyph-name="endash" unicode="&#x2013;" horiz-adv-x="1228" 
d="M1243 727l-29 -123h-1228l28 123h1229z" />
    <glyph glyph-name="emdash" unicode="&#x2014;" horiz-adv-x="1638" 
d="M1653 727l-29 -123h-1638l28 123h1639z" />
  </font>
</defs>
</svg>
