<?xml version="1.0" standalone="no"?>
<!DOCTYPE svg PUBLIC "-//W3C//DTD SVG 1.1//EN" "http://www.w3.org/Graphics/SVG/1.1/DTD/svg11.dtd" >
<svg xmlns="http://www.w3.org/2000/svg" xmlns:xlink="http://www.w3.org/1999/xlink" version="1.1">
<metadata>
Created by FontForge 20170731 at Mon Dec 13 15:33:55 2021
 By Aleksey,,,
Copyright (c) 2015 ParaType, Inc., ParaType Ltd. All rights reserved.
</metadata>
<defs>
<font id="KudryashevHeadline" horiz-adv-x="1081" >
  <font-face 
    font-family="Kudryashev Headline"
    font-weight="400"
    font-stretch="normal"
    units-per-em="2048"
    panose-1="2 3 5 3 8 5 6 2 3 3"
    ascent="1577"
    descent="-471"
    x-height="985"
    cap-height="1481"
    bbox="-932 -723 2367 1982"
    underline-thickness="102"
    underline-position="-307"
    unicode-range="U+0020-FEFF"
  />
<missing-glyph horiz-adv-x="458" 
 />
    <glyph glyph-name="afii10017.var.accented" unicode="&#x410;`" horiz-adv-x="1458" 
d="M1458 0h-540v25h71q20 0 32.5 1t31 6.5t28 19.5t9.5 36q0 19 -28 104t-140 408h-525l-71 -184q-2 -6 -11.5 -30t-13.5 -35t-13 -34t-13.5 -37t-11.5 -35.5t-11 -36t-8 -31.5t-6 -30t-2 -24q0 -79 71 -98h92v-25h-399v25h61q60 42 136.5 187.5t201.5 471.5l179 481
q104 275 120 316h50l507 -1323q12 -31 23 -51.5t30 -41t47 -30.5t66 -10h37v-25zM911 625l-254 675q-108 -288 -251 -675h505zM1057 1853q0 -39 -86 -94q-44 -28 -120 -74t-131 -78l-54 -32h-50l273 268q43 42 65.5 55t49.5 13q25 0 39 -15t14 -43z" />
    <glyph glyph-name="afii10022.var.accented" unicode="&#x415;`" horiz-adv-x="1357" 
d="M94 1481h1135l18 -310h-24l-23 170q-41 53 -184.5 84t-315.5 31q-98 0 -144 -9t-64.5 -32t-18.5 -72v-555h117q114 0 193.5 9.5t119 21t60 32.5t23.5 34t3 35v47h25v-381h-25v51q0 22 -3 35t-23.5 33t-60 31t-119 19.5t-193.5 8.5h-117v-629q0 -66 34 -88t97 -22
q131 0 264 11.5t205 29.5q155 44 197 157l22 92h25l-60 -315h-1163v25h72q81 0 107 22.5t26 87.5v1211q0 67 -33 88.5t-100 21.5h-72v25zM1081 1853q0 -39 -86 -94q-44 -28 -120 -74t-131 -78l-54 -32h-49l272 268q43 42 65.5 55t49.5 13q25 0 39 -15t14 -43z" />
    <glyph glyph-name="afii10026.var.accented" unicode="&#x418;`" horiz-adv-x="1765" 
d="M1671 0h-586v25h74q77 0 105 23t28 87v1159l-819 -1159q2 -59 27 -84.5t102 -25.5h76v-25h-584v25h70q84 0 109.5 24t25.5 86v1215q0 57 -27 81.5t-108 24.5h-70v25h584v-25h-76q-84 0 -106.5 -20.5t-22.5 -85.5v-1162l819 1158q-2 57 -31.5 83.5t-101.5 26.5h-74v25h586
v-25h-72q-78 0 -105.5 -22t-27.5 -84v-1215q0 -65 26 -87.5t107 -22.5h72v-25zM1210 1853q0 -39 -86 -94q-44 -28 -120 -74t-130 -78l-55 -32h-49l272 268q43 42 65.5 55t49.5 13q25 0 39 -15t14 -43z" />
    <glyph glyph-name="afii10032.var.accented" unicode="&#x41e;`" horiz-adv-x="1777" 
d="M1657 743q0 -68 -11.5 -139t-38 -147.5t-66.5 -145.5t-102.5 -132t-139.5 -108.5t-183 -72.5t-229 -27q-122 0 -227 27t-181.5 72.5t-138.5 108.5t-102 132t-67 145.5t-38.5 147.5t-11.5 139q0 72 12.5 145.5t41 149.5t70.5 145t104.5 129.5t139 105t179 70t219.5 25.5
q165 0 298.5 -47t220 -123t144.5 -178t82.5 -207t24.5 -215zM1466 743q0 216 -65 382.5t-197.5 265t-316.5 98.5q-275 0 -425.5 -201t-150.5 -545q0 -116 22.5 -224t70 -203.5t115 -166.5t162 -112t206.5 -41q114 0 210 41t163 112t114 166.5t69.5 203.5t22.5 224z
M1247 1853q0 -39 -86 -94q-44 -28 -120 -74t-131 -78l-54 -32h-49l272 268q43 42 65.5 55t49.5 13q25 0 39 -15t14 -43z" />
    <glyph glyph-name="afii10037.var.accented" unicode="&#x423;`" horiz-adv-x="1538" 
d="M1538 1456h-57q-74 -26 -135 -133q-48 -81 -104.5 -203.5t-128.5 -289.5t-118 -265q-152 -324 -245 -454q-50 -69 -113 -104.5t-127 -35.5q-34 0 -64 4t-63.5 15.5t-57.5 31t-39.5 53t-15.5 77.5q0 54 30 83t81 29q44 0 73 -23.5t29 -70.5q0 -19 -11 -43.5t-11 -40.5
q0 -29 23 -47.5t51 -18.5q110 0 192 107q18 24 44 67.5t42.5 76t15.5 32.5l-581 1038q-71 115 -187 115h-30v25h559v-25h-78q-41 0 -60.5 -15t-19.5 -36q0 -27 12 -47l480 -881q36 72 166 363q77 171 141.5 340.5t64.5 208.5q0 19 -6 33t-13.5 20t-20 9.5t-19 4t-18.5 0.5
h-82v25h401v-25zM1137 1853q0 -39 -86 -94q-44 -28 -120.5 -74t-130.5 -78l-55 -32h-49l273 268q44 42 65.5 55t48.5 13q25 0 39.5 -15.5t14.5 -42.5z" />
    <glyph glyph-name="afii10045.var.accented" unicode="&#x42b;`" horiz-adv-x="2099" 
d="M2005 0h-582v25h72q71 0 102 22.5t31 87.5v1211q0 59 -29 84.5t-104 25.5h-72v25h582v-25h-74q-44 0 -70.5 -6t-39 -21.5t-16 -33t-3.5 -49.5v-1211q0 -63 24.5 -86.5t104.5 -23.5h74v-25zM473 1346v-490q150 53 303 53q130 0 230.5 -24.5t164 -64.5t104.5 -98t57 -119
t16 -132q0 -68 -17.5 -132.5t-61.5 -129t-110.5 -112.5t-173.5 -77.5t-242 -29.5q-39 0 -152 5.5t-159 4.5h-338v25h70q69 0 102 25.5t33 84.5v1211q0 60 -29.5 85t-105.5 25h-68v25h582v-25h-74q-77 0 -104 -25t-27 -85zM1157 463q0 422 -416 422q-136 0 -268 -56v-757
q111 -58 262 -58q185 0 303.5 122t118.5 327zM1327 1853q0 -39 -86 -94q-44 -28 -120 -74t-131 -78l-54 -32h-49l272 268q43 42 65.5 55t49.5 13q25 0 39 -15t14 -43z" />
    <glyph glyph-name="afii10047.var.accented" unicode="&#x42d;`" horiz-adv-x="1517" 
d="M1397 797q0 -405 -198.5 -615.5t-555.5 -210.5q-233 0 -386 88t-153 209q0 66 36 96.5t85 30.5t76 -29t27 -67q0 -32 -20.5 -70.5t-20.5 -66.5q0 -51 60.5 -90.5t140 -57.5t155.5 -18q82 0 152 16.5t122.5 44t95.5 69t72.5 87t51.5 102t35 109.5t21 114.5t10.5 112
t2.5 107.5h-231q-116 0 -178.5 -1t-164 -8.5t-204.5 -23.5v90q263 -33 547 -33h231v43q0 49 -5.5 102.5t-21 120t-39.5 127t-64.5 119t-92.5 101t-127 68.5t-164 26q-163 0 -300 -84.5t-191 -200.5l-7 -46q-6 -46 -6 -50h-24l24 373h25l-2 -76q113 56 247 82t234 26
q139 0 256 -38.5t199 -105.5t139 -158t84 -195.5t27 -218.5zM958 1853q0 -39 -86 -94q-44 -28 -120 -74t-130 -78l-55 -32h-49l273 268q44 42 65.5 55t48.5 13q25 0 39 -15t14 -43z" />
    <glyph glyph-name="afii10048.var.accented" unicode="&#x42e;`" horiz-adv-x="2455" 
d="M2335 743q0 -80 -17 -163.5t-52 -172t-96.5 -165.5t-144 -138.5t-202 -97t-262.5 -35.5q-140 0 -257.5 34t-199.5 94t-144 136.5t-98.5 166.5t-54.5 177.5t-19 176.5h-315v-621q0 -66 26.5 -88t100.5 -22h78v-25h-584v25h74q77 0 104 22t27 88v1211q0 61 -28 85.5
t-103 24.5h-74v25h584v-25h-78q-74 0 -100.5 -22t-26.5 -88v-566h318q5 109 35 211t91 198t148 167t214.5 114t281.5 43q164 0 298 -47t221 -123t146 -178t84 -207t25 -215zM2144 743q0 215 -66 382t-199.5 265.5t-317.5 98.5q-277 0 -429.5 -201t-152.5 -545
q0 -116 23 -224t71 -203.5t116 -166.5t164 -112t208 -41q114 0 210.5 41t164 112t115.5 166.5t70.5 203.5t22.5 224zM1450 1853q0 -39 -86 -94q-44 -28 -120 -74t-130 -78l-55 -32h-49l272 268q43 42 65.5 55t49.5 13q25 0 39 -15t14 -43z" />
    <glyph glyph-name="afii10049.var.accented" unicode="&#x42f;`" horiz-adv-x="1540" 
d="M1446 0h-584v25h74q83 0 107 23t24 87v610q-104 1 -186 -26.5t-143.5 -84t-106 -126.5t-86.5 -168q-36 -84 -69.5 -143.5t-78 -114.5t-99.5 -83t-120 -28q-40 0 -71 13t-48 31t-28.5 43.5t-15.5 45t-5 41.5h25q4 -48 24 -86.5t56 -38.5q40 0 74 42t83 159q42 101 76 158
q58 103 161.5 192.5t246.5 141.5h-47q-81 1 -155.5 16.5t-140 48t-113 80t-75.5 116.5t-28 152q0 34 6 67.5t22.5 71.5t42 71.5t67.5 64.5t96 53t131 35.5t169 13.5q63 0 220.5 -11.5t226.5 -10.5h268v-25h-76q-78 0 -103.5 -24t-25.5 -86v-1211q0 -60 25.5 -85t103.5 -25
h76v-25zM1067 770v655q-122 54 -264 54q-85 0 -158.5 -22t-132 -65t-92 -113t-33.5 -159q0 -177 100 -273.5t297 -96.5q72 0 154 6q58 5 129 14zM1098 1853q0 -39 -86 -94q-44 -28 -120 -74t-130 -78l-55 -32h-50l273 268q44 42 65.5 55t48.5 13q25 0 39.5 -15.5t14.5 -42.5
z" />
    <glyph glyph-name="afii10023.var.accented" unicode="&#x401;`" horiz-adv-x="1357" 
d="M483 1663q0 -42 -28 -72t-74 -30q-44 0 -73 30.5t-29 71.5q0 42 28.5 72t73.5 30q46 0 74 -29.5t28 -72.5zM1167 1663q0 -42 -28 -72t-74 -30q-44 0 -73 30.5t-29 71.5q0 42 28.5 72t73.5 30q46 0 74 -29.5t28 -72.5zM958 1835q0 -39 -86 -94q-44 -28 -120 -74t-130 -79
l-55 -32h-49l273 269q43 42 65 54.5t49 12.5q53 0 53 -57zM94 1481h1135l18 -310h-24l-23 170q-41 53 -184.5 84t-315.5 31q-98 0 -144 -9t-64.5 -32t-18.5 -72v-555h117q114 0 193.5 9.5t119 21t60 32.5t23.5 34t3 35v47h25v-381h-25v51q0 22 -3 35t-23.5 33t-60 31
t-119 19.5t-193.5 8.5h-117v-629q0 -66 34 -88t97 -22q131 0 264 11.5t205 29.5q155 44 197 157l22 92h25l-60 -315h-1163v25h72q81 0 107 22.5t26 87.5v1211q0 67 -33 88.5t-100 21.5h-72v25z" />
    <glyph glyph-name="afii10065.var.accented" unicode="&#x430;`" horiz-adv-x="991" 
d="M879 27q26 0 47 27.5t30 78.5h25q-13 -86 -52.5 -121t-99.5 -35q-155 0 -155 211q-66 -69 -126.5 -114.5t-110.5 -65t-83 -25.5t-69 -6q-118 0 -179 58t-61 151q0 60 27.5 112.5t75.5 91t104.5 69t125 52.5t126.5 35.5t117 22.5l53 9v104q0 157 -55.5 230t-200.5 73
q-67 0 -117.5 -25t-50.5 -75q0 -19 9 -41t9 -41q0 -36 -22 -57t-64 -21q-34 0 -56 23.5t-22 62.5q0 79 93.5 139t232.5 60q80 0 145 -15.5t121 -51t87.5 -102t31.5 -159.5v-543q0 -112 64 -112zM674 221v332q-80 -15 -144 -32.5t-125.5 -45.5t-102.5 -63t-66 -86t-25 -113
q0 -88 45.5 -129t116.5 -41q69 0 156 56.5t145 121.5zM805 1430q0 -40 -86 -95q-44 -28 -120 -74t-131 -78l-54 -32h-49l272 268q43 42 65.5 55t49.5 13q53 0 53 -57z" />
    <glyph glyph-name="afii10070.var.accented" unicode="&#x435;`" horiz-adv-x="952" 
d="M508 1010q97 0 173.5 -38t122.5 -101t70.5 -138.5t26.5 -157.5h-684q1 -137 21.5 -239.5t51 -160t75.5 -92.5t85.5 -45.5t88.5 -10.5q203 0 331 202l21 -14q-138 -238 -391 -238q-59 0 -117.5 14.5t-119.5 51.5t-107 93t-75.5 147t-29.5 204q0 239 122.5 381t334.5 142z
M217 600h526q0 106 -26 191t-83.5 139.5t-139.5 54.5q-248 0 -277 -385zM825 1430q0 -40 -86 -95q-44 -28 -120 -74t-131 -78l-54 -32h-49l272 268q43 42 65.5 55t49.5 13q53 0 53 -57z" />
    <glyph glyph-name="afii10074.var.accented" unicode="&#x438;`" horiz-adv-x="1183" 
d="M1153 0h-448v25h43q59 0 79.5 19.5t20.5 68.5v684l-512 -643v-41q0 -47 19 -67.5t77 -20.5h47v-25h-448v25h63q57 0 79 20t22 68v759q0 50 -20 69.5t-81 19.5h-63v24h448v-24h-47q-58 0 -77 -20t-19 -69v-671l512 643v28q0 50 -18.5 69.5t-79.5 19.5h-45v24h448v-24h-63
q-59 0 -80 -20t-21 -69v-759q0 -48 20 -68t78 -20h66v-25zM928 1430q0 -40 -86 -95q-44 -28 -120 -74t-130 -78l-55 -32h-50l273 268q44 42 65.5 55t48.5 13q25 0 39.5 -15t14.5 -42z" />
    <glyph glyph-name="afii10080.var.accented" unicode="&#x43e;`" 
d="M1030 492q0 -230 -137.5 -372.5t-351.5 -142.5t-352 141.5t-138 373.5q0 251 135.5 384.5t354.5 133.5q223 0 356 -129.5t133 -388.5zM864 492q0 110 -18 196.5t-48 141.5t-72.5 90.5t-87.5 50t-97 14.5q-65 0 -120.5 -24.5t-102.5 -79t-74 -153.5t-27 -236
q0 -109 18 -195t48.5 -140.5t73 -90t87.5 -50t97 -14.5t97 14.5t87.5 50t72.5 90t48 140t18 195.5zM883 1430q0 -40 -86 -95q-44 -28 -120 -74t-131 -78l-54 -32h-50l273 268q44 42 65.5 55t48.5 13q25 0 39.5 -15t14.5 -42z" />
    <glyph glyph-name="afii10085.var.accented" unicode="&#x443;`" horiz-adv-x="1095" 
d="M1096 961h-21q-68 0 -104 -70q-23 -45 -76 -178l-152 -410q-82 -212 -168 -420q-80 -195 -141 -270q-78 -88 -184 -88q-74 0 -119 35.5t-45 95.5q0 41 25 64.5t61 23.5t59 -19.5t23 -56.5l-2 -45q-2 -24 12.5 -36.5t46.5 -12.5q52 0 101 59q94 126 161 332
q-60 135 -199.5 443t-209.5 466q-10 21 -17 31.5t-22 26t-39 22.5t-57 7h-29v24h449v-24h-66q-70 0 -70 -54q0 -15 13 -45l323 -733q248 672 248 743q0 89 -76 89h-57v24h332v-24zM926 1430q0 -40 -86 -95q-44 -28 -120 -74t-130 -78l-55 -32h-50l273 268q44 42 65.5 55
t48.5 13q25 0 39.5 -15t14.5 -42z" />
    <glyph glyph-name="afii10093.var.accented" unicode="&#x44b;`" horiz-adv-x="1466" 
d="M1436 0h-469v25h67q59 0 77.5 19t18.5 67v761q0 50 -18.5 69.5t-77.5 19.5h-67v24h469v-24h-68q-58 0 -77 -20.5t-19 -68.5v-761q0 -47 19 -66.5t77 -19.5h68v-25zM336 872v-268q92 27 217 27q84 0 152 -20.5t111 -52.5t72 -74.5t40.5 -84.5t11.5 -84q0 -62 -20.5 -117.5
t-64 -105t-123.5 -79t-187 -29.5q-48 0 -150 8q-114 8 -364 8v25h67q53 0 75 18.5t22 69.5v759q0 51 -20.5 70t-76.5 19h-67v24h469v-24h-66q-57 0 -77.5 -20t-20.5 -69zM774 315q0 31 -3.5 59t-13 63.5t-29 63.5t-49 52.5t-76.5 38.5t-107 14q-84 0 -160 -26v-527
q80 -45 174 -45q129 0 196.5 81.5t67.5 225.5zM1040 1430q0 -40 -86 -95q-44 -28 -120 -74t-130 -78l-55 -32h-49l272 268q43 42 65.5 55t49.5 13q53 0 53 -57z" />
    <glyph glyph-name="afii10095.var.accented" unicode="&#x44d;`" horiz-adv-x="925" 
d="M874 524q0 -268 -136 -407.5t-359 -139.5q-149 0 -242.5 56t-93.5 147q0 40 23.5 64t58.5 24t56.5 -20t21.5 -60q0 -15 -9.5 -43t-9.5 -45q0 -32 34.5 -55.5t77.5 -33t83 -9.5q69 0 122.5 20.5t89 59.5t59.5 86.5t36.5 110t17.5 121t5 128.5q-27 2 -113 2
q-235 0 -373 -28v69q105 -20 318 -20q105 0 168 2q0 432 -291 432q-75 0 -139 -28.5t-100.5 -68.5t-56.5 -77t-20 -59v-13h-24l12 246h25l-2 -55q50 30 136.5 55t164.5 25q212 0 336 -132.5t124 -353.5zM727 1430q0 -40 -86 -95q-44 -28 -120 -74t-131 -78l-54 -32h-49
l272 268q43 42 65.5 55t49.5 13q53 0 53 -57z" />
    <glyph glyph-name="afii10096.var.accented" unicode="&#x44e;`" horiz-adv-x="1587" 
d="M1536 492q0 -239 -135.5 -377t-351.5 -138q-105 0 -189.5 32t-139 84t-91.5 122t-52.5 142.5t-15.5 148.5v29h-225v-422q0 -52 19 -70t81 -18h64v-25h-469v25h65q60 0 79.5 18t19.5 70v759q0 55 -20 72t-79 17h-65v24h469v-24h-64q-61 0 -80.5 -16.5t-19.5 -72.5v-313
h227q8 69 30.5 133t63.5 122t96 101.5t131 69t165 25.5q215 0 351 -139t136 -379zM1370 492q0 137 -26.5 236t-73 153.5t-101.5 79t-120 24.5t-120 -24.5t-102 -79t-73.5 -153.5t-26.5 -236q0 -110 18 -195.5t48 -140t72 -90t87 -50t97 -14.5q65 0 120 24.5t101.5 78
t73 152.5t26.5 235zM1065 1430q0 -40 -86 -95q-44 -28 -120 -74t-131 -78l-54 -32h-49l272 268q43 42 65.5 55t49.5 13q53 0 53 -57z" />
    <glyph glyph-name="afii10097.var.accented" unicode="&#x44f;`" horiz-adv-x="1118" 
d="M1087 0h-471v25h70q53 0 73.5 20t20.5 68v362h-49q-56 0 -97.5 -9t-71 -23.5t-57 -46.5t-47 -63t-50.5 -89q-75 -139 -130.5 -195.5t-146.5 -56.5q-62 0 -91.5 39.5t-29.5 101.5h25q9 -92 53 -92q25 0 51 31.5t68 126.5q48 101 102 155q83 80 205 121q-186 9 -274 79
t-88 181q0 49 20.5 92.5t62.5 81t118 60t177 22.5q27 0 112 -3t128 -3h317v-24h-63q-60 0 -80 -18.5t-20 -70.5v-759q0 -49 19 -68.5t81 -19.5h63v-25zM780 512v397q-34 29 -90.5 43.5t-95.5 14.5q-126 0 -201.5 -61t-75.5 -179q0 -27 4.5 -53t22 -60t46.5 -58.5t82.5 -42
t125.5 -17.5h24.5h25t21.5 0.5t24 1l21 1.5t23 3t20.5 4.5t22.5 5.5zM995 1430q0 -40 -86 -95q-44 -28 -120 -74t-131 -78l-54 -32h-49l272 268q43 42 65.5 55t49.5 13q53 0 53 -57z" />
    <glyph glyph-name="afii10071.var.accented" unicode="&#x451;`" horiz-adv-x="952" 
d="M279 1305q0 -42 -28.5 -72.5t-74.5 -30.5q-44 0 -73 31t-29 72q0 42 28.5 72t73.5 30q46 0 74.5 -29.5t28.5 -72.5zM895 1305q0 -42 -28.5 -72.5t-73.5 -30.5q-44 0 -73.5 31t-29.5 72q0 42 29 72t74 30q46 0 74 -29.5t28 -72.5zM686 1436q0 -40 -86 -95
q-44 -28 -120 -74t-130 -78l-55 -32h-49l272 268q43 42 65.5 55t49.5 13q53 0 53 -57zM508 1010q97 0 173.5 -38t122.5 -101t70.5 -138.5t26.5 -157.5h-684q1 -137 21.5 -239.5t51 -160t75.5 -92.5t85.5 -45.5t88.5 -10.5q203 0 331 202l21 -14q-138 -238 -391 -238
q-59 0 -117.5 14.5t-119.5 51.5t-107 93t-75.5 147t-29.5 204q0 239 122.5 381t334.5 142zM217 600h526q0 106 -26 191t-83.5 139.5t-139.5 54.5q-248 0 -277 -385z" />
    <glyph glyph-name="fi" unicode="fi" horiz-adv-x="1132" 
d="M1102 0h-461v25h55q61 0 81 19.5t20 68.5v718q0 30 -2 45.5t-10.5 33t-26.5 25t-50.5 12.5t-82.5 5h-289v-839q0 -50 18.5 -69t77.5 -19h55v-25h-456v25h67q60 0 78.5 18t18.5 70v839h-164v33h164q1 147 31 258.5t76.5 176.5t113 105.5t129.5 54t137 13.5q80 0 141 -21.5
t93.5 -56t48.5 -72t16 -75.5q0 -57 -30 -91t-77 -34q-51 0 -77.5 27t-26.5 69q0 54 45 93q25 20 25 30q0 53 -48 80t-130 27q-78 0 -136 -30t-102 -96.5t-66 -181t-22 -276.5h287q224 0 315 19v-891q0 -48 20 -68t76 -20h68v-25z" />
    <glyph glyph-name="fl" unicode="fl" horiz-adv-x="1191" 
d="M637 1575q-66 0 -110.5 -10.5t-83.5 -41.5t-60.5 -87.5t-34 -147.5t-12.5 -223v-80h287v-33h-287v-839q0 -50 19.5 -69t78.5 -19h66v-25h-469v25h65q60 0 79.5 18t19.5 70v839h-164v33h164q0 231 53 356q106 258 373 258q18 0 50 -1t46 -1q33 -2 100 -2q90 0 180 11
v-1493q0 -49 18.5 -68.5t76.5 -19.5h69v-25h-469v25h66q54 0 76 20t22 68v1314q0 35 -7 58.5t-28.5 45.5t-67.5 33t-116 11z" />
    <glyph glyph-name=".notdef" horiz-adv-x="458" 
 />
    <glyph glyph-name=".notdef" horiz-adv-x="458" 
 />
    <glyph glyph-name=".null" horiz-adv-x="0" 
 />
    <glyph glyph-name="nonmarkingreturn" horiz-adv-x="682" 
 />
    <glyph glyph-name="space" unicode=" " horiz-adv-x="458" 
 />
    <glyph glyph-name="exclam" unicode="!" horiz-adv-x="577" 
d="M289 1507q47 0 75 -16t33 -39q-39 -319 -67 -666l-29 -462h-25q-20 360 -28 462q-26 322 -68 666q5 23 33.5 39t75.5 16zM391 72q0 -42 -28.5 -72.5t-73.5 -30.5q-42 0 -72.5 29.5t-30.5 73.5q0 42 30.5 72t72.5 30q45 0 73.5 -30t28.5 -72z" />
    <glyph glyph-name="quotedbl" unicode="&#x22;" horiz-adv-x="612" 
d="M240 1483l-68 -369h-25q-3 16 -65 367q43 26 78 26q41 0 80 -24zM530 1483l-67 -369h-25q-3 16 -65 367q43 26 78 26q40 0 79 -24z" />
    <glyph glyph-name="numbersign" unicode="#" horiz-adv-x="1458" 
d="M797 0l82 438h-439l-84 -438h-34l84 438h-365l4 33h367q17 97 53 285.5t53 285.5h-364l4 33h366l76 400h33l-76 -400h442l74 400h37l-78 -400h385l-6 -33h-385l-104 -571h378l-4 -33h-381l-84 -438h-34zM551 1042l-105 -571h439q65 342 106 571h-440z" />
    <glyph glyph-name="dollar" unicode="$" 
d="M557 -205h-25v176q-226 6 -446 113q0 -15 1 -43t1 -41h-25l-30 397h24l11 -88q58 -123 184 -214.5t280 -98.5v694l-24 12q-66 36 -109 61t-97.5 61t-88.5 70t-65.5 76t-46.5 90.5t-15 102.5q0 72 22.5 132t72 110t139 78.5t212.5 29.5v148h25v-148q194 -5 377 -104v72h24
l21 -359h-25l-6 78q-15 51 -41.5 97t-71 90.5t-116.5 72t-162 29.5v-606l53 -27q55 -29 91.5 -50t86 -53t82.5 -59.5t69 -65.5t57 -75.5t34.5 -84.5t13.5 -97q0 -167 -130.5 -283.5t-356.5 -116.5v-176zM895 281q0 211 -338 395v-680q89 1 156 24.5t105.5 64.5t57.5 90
t19 106zM233 1262q0 -62 22.5 -116t66 -98.5t92.5 -79t118 -71.5v592q-90 -1 -151.5 -20t-92.5 -53t-43 -70.5t-12 -83.5z" />
    <glyph glyph-name="percent" unicode="%" horiz-adv-x="1579" 
d="M680 1204q0 -82 -28 -145t-72.5 -97t-92.5 -50.5t-96 -16.5q-77 0 -135.5 28.5t-91 75t-48.5 98.5t-16 107t16 107.5t48.5 99t91 74.5t135.5 28q49 0 97.5 -17t92.5 -51.5t71.5 -97t27.5 -143.5zM551 1204q0 21 -1 39.5t-5 56t-15 67t-27.5 59.5t-45 46.5t-66.5 16.5
q-32 0 -58.5 -13t-43 -32.5t-28.5 -48t-18 -53.5t-9.5 -55.5t-4 -47t-0.5 -35.5q0 -31 1.5 -57t10.5 -71.5t24.5 -76.5t48 -55t77.5 -24q32 0 58.5 13.5t42.5 33t28 48.5t18 53.5t9 55.5t3.5 46.5t0.5 33.5zM1479 281q0 -82 -28 -145t-72.5 -97.5t-92.5 -51t-96 -16.5
q-77 0 -135.5 28.5t-91 75.5t-48.5 99t-16 107t16 107.5t48.5 99t91 74.5t135.5 28q49 0 97.5 -17t92.5 -51.5t71.5 -97t27.5 -143.5zM1350 281q0 17 -0.5 32t-3.5 46t-9 55.5t-18 54t-28 49.5t-42.5 33.5t-58.5 13.5q-38 0 -67 -16t-45.5 -45t-27.5 -57.5t-15.5 -65.5
t-5.5 -57t-1 -43q0 -31 1.5 -57t10.5 -71.5t24.5 -77t48 -55.5t77.5 -24q32 0 58.5 13.5t42.5 33t28 49t18 54t9 55.5t3.5 46.5t0.5 33.5zM1294 1495l-1024 -1522l-30 21l1024 1524z" />
    <glyph glyph-name="ampersand" unicode="&#x26;" horiz-adv-x="1513" 
d="M1477 651h-60q-50 0 -82.5 -23.5t-52.5 -78.5q-31 -101 -77 -184.5t-134 -171.5q59 -93 97 -131.5t87 -38.5q74 0 177 114l20 -16q-73 -88 -137 -119t-141 -31q-67 0 -125 25.5t-113 95.5q-39 -26 -68.5 -42.5t-78.5 -37t-108.5 -31t-127.5 -10.5q-225 0 -355 100
t-130 289q0 81 28 148.5t84 122.5t124 98t163 88q-129 196 -129 373q0 79 37.5 150.5t114 119t176.5 47.5q132 0 201 -73t69 -181q0 -193 -318 -385l441 -655q58 58 104.5 152.5t46.5 185.5q0 58 -32 79t-105 21h-55v25h459v-25zM840 1284q0 82 -47 140.5t-121 58.5
q-85 0 -140 -70.5t-55 -175.5q0 -176 123 -346q130 96 185 189t55 204zM924 111l-443 682q-33 -20 -67.5 -52.5t-71.5 -79.5t-60.5 -111.5t-23.5 -133.5q0 -79 19.5 -146t61.5 -125t119.5 -91.5t182.5 -33.5q136 0 283 91z" />
    <glyph glyph-name="quotesingle" unicode="'" horiz-adv-x="321" 
d="M240 1483l-68 -369h-25q-3 16 -65 367q43 26 78 26q41 0 80 -24z" />
    <glyph glyph-name="parenleft" unicode="(" horiz-adv-x="735" 
d="M713 -188l-15 -21q-174 104 -309.5 248t-220 334t-84.5 391q0 152 48.5 296.5t134 264t194 218t237.5 175.5l15 -20q-109 -81 -192.5 -190.5t-129.5 -211.5t-75 -211.5t-37.5 -184t-8.5 -136.5t9.5 -139t38.5 -188t75.5 -215t129.5 -215.5t190 -194.5z" />
    <glyph glyph-name="parenright" unicode=")" horiz-adv-x="735" 
d="M37 -209l-14 21q107 83 190 194.5t129 215.5t75.5 215t38.5 187.5t9 139.5q0 62 -8.5 136.5t-37.5 184t-74.5 211.5t-129 211.5t-192.5 190.5l14 20q129 -77 237.5 -175.5t194 -218t134 -264t48.5 -296.5q0 -201 -84.5 -391t-220 -334t-309.5 -248z" />
    <glyph glyph-name="asterisk" unicode="*" horiz-adv-x="1028" 
d="M449 1126v13l-283 92q-2 35 24.5 80.5t61.5 56.5l211 -201q13 20 35 23l-64 295q23 20 80 20q55 0 80 -22l-64 -293q23 -8 35 -23l211 201q35 -11 61.5 -56.5t24.5 -80.5q-192 -65 -284 -92q2 -4 2 -13q0 -8 -2 -12l284 -92q2 -35 -24.5 -80.5t-61.5 -56.5l-211 198
q-13 -16 -35 -20l64 -293q-25 -22 -80 -22q-57 0 -80 20q44 199 64 293q-23 6 -35 22l-211 -198q-35 11 -61.5 56.5t-24.5 80.5q191 63 283 92v12z" />
    <glyph glyph-name="plus" unicode="+" 
d="M1063 692h-506v-497h-33v497h-506v33h506v498h33v-498h506v-33z" />
    <glyph glyph-name="comma" unicode="," horiz-adv-x="440" 
d="M332 68q0 -103 -56 -211t-141 -185l-18 19q63 64 95 127t32 112q0 21 -3.5 34.5t-18 27.5t-19.5 17.5t-31 21.5q-63 40 -63 94q0 39 29 65.5t75 26.5q52 0 85.5 -38.5t33.5 -110.5z" />
    <glyph glyph-name="hyphen" unicode="-" horiz-adv-x="724" 
d="M102 557v33h521v-33h-521z" />
    <glyph glyph-name="period" unicode="." horiz-adv-x="421" 
d="M313 72q0 -42 -28.5 -72.5t-73.5 -30.5q-42 0 -72 29.5t-30 73.5q0 42 30 72t72 30q45 0 73.5 -30t28.5 -72z" />
    <glyph glyph-name="slash" unicode="/" horiz-adv-x="1163" 
d="M1204 1618l-1214 -1808l-31 20l1215 1808z" />
    <glyph glyph-name="zero" unicode="0" 
d="M1010 743q0 -102 -15.5 -205t-52 -206.5t-89.5 -182.5t-134.5 -128.5t-179.5 -49.5t-179 49.5t-133.5 128.5t-88 182.5t-51 206.5t-15.5 205t15.5 205.5t51 206t88 181.5t133.5 128t179 49t179.5 -49.5t134.5 -128.5t89.5 -182t52 -206t15.5 -204zM838 743
q0 63 -2.5 123.5t-10.5 137t-21 142t-36.5 130.5t-53.5 110.5t-75 74t-100 28.5q-62 0 -111.5 -37t-80.5 -102t-52.5 -140t-32 -164.5t-14.5 -160t-4 -142.5q0 -163 17 -292.5t45.5 -213t67 -139.5t79.5 -79t86 -23q46 0 87.5 23.5t81 79.5t68 140t45.5 213t17 291z" />
    <glyph glyph-name="one" unicode="1" 
d="M780 0h-506v25h45q26 0 45 3.5t40.5 14t33 34.5t11.5 60v1094q-116 -119 -259 -217l-14 20q124 96 227.5 217.5t159.5 247.5h43v-1362q0 -112 133 -112h41v-25z" />
    <glyph glyph-name="two" unicode="2" 
d="M967 281l-29 -281h-883v29l377 393q84 88 140 154.5t112 151.5t83.5 172.5t27.5 178.5q0 109 -28 191t-75.5 128t-102.5 68.5t-116 22.5q-180 0 -180 -137q0 -11 6 -41t6 -49q0 -40 -26.5 -64t-71.5 -24q-38 0 -65 27.5t-27 80.5q0 40 23.5 79.5t68 74t117.5 56t163 21.5
q229 0 354.5 -111.5t125.5 -311.5q0 -67 -27.5 -137.5t-79 -140.5t-102 -125t-119.5 -122l-446 -432h477q132 0 190 26.5t74 82.5l8 39h25z" />
    <glyph glyph-name="three" unicode="3" 
d="M995 418q0 -98 -31.5 -179t-94 -141t-162.5 -93.5t-230 -33.5q-88 0 -162 17t-125 44.5t-86.5 63.5t-52 74t-16.5 76q0 49 30 73.5t68 24.5t65 -24t27 -72q0 -25 -11 -58t-11 -61q0 -57 77.5 -95t172.5 -38q90 0 158.5 30t107.5 75t63.5 108t32.5 119t8 118
q0 74 -14.5 133t-37 98t-57 67.5t-66.5 43.5t-73 24t-69.5 11t-63.5 2q-76 0 -141 -16v57q68 -18 166 -18q86 0 161 37.5t123 111.5t48 168q0 146 -83.5 235t-226.5 89q-114 0 -164 -47t-36 -121q4 -24 4 -39q0 -46 -27.5 -68t-64.5 -22q-38 0 -64 25.5t-26 78.5
q0 34 18.5 69t58.5 69.5t118.5 56.5t182.5 22q109 0 193.5 -21t134.5 -54t82 -79.5t43.5 -91.5t11.5 -96q0 -113 -90 -207t-243 -124q162 -29 268 -141.5t106 -280.5z" />
    <glyph glyph-name="four" unicode="4" 
d="M53 356h619v580l157 127v-707h199v-24h-199v-195q0 -67 31 -89.5t101 -22.5h67v-25h-561v25h70q30 0 50.5 3.5t41.5 14.5t32 34.5t11 59.5v195h-647v24q309 456 571 906q14 25 45.5 80t53.5 95t38 72l150 -84z" />
    <glyph glyph-name="five" unicode="5" 
d="M983 494q0 -116 -42 -215t-113.5 -166t-165.5 -104.5t-197 -37.5q-164 0 -274.5 67t-110.5 169q0 55 28.5 80.5t69.5 25.5q44 0 67 -24.5t23 -59.5q0 -24 -11 -57.5t-11 -58.5q0 -34 18.5 -58t50.5 -36t65.5 -17.5t72.5 -5.5q92 0 163 42.5t112.5 114.5t62 159t20.5 184
q0 43 -4.5 80.5t-19.5 85.5t-40 87t-71 78.5t-108 66t-154.5 43.5t-206.5 17l67 527h449q93 0 135 14.5t51 48.5q0 2 1 6.5t1 5.5h27l-43 -208h-612q-10 -69 -26 -197t-21 -164h77q113 0 207 -15t162 -41t121 -63.5t86.5 -79.5t55 -92.5t30 -99t8.5 -102.5z" />
    <glyph glyph-name="six" unicode="6" 
d="M1014 469q0 -213 -124.5 -355.5t-332.5 -142.5q-95 0 -172 26.5t-127 67t-87 101.5t-56 118t-30.5 129.5t-14 122.5t-2.5 109q0 130 22.5 254t71 235.5t117.5 195.5t168.5 133.5t218.5 49.5q139 0 213.5 -50t74.5 -126q0 -51 -26 -75.5t-68 -24.5q-98 0 -98 96
q0 10 5 40.5t5 39.5q0 35 -29 55.5t-77 20.5q-198 0 -310 -182t-120 -508q156 116 356 116q186 0 304 -114.5t118 -331.5zM842 461q0 100 -21.5 176t-54 118.5t-78 68.5t-86 34t-86.5 8q-133 0 -280 -102q-3 -60 -3 -85.5t3 -82t4 -80.5q14 -242 93.5 -381t223.5 -139
q285 0 285 465z" />
    <glyph glyph-name="seven" unicode="7" 
d="M983 1516l-182 -406q-71 -153 -166 -430q-84 -258 -135 -555q-5 -30 -11 -51.5t-19.5 -48.5t-37.5 -41.5t-57 -14.5q-37 0 -63.5 26.5t-26.5 84.5q0 45 31.5 131t123.5 274l254 510l180 353h-425q-48 0 -79 -1.5t-68.5 -6.5t-62 -16t-48.5 -28t-39.5 -44t-24.5 -64h-25
l43 293h797l16 35h25z" />
    <glyph glyph-name="eight" unicode="8" 
d="M1026 385q0 -76 -31.5 -149t-90 -132.5t-151.5 -96t-206 -36.5q-241 0 -365.5 111.5t-124.5 288.5q0 292 338 417q-149 82 -206.5 172t-57.5 197q0 72 24.5 134.5t73 113t130.5 79.5t188 29q194 0 297.5 -92.5t103.5 -226.5q0 -124 -84 -215.5t-225 -132.5
q58 -30 93 -49.5t81.5 -48.5t73.5 -53.5t57 -59t45.5 -70t26 -81.5t10.5 -99zM831 1194q0 140 -75 217.5t-215 77.5q-151 0 -221 -75t-70 -204q0 -55 34 -111t88.5 -100.5t111 -78.5t112.5 -56q60 28 105.5 67.5t69.5 76.5t38.5 77.5t18 64.5t3.5 44zM889 334q0 44 -12.5 84
t-32.5 71.5t-53 63t-65 54.5t-77.5 49.5t-81.5 44.5l-86 43q-33 16 -49 24q-117 -70 -182.5 -177t-65.5 -224q0 -120 53.5 -206t135.5 -125.5t180 -39.5q87 0 153.5 28t105 76t58 107t19.5 127z" />
    <glyph glyph-name="nine" unicode="9" 
d="M68 1016q0 213 124 355t332 142q95 0 172 -26.5t127 -67t87 -101.5t56.5 -118t31 -129t14 -122t2.5 -109q0 -130 -22.5 -254t-71 -236t-117.5 -196t-168.5 -133.5t-218.5 -49.5q-139 0 -214 50t-75 126q0 51 26.5 76t67.5 25q98 0 98 -96q0 -10 -5 -40.5t-5 -39.5
q0 -35 29.5 -55.5t77.5 -20.5q198 0 310 182t120 508q-157 -117 -357 -117q-186 0 -303.5 115t-117.5 332zM240 1024q0 -100 21.5 -176t53.5 -118.5t77.5 -69t86 -34.5t86.5 -8q132 0 281 103q3 60 3 85.5t-3 82t-4 80.5q-14 241 -94 380.5t-224 139.5q-284 0 -284 -465z
" />
    <glyph glyph-name="colon" unicode=":" horiz-adv-x="421" 
d="M313 72q0 -42 -28.5 -72.5t-73.5 -30.5q-42 0 -72 29.5t-30 73.5q0 42 30 72t72 30q45 0 73.5 -30t28.5 -72zM313 932q0 -42 -28.5 -72.5t-73.5 -30.5q-42 0 -72 29.5t-30 73.5q0 42 30 72t72 30q45 0 73.5 -30t28.5 -72z" />
    <glyph glyph-name="semicolon" unicode=";" horiz-adv-x="440" 
d="M322 932q0 -42 -29 -72.5t-74 -30.5q-42 0 -72 29.5t-30 73.5q0 42 30 72t72 30q45 0 74 -30t29 -72zM332 68q0 -103 -56 -211t-141 -185l-18 19q63 64 95 127t32 112q0 21 -3.5 34.5t-18 27.5t-19.5 17.5t-31 21.5q-63 40 -63 94q0 39 29 65.5t75 26.5q52 0 85.5 -38.5
t33.5 -110.5z" />
    <glyph glyph-name="less" unicode="&#x3c;" 
d="M1071 182l-18 -32l-1041 546l1041 543l16 -33l-977 -510q567 -299 979 -514z" />
    <glyph glyph-name="equal" unicode="=" 
d="M1063 874h-1045v33h1045v-33zM1063 492h-1045v32h1045v-32z" />
    <glyph glyph-name="greater" unicode="&#x3e;" 
d="M29 150l-19 32q412 215 979 514l-977 510l17 33l1040 -543z" />
    <glyph glyph-name="question" unicode="?" horiz-adv-x="970" 
d="M895 1032q0 -64 -21 -124.5t-51.5 -108t-86 -103.5t-103.5 -96t-125 -100q-37 -29 -52.5 -42t-32.5 -41.5t-17 -60.5v-71h-25v256q0 40 19 66t75 67q48 36 77.5 60.5t75.5 71.5t72.5 89.5t47 103.5t20.5 125q0 70 -22 133t-65 114.5t-113.5 81.5t-159.5 30
q-44 0 -76.5 -11t-48.5 -25.5t-25.5 -34t-11.5 -30.5t-2 -22t4 -32t4 -34q0 -41 -25.5 -65.5t-70.5 -24.5q-40 0 -66.5 23.5t-26.5 70.5q0 81 89.5 145t250.5 64q216 0 354 -131.5t138 -343.5zM496 72q0 -42 -29 -72.5t-74 -30.5q-42 0 -72 29.5t-30 73.5q0 42 30 72t72 30
q45 0 74 -30t29 -72z" />
    <glyph glyph-name="at" unicode="@" horiz-adv-x="1857" 
d="M1800 797q0 -147 -48.5 -271.5t-123 -204.5t-167.5 -137t-179 -81.5t-160 -24.5q-112 0 -118 98q-5 74 43 203q-85 -122 -181 -205q-112 -94 -225 -94q-89 0 -135.5 59t-46.5 168q0 102 45 225.5t123 227.5q109 139 218 203.5t259 64.5q85 0 139 -31l21 58h122l-208 -664
q-45 -153 -45 -205q0 -34 14.5 -49.5t46.5 -15.5q61 0 135.5 26t153.5 81.5t144 132t107 188.5t42 239q0 61 -11 125t-36.5 137.5t-76 144.5t-120.5 126q-214 162 -553 162q-293 0 -530 -158q-172 -117 -272.5 -321.5t-100.5 -464.5q0 -174 64 -334.5t171 -270.5
q121 -124 297 -196t359 -72q158 0 289 25t228.5 72t168 101t135.5 126l18 -17q-63 -74 -134.5 -130t-171 -104.5t-233.5 -74.5t-296 -26q-136 0 -268 36.5t-250 111.5t-207.5 180t-142 252t-52.5 317q0 537 375 806q113 78 256.5 122t298.5 44q348 0 573 -170
q246 -194 246 -540zM1120 602l103 326q-18 76 -127 76q-89 0 -190 -92t-189 -236q-64 -114 -105 -234t-41 -196q0 -142 86 -142q84 0 195 89q92 82 160 184q69 107 108 225z" />
    <glyph glyph-name="A" unicode="A" horiz-adv-x="1458" 
d="M1458 0h-540v25h71q20 0 32.5 1t31 6.5t28 19.5t9.5 36q0 19 -28 104t-140 408h-525l-71 -184q-2 -6 -11.5 -30t-13.5 -35t-13 -34t-13.5 -37t-11.5 -35.5t-11 -36t-8 -31.5t-6 -30t-2 -24q0 -79 71 -98h92v-25h-399v25h61q60 42 136.5 187.5t201.5 471.5l179 481
q104 275 120 316h50l507 -1323q12 -31 23 -51.5t30 -41t47 -30.5t66 -10h37v-25zM911 625l-254 675q-108 -288 -251 -675h505z" />
    <glyph glyph-name="B" unicode="B" horiz-adv-x="1488" 
d="M1135 1141q0 60 -16.5 109t-42.5 82t-62.5 58t-72 39t-75.5 23t-68.5 11.5t-54.5 2.5q-66 0 -140.5 -15t-127.5 -38v-584h293q18 0 38.5 1.5t58.5 8t71.5 18t71.5 35.5t64.5 55.5t44.5 81.5t18 112zM1186 438q0 30 -4 59.5t-16.5 67t-33 70t-56.5 64.5t-83 55t-116.5 37
t-153.5 14h-248v-715q54 -35 140 -55.5t153 -20.5q52 0 105 11t111 41t101.5 76t72 122.5t28.5 173.5zM299 1346q0 110 -133 110h-72v25h342q43 1 171.5 5.5t195.5 4.5q111 0 199 -16t145.5 -44.5t95.5 -69t54 -86t16 -99.5q0 -137 -97 -234t-272 -127q188 -26 310 -126.5
t122 -258.5q0 -208 -145.5 -324t-388.5 -116q-12 0 -234 6q-144 4 -219 4h-295v25h72q81 0 107 22.5t26 87.5v1211z" />
    <glyph glyph-name="C" unicode="C" horiz-adv-x="1521" 
d="M1370 0h-24l4 78q-103 -60 -241 -83.5t-237 -23.5q-184 0 -328.5 56.5t-236 158t-139 238.5t-47.5 303q0 109 22.5 213.5t79 210t141 184.5t219.5 128.5t304 49.5q105 0 210.5 -23.5t243.5 -84.5l-2 76h25l27 -373h-25l-12 94q-66 127 -190.5 207t-307.5 80
q-111 0 -202.5 -40t-154.5 -110t-106 -165.5t-62.5 -204.5t-19.5 -230q0 -186 46 -331.5t125 -233.5t178 -133t212 -45q162 0 302 70t192 170l27 122h26z" />
    <glyph glyph-name="D" unicode="D" horiz-adv-x="1734" 
d="M1430 776q0 58 -7.5 118.5t-27 129.5t-49 130.5t-78 119.5t-110 100t-149 67t-190.5 25q-98 0 -179.5 -11t-166.5 -48v-1325q122 -68 340 -68q127 0 230.5 40t174.5 110.5t119.5 167.5t70.5 208t22 236zM299 1346q0 62 -31.5 86t-103.5 24h-70v25h318q38 1 189 5.5
t218 4.5q151 0 275 -30t205.5 -76.5t143 -112t94 -128t52.5 -134t25.5 -120t5.5 -95.5q0 -64 -7.5 -129t-30 -146.5t-58.5 -153.5t-98 -142.5t-143.5 -121t-200.5 -81.5t-263 -31q-32 0 -110.5 3t-92.5 3q-126 4 -167 4h-355v25h70q83 0 109 22.5t26 87.5v1211z" />
    <glyph glyph-name="E" unicode="E" horiz-adv-x="1357" 
d="M94 1481h1135l18 -310h-24l-23 170q-41 53 -184.5 84t-315.5 31q-98 0 -144 -9t-64.5 -32t-18.5 -72v-555h117q114 0 193.5 9.5t119 21t60 32.5t23.5 34t3 35v47h25v-381h-25v51q0 22 -3 35t-23.5 33t-60 31t-119 19.5t-193.5 8.5h-117v-629q0 -66 34 -88t97 -22
q131 0 264 11.5t205 29.5q155 44 197 157l22 92h25l-60 -315h-1163v25h72q81 0 107 22.5t26 87.5v1211q0 67 -33 88.5t-100 21.5h-72v25z" />
    <glyph glyph-name="F" unicode="F" horiz-adv-x="1320" 
d="M702 1456q-142 0 -185.5 -21.5t-43.5 -91.5v-555h119q82 0 147 4.5t106 11.5t70.5 19t44 21.5t22 25t8.5 24.5t1 24v49h25v-381h-25v51q0 22 -3 35t-23.5 33t-60 31t-119 19.5t-193.5 8.5h-119v-629q0 -64 23.5 -87t107.5 -23h78v-25h-588v25h72q81 0 107 22.5t26 87.5
v1211q0 67 -32 88.5t-101 21.5h-72v25h1135l20 -310h-24l-21 170q-41 53 -185.5 84t-316.5 31z" />
    <glyph glyph-name="G" unicode="G" horiz-adv-x="1679" 
d="M1669 686h-57q-32 0 -50 -2t-40 -11t-32.5 -31t-10.5 -58v-394q-106 -99 -269 -159t-325 -60q-161 0 -291.5 43t-217 115t-145 171t-84.5 206.5t-26 224.5q0 222 99.5 400.5t277.5 280t401 101.5q104 0 208.5 -21t256.5 -87q0 14 -1 39t-1 37h24q27 -371 27 -373h-24
l-13 94q-65 126 -189.5 206.5t-295.5 80.5q-125 0 -231 -51.5t-183.5 -147t-121.5 -240t-44 -321.5q0 -160 36 -288.5t93 -210t134 -136t153.5 -76.5t155.5 -22q99 0 177.5 22.5t123 55.5t73.5 75t38.5 75t9.5 61v299q0 62 -32 82t-99 20h-50v25h545v-25z" />
    <glyph glyph-name="H" unicode="H" horiz-adv-x="1765" 
d="M1671 0h-584v25h70q79 0 107 22.5t28 87.5v619h-819v-619q0 -66 27.5 -88t101.5 -22h76v-25h-584v25h70q79 0 107 22.5t28 87.5v1211q0 61 -29 85.5t-106 24.5h-70v25h584v-25h-76q-74 0 -101.5 -22t-27.5 -88v-568h819v568q0 65 -28 87.5t-107 22.5h-70v25h584v-25h-76
q-74 0 -101.5 -22t-27.5 -88v-1211q0 -66 27.5 -88t101.5 -22h76v-25z" />
    <glyph glyph-name="I" unicode="I" horiz-adv-x="772" 
d="M678 0h-584v25h70q81 0 108 24t27 86v1211q0 65 -28.5 87.5t-106.5 22.5h-70v25h584v-25h-76q-76 0 -102.5 -23t-26.5 -87v-1211q0 -61 25 -85.5t104 -24.5h76v-25z" />
    <glyph glyph-name="J" unicode="J" horiz-adv-x="976" 
d="M915 1456h-69q-80 0 -107.5 -25t-27.5 -85v-721q0 -145 -23.5 -259.5t-62.5 -187.5t-94 -120.5t-114 -67t-126 -19.5q-135 0 -203 55.5t-68 127.5q0 43 26 72.5t73 29.5q45 0 71.5 -23.5t26.5 -72.5q0 -14 -7 -41t-7 -39q0 -84 106 -84q45 0 80.5 17t59.5 44t41 73.5
t26 90.5t14 112t6 121.5t1 133.5v758q0 62 -28 86t-108 24h-77v25h591v-25z" />
    <glyph glyph-name="K" unicode="K" horiz-adv-x="1591" 
d="M1581 0h-354l-697 778l334 312q151 141 211 208.5t60 102.5q0 55 -91 55h-73v25h512v-25h-53q-53 0 -125 -37t-199 -145l-436 -404l659 -731q26 -28 40 -41t45.5 -34.5t72.5 -32t94 -11.5v-20zM676 0h-582v25h70q80 0 106.5 25.5t26.5 84.5v1211q0 66 -26.5 88t-106.5 22
h-70v25h582v-25h-76q-74 0 -101.5 -25t-27.5 -85v-1211q0 -59 28.5 -84.5t100.5 -25.5h76v-25z" />
    <glyph glyph-name="L" unicode="L" horiz-adv-x="1325" 
d="M700 25q230 0 369 41q149 44 197 161l32 123h27l-65 -350h-1166v25h72q133 0 133 110v1211q0 65 -29 87.5t-104 22.5h-70v25h584v-25h-78q-78 0 -103.5 -23t-25.5 -87v-1211q0 -43 14.5 -64.5t64 -33.5t148.5 -12z" />
    <glyph glyph-name="M" unicode="M" horiz-adv-x="2043" 
d="M1950 0h-584v25h70q79 0 107 22.5t28 87.5v1227l-602 -1120h-43l-609 1128v-854q0 -386 68 -491h127v-25h-418v25h125q70 106 70 555v776q0 100 -88 100h-107v25h357l575 -1065q94 177 285.5 532.5t285.5 532.5h353v-25h-72q-30 0 -44 -1t-35 -6t-30 -16t-16.5 -31.5
t-7.5 -51.5v-1215q0 -64 24.5 -87t106.5 -23h74v-25z" />
    <glyph glyph-name="N" unicode="N" horiz-adv-x="1632" 
d="M1538 1456h-125q-70 -112 -70 -495v-990h-26l-1000 1241v-710q0 -369 70 -477h125v-25h-418v25h125q30 47 47 152t19 164.5t4 160.5v745q-23 30 -89 111.5t-96 122.5h218l993 -1243v784q0 133 -18.5 261.5t-49.5 172.5h-127v25h418v-25z" />
    <glyph glyph-name="O" unicode="O" horiz-adv-x="1777" 
d="M1657 743q0 -68 -11.5 -139t-38 -147.5t-66.5 -145.5t-102.5 -132t-139.5 -108.5t-183 -72.5t-229 -27q-122 0 -227 27t-181.5 72.5t-138.5 108.5t-102 132t-67 145.5t-38.5 147.5t-11.5 139q0 72 12.5 145.5t41 149.5t70.5 145t104.5 129.5t139 105t179 70t219.5 25.5
q165 0 298.5 -47t220 -123t144.5 -178t82.5 -207t24.5 -215zM1466 743q0 216 -65 382.5t-197.5 265t-316.5 98.5q-275 0 -425.5 -201t-150.5 -545q0 -116 22.5 -224t70 -203.5t115 -166.5t162 -112t206.5 -41q114 0 210 41t163 112t114 166.5t69.5 203.5t22.5 224z" />
    <glyph glyph-name="P" unicode="P" horiz-adv-x="1382" 
d="M1300 1065q0 -93 -39 -177.5t-110.5 -150t-183.5 -104.5t-248 -39q-143 0 -246 24v-483q0 -66 24.5 -88t104.5 -22h76v-25h-584v25h72q80 0 106.5 23t26.5 87v1211q0 65 -27 87.5t-106 22.5h-72v25h223q61 1 208.5 11.5t213.5 10.5q125 0 224.5 -26t161 -68.5t102.5 -101
t57 -118t16 -124.5zM1110 1065q0 201 -105.5 307.5t-297.5 106.5q-121 0 -234 -58v-780q99 -23 238 -23q183 0 291 116.5t108 330.5z" />
    <glyph glyph-name="Q" unicode="Q" horiz-adv-x="1824" 
d="M1657 743q0 -67 -11 -137t-37 -145.5t-65 -143.5t-99 -130.5t-134 -109t-175 -75t-218 -31.5q-153 -106 -277 -151h45q102 0 200.5 -42.5t287.5 -152.5q106 -61 217 -61q40 0 84.5 14t103 55t107.5 105l18 -17q-43 -59 -94.5 -101.5t-95 -63.5t-97 -32.5t-84 -13.5
t-73.5 -2q-230 0 -512 181q-50 32 -72.5 46t-69 32.5t-82.5 17.5h-80v25q131 17 223 52.5t201 108.5q-119 2 -221 30t-177 74t-135.5 108.5t-99.5 131.5t-65.5 144.5t-37.5 145.5t-11 138q0 102 25 205.5t84 206t144.5 181.5t218 128t294.5 49q165 0 298.5 -47t220 -123
t144.5 -178t82.5 -207t24.5 -215zM1466 743q0 216 -65 382.5t-197.5 265t-316.5 98.5q-275 0 -425.5 -201t-150.5 -545q0 -116 22.5 -224t70 -203.5t115 -166.5t162 -112t206.5 -41q114 0 210 41t163 112t114 166.5t69.5 203.5t22.5 224z" />
    <glyph glyph-name="R" unicode="R" horiz-adv-x="1531" 
d="M1417 20q38 0 58 39t22 86h25q-1 -23 -3.5 -42t-13.5 -45t-28.5 -43.5t-51 -30.5t-79.5 -13q-51 0 -96.5 21t-81.5 55t-73 92t-66 117.5t-66 144.5q-73 170 -201 270t-291 91v-627q0 -57 30.5 -83.5t98.5 -26.5h76v-25h-582v25h70q72 0 102.5 26t30.5 84v1211
q0 70 -28.5 90t-104.5 20h-70v25h232q71 -1 223.5 10.5t216.5 11.5q137 0 240.5 -23.5t163 -59.5t96.5 -87.5t49 -99.5t12 -103q0 -124 -77.5 -215t-204.5 -136t-285 -46q284 -89 432 -354q32 -56 113 -234q36 -77 59 -100q26 -24 53 -25zM1137 1120q0 176 -105 267.5
t-289 91.5q-151 0 -272 -56v-637l109 -10q110 -12 168 -12q175 0 282 99.5t107 256.5z" />
    <glyph glyph-name="S" unicode="S" horiz-adv-x="1208" 
d="M1102 371q0 -167 -131 -283.5t-357 -116.5q-242 0 -471 113q0 -15 1 -43t1 -41h-24l-31 397h25l10 -88q60 -127 193 -220t294 -93q173 0 256.5 82t83.5 203q0 225 -387 421q-66 36 -109 61t-97.5 61t-88.5 70t-65.5 76t-46.5 90.5t-15 102.5q0 72 23 132t72.5 110.5
t140 79t213.5 28.5q213 0 399 -104v72h25l20 -359h-24l-6 78q-11 41 -30 79t-52.5 77.5t-77 68t-107.5 46.5t-141 18q-92 0 -155.5 -18.5t-95 -52.5t-44 -71t-12.5 -85q0 -58 21 -109.5t52.5 -89.5t85 -77.5t101 -66.5t117.5 -63q55 -29 91.5 -50t86 -53t82.5 -59.5
t69 -65.5t57 -75.5t34.5 -84.5t13.5 -97z" />
    <glyph glyph-name="T" unicode="T" horiz-adv-x="1366" 
d="M39 1481h1284l23 -330h-25l-18 158q-48 83 -151.5 115t-264.5 32q-70 0 -94.5 -18t-24.5 -49v-1254q0 -63 25.5 -86.5t111.5 -23.5h68v-25h-584v25h72q80 0 106.5 23t26.5 87v1251q0 32 -23.5 51t-93.5 19q-168 0 -265.5 -30t-145.5 -117v2l-21 -160h-25z" />
    <glyph glyph-name="U" unicode="U" horiz-adv-x="1656" 
d="M1595 1456h-120q-35 -62 -49.5 -160t-20.5 -295v-354q0 -119 -16 -216t-54.5 -183t-100 -143.5t-156 -91t-218.5 -33.5q-122 0 -219.5 23.5t-158.5 57t-105 87t-64.5 96.5t-32 104t-13 90.5t-1.5 73.5v4v830q0 58 -33 84t-104 26h-68v25h584v-25h-76q-129 0 -129 -110
v-865q0 -111 31.5 -198t77.5 -136.5t106 -81.5t110 -42.5t97 -10.5q121 0 212 33.5t148 89.5t92 139t48.5 172.5t13.5 200.5v373q0 171 -22 288t-45 148h-125v25h411v-25z" />
    <glyph glyph-name="V" unicode="V" horiz-adv-x="1554" 
d="M1554 1456h-69q-69 -55 -164 -262q-23 -50 -62.5 -146t-160.5 -382.5t-295 -694.5h-29l-584 1360q-11 26 -16 35.5t-20.5 30.5t-32.5 30t-48.5 18t-72.5 11v25h524v-25h-75q-89 0 -89 -70q0 -14 21 -67l479 -1135q202 476 309.5 743t131.5 342t24 107q0 42 -22.5 61
t-53.5 19h-98v25h403v-25z" />
    <glyph glyph-name="W" unicode="W" horiz-adv-x="2260" 
d="M2261 1456h-74q-61 -55 -123.5 -180.5t-162.5 -396.5l-340 -908h-27l-371 1012q-101 -262 -393 -1012h-29q-86 237 -271.5 701.5t-260.5 666.5q-44 117 -174 117h-35v25h565v-25h-90q-51 0 -73.5 -15t-22.5 -46q0 -27 16 -64l434 -1126l318 821l-107 313q-14 40 -34 65.5
t-45.5 35.5t-43.5 13t-43 3h-53v25h586v-25h-107q-50 0 -70 -15.5t-20 -47.5q0 -21 19 -76l383 -1110l266 706q141 372 141 473q0 70 -90 70h-76v25h408v-25z" />
    <glyph glyph-name="X" unicode="X" horiz-adv-x="1599" 
d="M1569 0h-606v25h79q19 0 32.5 1t30 5.5t25.5 15t9 27.5q0 15 -33 69l-358 537q-3 0 -103 -123q-165 -203 -245.5 -318t-80.5 -157q0 -23 14.5 -37t27.5 -17t26 -3h100v-25h-456v25h78q21 13 58.5 44.5t116.5 111t171 186.5q60 71 274 340l-379 565q-47 70 -79.5 104.5
t-78.5 55.5t-112 24v25h579v-25h-114q-56 0 -56 -47q0 -25 37 -80l320 -487q49 62 164.5 223t158.5 231q45 76 45 107q0 32 -24.5 42.5t-75.5 10.5h-82v25h467v-25h-61q-139 -52 -308 -278l-268 -361l395 -586q135 -206 287 -206h25v-25z" />
    <glyph glyph-name="Y" unicode="Y" horiz-adv-x="1486" 
d="M1487 1456h-64q-99 -50 -178 -190l-196 -326l-199 -328v-477q0 -58 31 -84t104 -26h70v-25h-582v25h70q73 0 103 27t30 83v461q-72 119 -218.5 359.5t-217.5 359.5q-19 30 -31.5 46.5t-40 41t-69.5 37.5t-99 16v25h567v-25h-82q-57 0 -72.5 -33t15.5 -80l410 -696
l182 305q108 184 137 240q74 148 74 199q0 34 -22.5 49.5t-73.5 15.5h-60v25h412v-25z" />
    <glyph glyph-name="Z" unicode="Z" horiz-adv-x="1343" 
d="M295 25h170q353 0 524 43q83 21 128 61t73 96l35 125h24l-37 -207l-28 -143h-1090v31l897 1425h-243q-187 0 -294.5 -16.5t-156.5 -45.5t-86 -83l-18 -160h-25l18 330h1010v-37z" />
    <glyph glyph-name="bracketleft" unicode="[" horiz-adv-x="794" 
d="M621 -336h-461v1882h461v-24h-172q-32 0 -55 -7.5t-34.5 -17.5t-17.5 -26t-7 -26.5t-1 -25.5v-1622q0 -17 1 -27.5t7 -27.5t17.5 -27t34.5 -18t55 -8h172v-25z" />
    <glyph glyph-name="backslash" unicode="\" horiz-adv-x="1163" 
d="M1174 -190l-1215 1808l31 20l1214 -1808z" />
    <glyph glyph-name="bracketright" unicode="]" horiz-adv-x="794" 
d="M635 -336h-461v25h172q32 0 55 8t34.5 18t17.5 27t7 27.5t1 27.5v1622q0 15 -1 25.5t-7 26.5t-17.5 26t-34.5 17.5t-55 7.5h-172v24h461v-1882z" />
    <glyph glyph-name="asciicircum" unicode="^" 
d="M954 1161h-57l-358 279l-355 -279h-59l414 328z" />
    <glyph glyph-name="underscore" unicode="_" horiz-adv-x="1198" 
d="M1221 -412h-1244v33h1244v-33z" />
    <glyph glyph-name="grave" unicode="`" horiz-adv-x="671" 
d="M45 1430q0 57 53 57q27 0 49.5 -13t65.5 -55l272 -268h-49q-207 121 -305 184q-86 55 -86 95z" />
    <glyph glyph-name="a" unicode="a" horiz-adv-x="991" 
d="M879 27q26 0 47 27.5t30 78.5h25q-13 -86 -52.5 -121t-99.5 -35q-155 0 -155 211q-66 -69 -126.5 -114.5t-110.5 -65t-83 -25.5t-69 -6q-118 0 -179 58t-61 151q0 60 27.5 112.5t75.5 91t104.5 69t125 52.5t126.5 35.5t117 22.5l53 9v104q0 157 -55.5 230t-200.5 73
q-67 0 -117.5 -25t-50.5 -75q0 -19 9 -41t9 -41q0 -36 -22 -57t-64 -21q-34 0 -56 23.5t-22 62.5q0 79 93.5 139t232.5 60q80 0 145 -15.5t121 -51t87.5 -102t31.5 -159.5v-543q0 -112 64 -112zM674 221v332q-80 -15 -144 -32.5t-125.5 -45.5t-102.5 -63t-66 -86t-25 -113
q0 -88 45.5 -129t116.5 -41q69 0 156 56.5t145 121.5z" />
    <glyph glyph-name="b" unicode="b" horiz-adv-x="1163" 
d="M1112 524q0 -113 -29.5 -206t-79.5 -155t-117 -105t-139.5 -62t-150.5 -19q-182 0 -313 113l-68 -113h-20v1446q0 38 -9.5 53.5t-42.5 22.5t-112 8v25q161 9 305 78v-701q73 55 153 78t144 23q99 0 185 -30.5t152 -89.5t104 -153t38 -213zM946 504q0 89 -22 168.5
t-65.5 145.5t-117.5 104.5t-170 38.5q-137 0 -235 -76v-658q0 -58 23.5 -103t62.5 -70.5t84.5 -38.5t93.5 -13q66 0 127 31t110.5 91t79 158t29.5 222z" />
    <glyph glyph-name="c" unicode="c" horiz-adv-x="921" 
d="M551 27q101 0 188.5 58.5t139.5 176.5l22 -10q-17 -39 -34.5 -71t-51 -72t-72 -67t-98 -46t-129.5 -19q-199 0 -332 136t-133 370q0 82 18.5 158t58.5 143.5t97 117.5t139.5 79t180.5 29q141 0 225 -50.5t84 -123.5q0 -50 -24.5 -75.5t-61.5 -25.5q-86 0 -86 90
q0 9 3 33.5t3 38.5q0 37 -40 62.5t-111 25.5q-65 0 -119.5 -25t-101 -80.5t-73 -156.5t-26.5 -240q0 -227 94 -341.5t240 -114.5z" />
    <glyph glyph-name="d" unicode="d" horiz-adv-x="1163" 
d="M1133 0h-306v106q-57 -54 -137.5 -91.5t-171.5 -37.5q-55 0 -113.5 13.5t-123 49.5t-114.5 91t-83 146t-33 206q0 155 70.5 275.5t187.5 184.5t260 67q127 0 258 -45v460q0 37 -9 51.5t-42.5 22t-111.5 8.5v25q170 8 305 78v-1497q0 -46 20 -67t78 -21h66v-25zM827 139
v719q-31 63 -99 95t-148 32q-175 0 -269 -124.5t-94 -360.5q0 -113 23 -199.5t59 -137t86 -82.5t96 -43t97 -11q137 0 249 112z" />
    <glyph glyph-name="e" unicode="e" horiz-adv-x="952" 
d="M508 1010q97 0 173.5 -38t122.5 -101t70.5 -138.5t26.5 -157.5h-684q1 -137 21.5 -239.5t51 -160t75.5 -92.5t85.5 -45.5t88.5 -10.5q203 0 331 202l21 -14q-138 -238 -391 -238q-59 0 -117.5 14.5t-119.5 51.5t-107 93t-75.5 147t-29.5 204q0 239 122.5 381t334.5 142z
M217 600h526q0 106 -26 191t-83.5 139.5t-139.5 54.5q-248 0 -277 -385z" />
    <glyph glyph-name="f" unicode="f" horiz-adv-x="690" 
d="M711 1487q0 -37 -20 -61.5t-60 -24.5q-38 0 -61.5 24t-26.5 70q-1 21 -3.5 32t-15 22.5t-35.5 11.5q-40 0 -71 -48.5t-48 -125.5t-25.5 -158.5t-8.5 -161.5v-82h278v-33h-278v-839q0 -50 19.5 -69t78.5 -19h66v-25h-469v25h67q59 0 78 18t19 70v839h-164v33h164
q0 229 59 379q51 113 134.5 171t180.5 58q62 0 102 -30.5t40 -75.5z" />
    <glyph glyph-name="g" unicode="g" horiz-adv-x="1077" 
d="M1077 1094q0 -35 -22 -60.5t-58 -25.5q-59 0 -79 51q-1 1 -2.5 6t-2.5 6.5t-3 5.5t-3.5 5.5t-4 3.5t-5.5 3t-6 1q-20 0 -52 -48t-51 -86q94 -44 146.5 -108t52.5 -164q0 -79 -30.5 -141t-77.5 -99.5t-109 -62t-120 -34t-115 -9.5h-39q-89 0 -138 -8q-44 -7 -64 -29
t-20 -49q0 -24 14 -43t32.5 -31t50 -22.5t53.5 -15.5t55 -11l178 -33q79 -15 141 -34.5t121.5 -51t92 -80t32.5 -110.5q0 -45 -13 -84.5t-48 -79t-90.5 -68t-147 -46t-210.5 -17.5q-124 0 -219 17t-149.5 43.5t-89 62.5t-46 69.5t-11.5 69.5q0 90 69 159t224 99
q-135 46 -135 156q0 63 45 105.5t135 51.5q-125 40 -195.5 126.5t-70.5 199.5q0 151 121 238.5t326 87.5q122 0 223 -43q20 42 36 69t44.5 65.5t63.5 58.5t75 20q43 0 69.5 -25t26.5 -61zM821 680q0 305 -291 305q-65 0 -115 -20.5t-79 -52t-47.5 -76t-24.5 -85.5t-6 -87
q0 -28 4.5 -60t22 -77t45.5 -80t80.5 -60t121.5 -25q72 0 128.5 26.5t91 72t52 101.5t17.5 118zM930 -227q0 63 -65.5 120t-209.5 84q-34 6 -94.5 17.5t-111 20.5t-93.5 16q-97 -23 -163 -84.5t-66 -145.5q0 -252 416 -252q191 0 289 61.5t98 162.5z" />
    <glyph glyph-name="h" unicode="h" horiz-adv-x="1161" 
d="M1130 0h-468v25h65q59 0 78.5 20t19.5 68v551q0 59 -8.5 106t-21 77.5t-32.5 53t-39 33.5t-45 17.5t-44.5 8t-44.5 1.5q-104 0 -254 -93v-755q0 -54 18 -71t78 -17h68v-25h-469v25h63q60 0 80.5 18t20.5 70v1314q0 35 -11 50.5t-44 22t-109 7.5v25q172 11 305 78v-713
q162 113 313 113q62 0 111.5 -13t82.5 -33t56.5 -51.5t36.5 -62t20 -72.5t9 -73.5t2 -73.5v-518q0 -48 19.5 -68t76.5 -20h67v-25z" />
    <glyph glyph-name="i" unicode="i" horiz-adv-x="530" 
d="M500 0h-469v25h65q59 0 79 19.5t20 68.5v714q0 23 -3.5 36t-11.5 23t-28.5 14t-46.5 6t-74 3v25q158 10 305 80v-901q0 -48 19.5 -68t76.5 -20h68v-25zM367 1305q0 -42 -28.5 -72.5t-74.5 -30.5q-44 0 -73 31t-29 72q0 42 28.5 72t73.5 30q46 0 74.5 -29.5t28.5 -72.5z
" />
    <glyph glyph-name="j" unicode="j" horiz-adv-x="573" 
d="M223 827q0 53 -27 67t-137 15v25q178 16 306 80v-1028q0 -98 -21.5 -178t-57 -131.5t-83 -86.5t-97 -50t-102.5 -15q-73 0 -120.5 38.5t-47.5 94.5q0 37 22 61.5t62 24.5q37 0 57.5 -20t20.5 -52q0 -8 -4 -29t-4 -28q0 -33 15.5 -49.5t39.5 -16.5q21 0 39 4t45.5 24.5
t46.5 55.5t33 104.5t14 164.5v925zM393 1305q0 -42 -28.5 -72.5t-73.5 -30.5q-44 0 -73.5 31t-29.5 72q0 42 29 72t74 30q46 0 74 -29.5t28 -72.5z" />
    <glyph glyph-name="k" unicode="k" horiz-adv-x="1132" 
d="M195 1427q0 33 -9 47.5t-44 23t-111 9.5v25q170 11 305 78v-1252q260 289 319 365q22 27 39 51q26 36 33.5 47t22 33t18.5 33.5t4 21.5q0 30 -25 41t-83 11h-31v24h385v-24h-35q-22 0 -38.5 -4.5t-50 -29t-75.5 -71.5q-11 -12 -95 -103.5t-140 -154.5
q46 -59 176.5 -229.5t202.5 -262.5q42 -51 76 -66t79 -15h15v-25h-482v25h66q88 0 88 47q0 23 -21 51l-286 379l-162 -176v-213q0 -53 18.5 -70.5t77.5 -17.5h68v-25h-469v25h65q61 0 80 17t19 71v1314z" />
    <glyph glyph-name="l" unicode="l" horiz-adv-x="530" 
d="M195 1427q0 33 -9 47.5t-44 23t-111 9.5v25q157 9 305 78v-1497q0 -49 18 -68.5t76 -19.5h70v-25h-469v25h65q54 0 76.5 20.5t22.5 67.5v1314z" />
    <glyph glyph-name="m" unicode="m" horiz-adv-x="1712" 
d="M625 1010q179 0 256 -119q176 119 327 119q155 0 236 -84q28 -29 45 -64t23 -81t7 -65.5t1 -66.5v-536q0 -48 18.5 -68t79.5 -20h65v-25h-448v25h47q56 0 76 20t20 68v540q2 55 -2 97t-18.5 83.5t-40 68t-69 43t-103.5 16.5q-50 0 -120 -26.5t-132 -68.5q35 -72 35 -180
v-573q0 -48 18.5 -68t77.5 -20h47v-25h-428v25h45q57 0 77.5 20t20.5 68v573q0 154 -58.5 214.5t-166.5 60.5q-49 0 -110.5 -21.5t-114.5 -56.5v-770q0 -49 18 -68.5t78 -19.5h47v-25h-448v25h65q58 0 78.5 20t20.5 68v714q0 38 -10.5 53t-43 21.5t-110.5 7.5v25
q163 15 305 80v-103q75 56 154.5 77.5t134.5 21.5z" />
    <glyph glyph-name="n" unicode="n" horiz-adv-x="1161" 
d="M1130 0h-468v25h65q59 0 78.5 20t19.5 68v551q0 59 -8.5 106t-21 77.5t-32.5 53t-39 33.5t-45 17.5t-44.5 8t-44.5 1.5q-104 0 -254 -93v-755q0 -54 18 -71t78 -17h68v-25h-469v25h63q60 0 80.5 18t20.5 70v714q0 53 -27 67t-137 15v25q155 9 305 80v-117
q162 113 313 113q62 0 111.5 -13t82.5 -33t56.5 -51.5t36.5 -62t20 -72.5t9 -73.5t2 -73.5v-518q0 -48 19.5 -68t76.5 -20h67v-25z" />
    <glyph glyph-name="o" unicode="o" 
d="M1030 492q0 -230 -137.5 -372.5t-351.5 -142.5t-352 141.5t-138 373.5q0 251 135.5 384.5t354.5 133.5q223 0 356 -129.5t133 -388.5zM864 492q0 110 -18 196.5t-48 141.5t-72.5 90.5t-87.5 50t-97 14.5q-65 0 -120.5 -24.5t-102.5 -79t-74 -153.5t-27 -236
q0 -109 18 -195t48.5 -140.5t73 -90t87.5 -50t97 -14.5t97 14.5t87.5 50t72.5 90t48 140t18 195.5z" />
    <glyph glyph-name="p" unicode="p" horiz-adv-x="1146" 
d="M930 489q0 241 -88.5 356.5t-251.5 115.5q-111 0 -254 -109v-774q84 -51 229 -51q160 0 262.5 121t102.5 341zM195 827q0 53 -27 67t-137 15v25q142 9 305 80v-133q144 129 303 129q64 0 125 -15t122.5 -52.5t107 -94.5t74 -147.5t28.5 -204.5q0 -143 -55.5 -259
t-167 -187t-261.5 -73q-159 0 -276 74v-393q0 -54 17.5 -71t78.5 -17h68v-25h-469v25h63q61 0 81 17.5t20 70.5v1169z" />
    <glyph glyph-name="q" unicode="q" horiz-adv-x="1146" 
d="M1116 -455h-469v25h66q60 0 79 17.5t19 70.5v391q-131 -72 -279 -72q-46 0 -90.5 6.5t-93 22.5t-90.5 40.5t-80.5 64t-66 89.5t-44 120t-16.5 153q0 128 39.5 231.5t108 169.5t158.5 101t194 35q105 0 172.5 -25t136.5 -90q9 15 34 55t36 60h22v-1352q0 -54 17.5 -71
t79.5 -17h67v-25zM811 78v680q0 15 -0.5 26.5t-5.5 37t-14 44.5t-28.5 42.5t-46 39t-69.5 26.5t-96 11q-86 0 -151.5 -39t-104.5 -108.5t-58.5 -157.5t-19.5 -193q0 -123 31.5 -215t86.5 -144t120 -76.5t141 -24.5q125 0 215 51z" />
    <glyph glyph-name="r" unicode="r" horiz-adv-x="792" 
d="M195 827q0 53 -27 67t-137 15v25q156 11 305 80v-207q38 98 106.5 150.5t155.5 52.5q74 0 114 -37.5t40 -85.5q0 -46 -25 -70t-59 -24q-31 0 -53.5 17t-22.5 46q0 8 2 24t2 23q0 30 -16.5 44t-55.5 14q-69 0 -128.5 -97t-59.5 -194v-557q0 -52 19 -70t81 -18h64v-25h-469
v25h65q60 0 79.5 18t19.5 70v714z" />
    <glyph glyph-name="s" unicode="s" horiz-adv-x="849" 
d="M768 260q0 -125 -86.5 -204t-251.5 -79q-145 0 -313 80v-57h-25l-10 266h24q30 -113 129 -188.5t205 -75.5q91 0 147 60t56 139q0 38 -15 70.5t-44 58.5t-54.5 43t-62.5 37l-143 79q-113 64 -161 122.5t-48 142.5q0 68 27.5 119.5t72 80t93.5 42.5t100 14q129 0 276 -78
v53h25l10 -268h-25l-2 45q-15 37 -35 69.5t-53 70.5t-83 60.5t-109 22.5q-80 0 -123 -47t-43 -111q0 -100 92 -159q42 -26 145 -76q140 -69 212.5 -144t72.5 -188z" />
    <glyph glyph-name="t" unicode="t" horiz-adv-x="782" 
d="M539 27q28 0 56.5 8.5t62 29t65.5 61.5t57 99l23 -10q-16 -45 -41.5 -85t-62 -75.5t-87.5 -56.5t-110 -21q-140 0 -213.5 77.5t-73.5 221.5v685h-205v24h62q70 12 122 57.5t80 111.5t41.5 136t14.5 144h26v-449h56q186 0 282 21l11 -45h-349v-715q0 -117 52 -168t131 -51
z" />
    <glyph glyph-name="u" unicode="u" horiz-adv-x="1155" 
d="M1124 0h-305v111q-167 -134 -334 -134q-68 0 -120.5 19t-84 49t-51.5 71.5t-27 81.5t-7 85v544q0 37 -9.5 52t-42.5 22t-112 8v25q164 9 305 80v-735q0 -67 16 -116.5t38 -74.5t55.5 -40t58.5 -18t57 -3q58 0 128.5 32.5t129.5 79.5v688q0 37 -9.5 52t-42.5 22t-112 8v25
q153 11 306 80v-901q0 -46 20 -67t78 -21h65v-25z" />
    <glyph glyph-name="v" unicode="v" horiz-adv-x="1073" 
d="M1073 961h-67q-47 -43 -88.5 -121t-124.5 -283q-8 -18 -236 -580h-20q-26 65 -58 140t-72 165t-61 140q-172 403 -188 442q-41 97 -121 97h-37v24h461v-24h-62q-90 0 -90 -66q0 -14 25 -80l272 -651q8 21 20.5 53.5t48.5 122t81 205.5q104 261 104 340q0 42 -21.5 59
t-74.5 17h-37v24h346v-24z" />
    <glyph glyph-name="w" unicode="w" horiz-adv-x="1591" 
d="M1591 961h-65q-79 -68 -223 -435l-197 -549h-31l-264 676q-143 -368 -264 -676h-29l-377 904q-30 80 -121 80h-20v24h391v-24h-18q-88 0 -88 -56q0 -9 8 -37l295 -714q20 55 209 540l-72 185q-20 50 -50.5 66t-76.5 16h-23v24h394v-24h-21q-53 0 -71.5 -10t-18.5 -36
q0 -21 285 -759l143 405q94 265 94 344q0 30 -17.5 43t-57.5 13h-54v24h340v-24z" />
    <glyph glyph-name="x" unicode="x" horiz-adv-x="1126" 
d="M1116 0h-504v25h78q34 0 56 13.5t22 39.5q0 24 -23 57l-223 316q-12 -17 -41.5 -53.5t-42.5 -53.5t-35.5 -46.5t-40 -53t-32.5 -43.5q-54 -78 -54 -113q0 -63 109 -63h31v-25h-406v25h47q41 0 85 31t108 104l72 84q3 3 186 227l-281 377q-27 38 -46 58t-55.5 36.5
t-86.5 18.5v24h463v-24h-82q-31 0 -43 -8.5t-12 -28.5q0 -19 22 -54l209 -297q227 275 227 338q0 50 -65 50h-62v24h361v-24h-27q-46 0 -97.5 -40.5t-135.5 -140.5q-129 -152 -187 -225l318 -438q59 -87 188 -92v-25z" />
    <glyph glyph-name="y" unicode="y" horiz-adv-x="1095" 
d="M1096 961h-21q-68 0 -104 -70q-23 -45 -76 -178l-152 -410q-82 -212 -168 -420q-80 -195 -141 -270q-78 -88 -184 -88q-74 0 -119 35.5t-45 95.5q0 41 25 64.5t61 23.5t59 -19.5t23 -56.5l-2 -45q-2 -24 12.5 -36.5t46.5 -12.5q52 0 101 59q94 126 161 332
q-60 135 -199.5 443t-209.5 466q-10 21 -17 31.5t-22 26t-39 22.5t-57 7h-29v24h449v-24h-66q-70 0 -70 -54q0 -15 13 -45l323 -733q248 672 248 743q0 89 -76 89h-57v24h332v-24z" />
    <glyph glyph-name="z" unicode="z" horiz-adv-x="833" 
d="M813 242l-18 -242h-775v31l629 930q-116 0 -193 -4t-154 -15.5t-124.5 -37t-68.5 -64.5q-1 -16 -5.5 -50.5t-5.5 -48.5h-24l16 244h721v-27l-623 -933h129q107 0 198 11t171 45.5t94 90.5l8 70h25z" />
    <glyph glyph-name="braceleft" unicode="{" horiz-adv-x="714" 
d="M92 563v23q211 16 211 399q0 32 -7 124t-7 122q0 20 1 36.5t7.5 49t18 59t35.5 59.5t56.5 57.5t85 46.5t117.5 32l6 -23q-42 -13 -66 -23.5t-52 -33.5t-41 -61t-13 -93q0 -59 11.5 -170t11.5 -168q0 -317 -297 -424q297 -110 297 -425q0 -59 -11.5 -170t-11.5 -168
q0 -55 13 -93t41 -61t52 -33.5t66 -23.5l-6 -23q-65 10 -117.5 32t-85 46.5t-56.5 57.5t-35.5 59.5t-18 59t-7.5 49t-1 36.5q0 30 7 122t7 124q0 383 -211 399z" />
    <glyph glyph-name="bar" unicode="|" horiz-adv-x="442" 
d="M238 -188h-33v1663h33v-1663z" />
    <glyph glyph-name="braceright" unicode="}" horiz-adv-x="714" 
d="M623 586v-23q-211 -16 -211 -399q0 -32 7 -124t7 -122q0 -20 -1 -36.5t-7.5 -49t-18 -59t-35.5 -59.5t-57 -57.5t-85.5 -46.5t-117.5 -32l-6 23q42 13 66 23.5t52 33.5t41 61t13 93q0 57 -11 168t-11 170q0 315 297 425q-297 107 -297 424q0 57 11 168t11 170
q0 55 -13 93t-41 61t-52 33.5t-66 23.5l6 23q65 -10 117.5 -32t85.5 -46.5t57 -57.5t35.5 -59.5t18 -59t7.5 -49t1 -36.5q0 -30 -7 -122t-7 -124q0 -383 211 -399z" />
    <glyph glyph-name="asciitilde" unicode="~" 
d="M803 680q117 0 194 113h27q-41 -92 -120 -155t-171 -63q-83 0 -217 54q-184 71 -240 71q-117 0 -192 -114h-27q38 90 116 153.5t171 63.5q79 0 184 -41q203 -71 242 -78q19 -4 33 -4z" />
    <glyph glyph-name="uni00A0" unicode="&#xa0;" horiz-adv-x="458" 
 />
    <glyph glyph-name="exclamdown" unicode="&#xa1;" horiz-adv-x="577" 
d="M289 -473q-47 0 -75.5 16t-33.5 39q42 344 68 666l28 463h25q21 -361 29 -463q28 -347 67 -666q-5 -23 -33 -39t-75 -16zM391 963q0 -42 -28.5 -72.5t-73.5 -30.5q-42 0 -72.5 30.5t-30.5 72.5q0 43 30.5 72.5t72.5 29.5q45 0 73.5 -30t28.5 -72z" />
    <glyph glyph-name="cent" unicode="&#xa2;" 
d="M592 -199h-25v176q-193 8 -318.5 143t-125.5 363q0 98 27 186.5t80 161.5t139.5 120.5t197.5 56.5v198h25v-196h24q142 0 226 -50.5t84 -123.5q0 -50 -24.5 -75.5t-61.5 -25.5q-86 0 -86 90q0 9 3 33.5t3 38.5q0 37 -40.5 62.5t-111.5 25.5h-16v-958h31q101 0 188 58.5
t139 176.5l23 -10q-17 -39 -34.5 -71t-50.5 -71.5t-71.5 -66.5t-97 -46t-127.5 -20v-176zM289 483q0 -206 76 -319t202 -133v950q-59 -7 -107 -36.5t-87.5 -86.5t-61.5 -152t-22 -223z" />
    <glyph glyph-name="sterling" unicode="&#xa3;" 
d="M63 795h226q0 137 2 241q5 227 106.5 352t300.5 125q118 0 185 -58t67 -142q0 -45 -25.5 -79t-68.5 -34q-39 0 -59.5 22t-20.5 50q0 42 51 78q33 25 33 47q0 32 -39.5 62t-113.5 30q-46 0 -87 -14t-83 -56.5t-66 -109.5q-24 -68 -27.5 -165.5t2.5 -178.5q0 -6 3.5 -68.5
t3.5 -101.5h323v-25h-323q0 -110 -4 -176q-10 -181 -95.5 -310t-210.5 -208q76 28 105.5 38.5t93 24t119.5 13.5q65 0 126 -15.5t100 -34t92.5 -34t105.5 -15.5q24 0 49 12t49.5 37t40 74t14.5 113h25q3 -197 -105 -271q-68 -47 -206 -47q-49 0 -193 37q-180 51 -285 51
q-119 0 -254 -51v31q75 27 115 70q68 68 115 208q19 53 27.5 126.5t10 134.5t1.5 192h-226v25z" />
    <glyph glyph-name="currency" unicode="&#xa4;" horiz-adv-x="1110" 
d="M1077 119l-188 186q-139 -123 -334 -123q-191 0 -332 125l-190 -188l-25 24l191 189q-136 139 -136 334q0 194 134 331l-189 189l25 24l188 -188q142 129 334 129q191 0 334 -127l188 186l25 -24l-187 -187q65 -66 101.5 -152t36.5 -181q0 -96 -37 -183t-103 -153
l189 -187zM96 666q0 -187 135 -319t324 -132q192 0 328.5 132t136.5 319q0 186 -136.5 319t-328.5 133q-189 0 -324 -133t-135 -319z" />
    <glyph glyph-name="yen" unicode="&#xa5;" 
d="M203 430h266v158h-266v24h256l-320 707q-28 59 -80 96.5t-157 40.5v25h565v-25h-84q-78 0 -78 -49q0 -17 21 -66l307 -690q1 -1 44 93t101 229t92 221q56 146 56 199q0 63 -97 63h-59v25h410v-25h-64q-116 -49 -176 -188q-36 -84 -164 -370t-129 -286h271v-24h-275v-158
h275v-24h-275v-271q0 -57 31.5 -83.5t101.5 -26.5h72v-25h-582v25h72q71 0 101 27t30 83v271h-266v24z" />
    <glyph glyph-name="brokenbar" unicode="&#xa6;" horiz-adv-x="442" 
d="M238 784h-33v691h33v-691zM238 -188h-33v690h33v-690z" />
    <glyph glyph-name="section" unicode="&#xa7;" horiz-adv-x="1101" 
d="M1016 492q0 -65 -22 -124.5t-62 -108t-76.5 -81t-83.5 -67.5q85 -83 84 -188v-5q0 -54 -23.5 -108.5t-67 -100.5t-115 -75t-158.5 -29q-124 0 -206.5 50t-82.5 124q0 50 26.5 75t67.5 25q53 0 74.5 -27t19.5 -57l-4 -55q-2 -20 3 -37t20 -35t50 -28.5t87 -10.5
q77 0 137.5 59.5t60.5 151.5q0 113 -102 191l-373 284q-87 68 -135.5 141t-48.5 171q0 110 68 208.5t176 174.5q-46 55 -65 96.5t-19 101.5q0 54 24 107t68 98t116 72.5t160 27.5q124 0 205.5 -51.5t81.5 -128.5q0 -51 -26 -75.5t-66 -24.5q-55 0 -75.5 25.5t-18.5 56.5
l2 59q1 19 -4.5 36.5t-20.5 36.5t-49 30.5t-82 11.5q-78 0 -141.5 -62t-63.5 -155q0 -54 29.5 -106t116.5 -113l327 -246q61 -46 100.5 -91t57 -86t23.5 -71.5t6 -66.5zM909 406q0 156 -168 284l-395 299q-153 -128 -153 -282q0 -82 35.5 -146t146.5 -149l379 -285
q78 62 116.5 135t38.5 144z" />
    <glyph glyph-name="dieresis" unicode="&#xa8;" horiz-adv-x="714" 
d="M262 1305q0 -42 -28.5 -72.5t-73.5 -30.5q-44 0 -73.5 31t-29.5 72q0 42 29 72t74 30q46 0 74 -29.5t28 -72.5zM657 1305q0 -42 -28.5 -72.5t-73.5 -30.5q-44 0 -73 31t-29 72q0 42 28.5 72t73.5 30q46 0 74 -29.5t28 -72.5z" />
    <glyph glyph-name="copyright" unicode="&#xa9;" horiz-adv-x="1556" 
d="M1075 315h-24l2 39q-97 -55 -256 -55q-204 0 -311 116t-107 306q0 59 12.5 116t44 114.5t78.5 100.5t122 70t169 27q118 0 244 -57v38h24l14 -221h-24l-8 56q-36 70 -103.5 114.5t-163.5 44.5q-76 0 -133 -32t-90 -88.5t-49 -126.5t-16 -154q0 -199 84 -299t213 -100
q85 0 163 49t109 112l8 41h25zM20 715q0 151 60 288.5t161 237t241.5 158.5t295.5 59q154 0 294.5 -59t242 -158.5t161.5 -237t60 -288.5q0 -152 -60 -289.5t-161.5 -237t-242 -158.5t-294.5 -59q-155 0 -295.5 59t-241.5 158.5t-161 237t-60 289.5zM53 715
q0 -193 97.5 -357t264.5 -259t363 -95t363 95t264.5 259t97.5 357q0 144 -57.5 275.5t-155 226.5t-231.5 151.5t-281 56.5t-281 -56.5t-231.5 -151.5t-155 -226.5t-57.5 -275.5z" />
    <glyph glyph-name="ordfeminine" unicode="&#xaa;" horiz-adv-x="710" 
d="M301 1489q-26 0 -52 -11t-26 -32q0 -7 5 -23.5t5 -23.5q0 -25 -14 -39t-39 -14t-40 16t-15 39q0 47 57.5 79.5t124.5 32.5q256 0 256 -196v-340q0 -66 41 -66q14 0 26.5 18.5t16.5 47.5h25q-13 -96 -103 -96q-51 0 -75 29t-27 83q-99 -112 -240 -112q-70 0 -102.5 34.5
t-32.5 92.5q0 52 34.5 94.5t93 70t119.5 44t128 26.5v82q0 24 -1.5 39.5t-8 40.5t-24 43t-44.5 29q-28 12 -88 12zM467 1024v195q-124 -19 -192 -63.5t-68 -131.5q0 -49 25 -73.5t63 -24.5q41 0 91 30.5t81 67.5z" />
    <glyph glyph-name="guillemotleft" unicode="&#xab;" horiz-adv-x="1069" 
d="M631 487q42 -42 100 -108q108 -123 174 -211l-18 -16q-110 107 -199 178q-37 31 -76 61t-78.5 59.5t-48.5 36.5q169 130 203 158q89 71 199 178l18 -16q-66 -88 -174 -211q-65 -74 -100 -109zM68 487q180 114 354 250q157 122 307 262l21 -16q-89 -123 -277 -313
q-73 -76 -190 -183q125 -115 190 -182q188 -190 277 -313l-21 -17q-156 146 -307 263q-167 131 -354 249z" />
    <glyph glyph-name="logicalnot" unicode="&#xac;" 
d="M1063 442h-33v232h-1012v33h1045v-265z" />
    <glyph glyph-name="uni00AD" unicode="&#xad;" horiz-adv-x="724" 
d="M102 557v33h521v-33h-521z" />
    <glyph glyph-name="registered" unicode="&#xae;" horiz-adv-x="1253" 
d="M61 903q0 113 44.5 216t120 177t180 118t219.5 44q154 0 284.5 -74t206.5 -202t76 -279q0 -114 -45 -217t-121 -177t-181 -117.5t-220 -43.5t-219.5 43.5t-180 117.5t-120 177t-44.5 217zM94 903q0 -143 70.5 -263t193 -189.5t267.5 -69.5t268 69.5t194.5 189.5t71.5 263
q0 142 -71.5 262.5t-194.5 190t-268 69.5q-109 0 -207.5 -41t-169 -111t-112.5 -166.5t-42 -203.5zM877 662q24 0 24 32h25q0 -26 -18.5 -49.5t-59.5 -23.5q-24 0 -44 10.5t-38 35t-28.5 44.5t-28.5 57q-22 48 -47 80q-52 58 -138 61v-215q0 -39 43 -39h35v-24h-227v24h28
q26 0 36 9t10 30v439q0 17 -5.5 25t-13.5 9.5t-27 1.5h-28v25h90q26 0 82 4t84 4q65 0 110 -13t66.5 -36t30 -45.5t8.5 -48.5q0 -72 -59.5 -113t-145.5 -41q56 -17 90.5 -47.5t63.5 -77.5q3 -5 19 -39t32 -56.5t31 -22.5zM760 1057q0 121 -139 121q-48 0 -97 -19v-225
q39 -6 94 -6q66 0 104 35t38 94z" />
    <glyph glyph-name="macron" unicode="&#xaf;" horiz-adv-x="854" 
d="M725 1178h-596v32h596v-32z" />
    <glyph glyph-name="degree" unicode="&#xb0;" horiz-adv-x="645" 
d="M98 1286q0 92 65 156.5t159 64.5t159.5 -64.5t65.5 -156.5t-65.5 -155.5t-159.5 -63.5t-159 63.5t-65 155.5zM131 1286q0 -76 56.5 -131t134.5 -55t135 55t57 131q0 78 -57 133.5t-135 55.5t-134.5 -55.5t-56.5 -133.5z" />
    <glyph glyph-name="plusminus" unicode="&#xb1;" 
d="M1063 682h-506v-453h-33v453h-506v33h506v436h33v-436h506v-33zM1063 86h-1045v33h1045v-33z" />
    <glyph glyph-name="twosuperior" unicode="&#xb2;" horiz-adv-x="710" 
d="M616 774l-16 -176h-541v20l226 242q108 117 162.5 205t54.5 186q0 65 -16.5 113t-44.5 74t-60.5 38.5t-69.5 12.5q-108 0 -108 -78l6 -22q9 -35 -8 -58.5t-51 -23.5q-23 0 -40.5 16.5t-17.5 50.5q0 54 60.5 96.5t166.5 42.5q140 0 215.5 -67t75.5 -189q0 -76 -54 -154.5
t-142 -162.5l-264 -256h282q83 0 118 14t40 45q0 3 1 15t1 16h24z" />
    <glyph glyph-name="threesuperior" unicode="&#xb3;" horiz-adv-x="712" 
d="M668 868q0 -123 -84.5 -199.5t-241.5 -76.5q-125 0 -194.5 52t-69.5 114q0 32 17.5 47.5t41.5 15.5q25 0 42.5 -13.5t17.5 -43.5q0 -15 -7.5 -36t-7.5 -38q0 -33 46.5 -54.5t103.5 -21.5q54 0 93.5 18t61 44t34 65t15.5 71t3 71q0 43 -8 77.5t-19.5 56.5t-31 37.5
t-35.5 23.5t-40.5 12.5t-39.5 5t-37 0.5q-40 0 -88 -11v48q53 -13 102 -13q76 0 129 51.5t53 135.5q0 87 -43 136t-127 46q-100 -3 -114 -49q-4 -4 -1 -31t3 -31q0 -30 -18 -44.5t-42 -14.5q-25 0 -42 16.5t-17 50.5q0 45 56.5 86t174.5 41q82 0 141.5 -18t89.5 -49t43 -64
t13 -71q0 -65 -53.5 -122.5t-141.5 -78.5q99 -18 160.5 -80.5t61.5 -161.5z" />
    <glyph glyph-name="acute" unicode="&#xb4;" horiz-adv-x="671" 
d="M627 1430q0 -40 -86 -95q-44 -28 -120 -74t-131 -78l-54 -32h-50l273 268q44 42 65.5 55t48.5 13q25 0 39.5 -15t14.5 -42z" />
    <glyph glyph-name="mu" unicode="&#xb5;" horiz-adv-x="1155" 
d="M1124 0h-305v111q-167 -134 -334 -134q-198 0 -266 179q10 -156 47 -314q25 -113 25 -143q0 -34 -9 -58.5t-23.5 -35t-27 -15t-24.5 -4.5t-24 4.5t-26 15t-23 35t-9 58.5q0 31 25 143q45 198 45 420v565q0 37 -9.5 52t-42.5 22t-112 8v25q164 9 305 80v-735
q0 -67 16 -116.5t38 -74.5t55.5 -40t58.5 -18t57 -3q58 0 128.5 32.5t129.5 79.5v688q0 37 -9.5 52t-42.5 22t-112 8v25q153 11 306 80v-901q0 -46 20 -67t78 -21h65v-25z" />
    <glyph glyph-name="mu" unicode="&#x3bc;" horiz-adv-x="1155" 
d="M1124 0h-305v111q-167 -134 -334 -134q-198 0 -266 179q10 -156 47 -314q25 -113 25 -143q0 -34 -9 -58.5t-23.5 -35t-27 -15t-24.5 -4.5t-24 4.5t-26 15t-23 35t-9 58.5q0 31 25 143q45 198 45 420v565q0 37 -9.5 52t-42.5 22t-112 8v25q164 9 305 80v-735
q0 -67 16 -116.5t38 -74.5t55.5 -40t58.5 -18t57 -3q58 0 128.5 32.5t129.5 79.5v688q0 37 -9.5 52t-42.5 22t-112 8v25q153 11 306 80v-901q0 -46 20 -67t78 -21h65v-25z" />
    <glyph glyph-name="paragraph" unicode="&#xb6;" horiz-adv-x="935" 
d="M713 -188h-33v1663h33v-1663zM438 -188h-32v1151h-13q-135 0 -216 66.5t-81 191.5q0 121 81.5 187.5t215.5 66.5h45v-1663z" />
    <glyph glyph-name="periodcentered" unicode="&#xb7;" horiz-adv-x="454" 
d="M330 582q0 -42 -29 -72.5t-74 -30.5q-42 0 -72 29.5t-30 73.5q0 42 30 72t72 30q45 0 74 -30t29 -72z" />
    <glyph glyph-name="cedilla" unicode="&#xb8;" horiz-adv-x="632" 
d="M276 -412q-101 0 -178 39l11 23q69 -37 155 -37q78 0 114 38.5t36 92.5t-27 78t-84 24q-25 0 -65 -12l-17 14l78 185h29l-70 -162q43 14 107 14q68 0 116.5 -31.5t48.5 -95.5q0 -77 -74.5 -123.5t-179.5 -46.5z" />
    <glyph glyph-name="onesuperior" unicode="&#xb9;" horiz-adv-x="720" 
d="M526 598h-331v23h36q15 0 24.5 1.5t23.5 7t21 20.5t7 38v635q-26 -30 -72 -69t-71 -54h-29q102 98 158 164.5t90 136.5h31v-813q0 -39 19.5 -53t53.5 -14h39v-23z" />
    <glyph glyph-name="ordmasculine" unicode="&#xba;" horiz-adv-x="716" 
d="M694 1196q0 -84 -33 -148t-85 -98.5t-107.5 -51.5t-110.5 -17q-84 0 -151 29.5t-105.5 76.5t-58.5 100.5t-20 108.5q0 56 20 110t58.5 101.5t105 76.5t151.5 29q54 0 110 -17.5t108 -53t85 -99.5t33 -147zM565 1196q0 20 -2 41t-7.5 58t-19.5 68t-35.5 61t-58.5 47.5
t-84 17.5q-40 0 -73 -13.5t-54 -33.5t-36.5 -49t-23.5 -55t-12.5 -57t-5.5 -49t-1 -36q0 -20 1 -38t5.5 -49t12.5 -56.5t23.5 -54t36.5 -48t53.5 -32.5t73.5 -13q47 0 84 17t58.5 47t35.5 60.5t19.5 67.5t7.5 58t2 41z" />
    <glyph glyph-name="guillemotright" unicode="&#xbb;" horiz-adv-x="1069" 
d="M438 487q-35 35 -100 109q-108 123 -174 211l18 16q110 -107 199 -178q34 -28 203 -158q-9 -7 -48.5 -36.5t-78.5 -59.5t-76 -61q-89 -71 -199 -178l-18 16q66 88 174 211q58 66 100 108zM1001 487q-187 -118 -354 -249q-151 -117 -307 -263l-21 17q89 123 277 313
q65 67 190 182q-117 107 -190 183q-188 190 -277 313l21 16q150 -140 307 -262q174 -136 354 -250z" />
    <glyph glyph-name="onequarter" unicode="&#xbc;" horiz-adv-x="1724" 
d="M1020 217h342v350l106 76v-426h103v-24h-103v-101q0 -39 18.5 -53t59.5 -14h25v-25h-322v25h35q51 0 64.5 13t13.5 54v101h-373v26q16 7 148 239t239 431l21 39l100 -58zM1376 1495l-1024 -1522l-30 21l1024 1524zM526 598h-331v23h36q15 0 24.5 1.5t23.5 7t21 20.5t7 38
v635q-26 -30 -72 -69t-71 -54h-29q102 98 158 164.5t90 136.5h31v-813q0 -39 19.5 -53t53.5 -14h39v-23z" />
    <glyph glyph-name="onehalf" unicode="&#xbd;" horiz-adv-x="1738" 
d="M1389 1489l-1024 -1522l-31 21l1024 1523zM1645 174l-17 -176h-541v20l226 242q108 117 162.5 205t54.5 186q0 65 -16.5 113t-44.5 74t-60.5 38.5t-69.5 12.5q-108 0 -108 -78l6 -23q9 -35 -8 -58t-51 -23q-23 0 -40.5 16.5t-17.5 50.5q0 54 61 96.5t167 42.5
q140 0 215 -67t75 -189q0 -76 -54 -154.5t-142 -162.5l-264 -256h282q83 0 118 14t40 45q0 3 1 15t1 16h25zM526 598h-331v23h36q15 0 24.5 1.5t23.5 7t21 20.5t7 38v635q-26 -30 -72 -69t-71 -54h-29q102 98 158 164.5t90 136.5h31v-813q0 -39 19.5 -53t53.5 -14h39v-23z
" />
    <glyph glyph-name="threequarters" unicode="&#xbe;" horiz-adv-x="1714" 
d="M1008 217h344v350q21 15 69 47q8 5 37 29v-426h103v-24h-103v-101q0 -39 18.5 -53t59.5 -14h25v-25h-322v25h35q50 0 64 13t14 54v101h-373v28q20 31 53 88q22 38 107.5 181.5t134.5 228.5l41 67l69 132l7 8l96 -56zM1399 1495l-1024 -1522l-31 21l1024 1524zM668 868
q0 -123 -84.5 -199.5t-241.5 -76.5q-125 0 -194.5 52t-69.5 114q0 32 17.5 47.5t41.5 15.5q25 0 42.5 -13.5t17.5 -43.5q0 -15 -7.5 -36t-7.5 -38q0 -33 46.5 -54.5t103.5 -21.5q54 0 93.5 18t61 44t34 65t15.5 71t3 71q0 43 -8 77.5t-19.5 56.5t-31 37.5t-35.5 23.5
t-40.5 12.5t-39.5 5t-37 0.5q-40 0 -88 -11v48q53 -13 102 -13q76 0 129 51.5t53 135.5q0 87 -43 136t-127 46q-100 -3 -114 -49q-4 -4 -1 -31t3 -31q0 -30 -18 -44.5t-42 -14.5q-25 0 -42 16.5t-17 50.5q0 45 56.5 86t174.5 41q82 0 141.5 -18t89.5 -49t43 -64t13 -71
q0 -65 -53.5 -122.5t-141.5 -78.5q99 -18 160.5 -80.5t61.5 -161.5z" />
    <glyph glyph-name="questiondown" unicode="&#xbf;" horiz-adv-x="970" 
d="M76 2q0 64 21 124.5t51.5 108.5t86 104t103.5 96.5t125 99.5q26 20 32 25t25.5 22.5t25 28.5t12.5 29t7 38v72h25v-256q0 -40 -19 -66.5t-75 -67.5q-48 -36 -77.5 -60.5t-75.5 -71.5t-72.5 -89.5t-47 -103.5t-20.5 -125q0 -70 22 -133t65 -114.5t113.5 -81.5t159.5 -30
q44 0 76.5 11t48.5 25.5t25.5 34t11.5 30.5t2 22t-4 32t-4 34q0 41 25.5 65.5t70.5 24.5q40 0 66 -23.5t26 -70.5q0 -81 -89.5 -145t-250.5 -64q-215 0 -353 131.5t-138 343.5zM475 963q0 42 29 72t74 30q42 0 72 -29t30 -73q0 -43 -30 -73t-72 -30q-45 0 -74 30.5t-29 72.5
z" />
    <glyph glyph-name="Agrave" unicode="&#xc0;" horiz-adv-x="1458" 
d="M1458 0h-540v25h71q20 0 32.5 1t31 6.5t28 19.5t9.5 36q0 19 -28 104t-140 408h-525l-71 -184q-2 -6 -11.5 -30t-13.5 -35t-13 -34t-13.5 -37t-11.5 -35.5t-11 -36t-8 -31.5t-6 -30t-2 -24q0 -79 71 -98h92v-25h-399v25h61q60 42 136.5 187.5t201.5 471.5l179 481
q104 275 120 316h50l507 -1323q12 -31 23 -51.5t30 -41t47 -30.5t66 -10h37v-25zM911 625l-254 675q-108 -288 -251 -675h505zM403 1853q0 27 14.5 42.5t39.5 15.5q27 0 48.5 -13t65.5 -55l273 -268h-49q-208 121 -306 184q-86 55 -86 94z" />
    <glyph glyph-name="Aacute" unicode="&#xc1;" horiz-adv-x="1458" 
d="M1458 0h-540v25h71q20 0 32.5 1t31 6.5t28 19.5t9.5 36q0 19 -28 104t-140 408h-525l-71 -184q-2 -6 -11.5 -30t-13.5 -35t-13 -34t-13.5 -37t-11.5 -35.5t-11 -36t-8 -31.5t-6 -30t-2 -24q0 -79 71 -98h92v-25h-399v25h61q60 42 136.5 187.5t201.5 471.5l179 481
q104 275 120 316h50l507 -1323q12 -31 23 -51.5t30 -41t47 -30.5t66 -10h37v-25zM911 625l-254 675q-108 -288 -251 -675h505zM1075 1853q0 -39 -86 -94q-44 -28 -120 -74t-131 -78l-54 -32h-49l272 268q43 42 65.5 55t49.5 13q25 0 39 -15t14 -43z" />
    <glyph glyph-name="Acircumflex" unicode="&#xc2;" horiz-adv-x="1458" 
d="M1458 0h-540v25h71q20 0 32.5 1t31 6.5t28 19.5t9.5 36q0 19 -28 104t-140 408h-525l-71 -184q-2 -6 -11.5 -30t-13.5 -35t-13 -34t-13.5 -37t-11.5 -35.5t-11 -36t-8 -31.5t-6 -30t-2 -24q0 -79 71 -98h92v-25h-399v25h61q60 42 136.5 187.5t201.5 471.5l179 481
q104 275 120 316h50l507 -1323q12 -31 23 -51.5t30 -41t47 -30.5t66 -10h37v-25zM911 625l-254 675q-108 -288 -251 -675h505zM864 1636q-64 48 -141 115l-141 -115q-22 -18 -53 -41.5t-51 -38.5l-21 -14h-31q41 38 125 135q28 33 63.5 79t56.5 76l21 30h62
q75 -111 141 -185q62 -74 123 -135h-29q-74 55 -125 94z" />
    <glyph glyph-name="Atilde" unicode="&#xc3;" horiz-adv-x="1458" 
d="M1458 0h-540v25h71q20 0 32.5 1t31 6.5t28 19.5t9.5 36q0 19 -28 104t-140 408h-525l-71 -184q-2 -6 -11.5 -30t-13.5 -35t-13 -34t-13.5 -37t-11.5 -35.5t-11 -36t-8 -31.5t-6 -30t-2 -24q0 -79 71 -98h92v-25h-399v25h61q60 42 136.5 187.5t201.5 471.5l179 481
q104 275 120 316h50l507 -1323q12 -31 23 -51.5t30 -41t47 -30.5t66 -10h37v-25zM911 625l-254 675q-108 -288 -251 -675h505zM772 1720q102 -61 156 -61q108 0 190 102l21 -16q-103 -176 -246 -176q-67 0 -174 67q-100 62 -156 62q-109 0 -190 -103l-21 17q49 81 108 128.5
t138 47.5q61 0 174 -68z" />
    <glyph glyph-name="Adieresis" unicode="&#xc4;" horiz-adv-x="1458" 
d="M1458 0h-540v25h71q20 0 32.5 1t31 6.5t28 19.5t9.5 36q0 19 -28 104t-140 408h-525l-71 -184q-2 -6 -11.5 -30t-13.5 -35t-13 -34t-13.5 -37t-11.5 -35.5t-11 -36t-8 -31.5t-6 -30t-2 -24q0 -79 71 -98h92v-25h-399v25h61q60 42 136.5 187.5t201.5 471.5l179 481
q104 275 120 316h50l507 -1323q12 -31 23 -51.5t30 -41t47 -30.5t66 -10h37v-25zM911 625l-254 675q-108 -288 -251 -675h505zM629 1663q0 -41 -28.5 -71.5t-74.5 -30.5q-44 0 -73 30.5t-29 71.5q0 42 28.5 72t73.5 30q46 0 74.5 -29.5t28.5 -72.5zM1024 1663q0 -42 -28 -72
t-74 -30q-44 0 -73.5 30.5t-29.5 71.5q0 42 29 72t74 30q46 0 74 -29.5t28 -72.5z" />
    <glyph glyph-name="Aring" unicode="&#xc5;" horiz-adv-x="1458" 
d="M545 1628q0 74 51.5 126t124.5 52t125.5 -52t52.5 -126q0 -63 -40.5 -111.5t-102.5 -60.5l499 -1298q12 -31 23 -51.5t30 -41t47 -30.5t66 -10h37v-25h-540v25h71q20 0 32.5 1t31 6.5t28 19.5t9.5 36q0 19 -28 104t-140 408h-525l-71 -184q-2 -6 -11.5 -30t-13.5 -35
t-13 -34t-13.5 -37t-11.5 -35.5t-11 -36t-8 -31.5t-6 -30t-2 -24q0 -79 71 -98h92v-25h-399v25h61q60 42 136.5 187.5t201.5 471.5l179 481q43 116 110 289q-62 12 -102.5 61t-40.5 113zM911 625l-254 675l-251 -675h505zM578 1628q0 -59 41.5 -101t101.5 -42q61 0 103 42
t42 101q0 60 -42 103t-103 43q-60 0 -101.5 -43t-41.5 -103z" />
    <glyph glyph-name="AE" unicode="&#xc6;" horiz-adv-x="2027" 
d="M791 1481h1107l21 -310h-25l-24 170q-41 53 -184 84t-314 31q-142 0 -185.5 -21.5t-43.5 -91.5v-555h114q114 0 194.5 9.5t120 21t60.5 32.5t24 34t3 35v47h24v-381h-24v51q0 22 -3 35t-24 33t-60.5 31t-119.5 19.5t-195 8.5h-114v-629q0 -35 10.5 -57.5t30.5 -33.5
t41 -15t51 -4q131 0 262 11.5t205 29.5q146 42 196 157l23 92h25l-60 -315h-1163v25h72q81 0 107 22.5t26 87.5v461h-457l-96 -166q-164 -284 -164 -346q0 -21 6 -34t19 -18t22 -6t25 -1h79v-25h-403v25h63q115 77 320 411q171 276 514 877q47 86 47 102q0 41 -72 41h-81v25
zM969 621v761l-310 -536l-133 -225h443z" />
    <glyph glyph-name="Ccedilla" unicode="&#xc7;" horiz-adv-x="1521" 
d="M1370 0h-24l4 78q-101 -57 -233 -81t-236 -26l-50 -118q53 20 113 20q73 0 131 -38t58 -109q0 -89 -80 -143t-201 -54q-101 0 -186 45l10 23q75 -43 162 -43q78 0 119.5 47t41.5 106q0 57 -31.5 88t-88.5 31q-33 0 -68 -12l-18 14l57 145q-144 2 -262.5 40t-204.5 104.5
t-145.5 159.5t-88 206.5t-28.5 243.5q0 109 22.5 213.5t79 210t141 184.5t219.5 128.5t304 49.5q105 0 210.5 -23.5t243.5 -84.5l-2 76h25l27 -373h-25l-12 94q-66 127 -190.5 207t-307.5 80q-111 0 -202.5 -40t-154.5 -110t-106 -165.5t-62.5 -204.5t-19.5 -230
q0 -186 46 -331.5t125 -233.5t178 -133t212 -45q162 0 302 70t192 170l27 122h26z" />
    <glyph glyph-name="Egrave" unicode="&#xc8;" horiz-adv-x="1357" 
d="M94 1481h1135l18 -310h-24l-23 170q-41 53 -184.5 84t-315.5 31q-98 0 -144 -9t-64.5 -32t-18.5 -72v-555h117q114 0 193.5 9.5t119 21t60 32.5t23.5 34t3 35v47h25v-381h-25v51q0 22 -3 35t-23.5 33t-60 31t-119 19.5t-193.5 8.5h-117v-629q0 -66 34 -88t97 -22
q131 0 264 11.5t205 29.5q155 44 197 157l22 92h25l-60 -315h-1163v25h72q81 0 107 22.5t26 87.5v1211q0 67 -33 88.5t-100 21.5h-72v25zM489 1853q0 27 14.5 42.5t39.5 15.5q27 0 48.5 -13t65.5 -55l273 -268h-49q-208 121 -306 184q-86 55 -86 94z" />
    <glyph glyph-name="Eacute" unicode="&#xc9;" horiz-adv-x="1357" 
d="M94 1481h1135l18 -310h-24l-23 170q-41 53 -184.5 84t-315.5 31q-98 0 -144 -9t-64.5 -32t-18.5 -72v-555h117q114 0 193.5 9.5t119 21t60 32.5t23.5 34t3 35v47h25v-381h-25v51q0 22 -3 35t-23.5 33t-60 31t-119 19.5t-193.5 8.5h-117v-629q0 -66 34 -88t97 -22
q131 0 264 11.5t205 29.5q155 44 197 157l22 92h25l-60 -315h-1163v25h72q81 0 107 22.5t26 87.5v1211q0 67 -33 88.5t-100 21.5h-72v25zM1081 1853q0 -39 -86 -94q-44 -28 -120 -74t-131 -78l-54 -32h-49l272 268q43 42 65.5 55t49.5 13q25 0 39 -15t14 -43z" />
    <glyph glyph-name="Ecircumflex" unicode="&#xca;" horiz-adv-x="1357" 
d="M94 1481h1135l18 -310h-24l-23 170q-41 53 -184.5 84t-315.5 31q-98 0 -144 -9t-64.5 -32t-18.5 -72v-555h117q114 0 193.5 9.5t119 21t60 32.5t23.5 34t3 35v47h25v-381h-25v51q0 22 -3 35t-23.5 33t-60 31t-119 19.5t-193.5 8.5h-117v-629q0 -66 34 -88t97 -22
q131 0 264 11.5t205 29.5q155 44 197 157l22 92h25l-60 -315h-1163v25h72q81 0 107 22.5t26 87.5v1211q0 67 -33 88.5t-100 21.5h-72v25zM893 1636q-64 48 -141 115l-142 -115q-22 -18 -53 -41.5t-51 -38.5l-21 -14h-30q41 38 125 135q28 33 63 79t57 76l21 30h61
q76 -111 142 -185q62 -74 123 -135h-29q-74 55 -125 94z" />
    <glyph glyph-name="Edieresis" unicode="&#xcb;" horiz-adv-x="1357" 
d="M94 1481h1135l18 -310h-24l-23 170q-41 53 -184.5 84t-315.5 31q-98 0 -144 -9t-64.5 -32t-18.5 -72v-555h117q114 0 193.5 9.5t119 21t60 32.5t23.5 34t3 35v47h25v-381h-25v51q0 22 -3 35t-23.5 33t-60 31t-119 19.5t-193.5 8.5h-117v-629q0 -66 34 -88t97 -22
q131 0 264 11.5t205 29.5q155 44 197 157l22 92h25l-60 -315h-1163v25h72q81 0 107 22.5t26 87.5v1211q0 67 -33 88.5t-100 21.5h-72v25zM647 1663q0 -42 -28 -72t-74 -30q-44 0 -73.5 30.5t-29.5 71.5q0 42 29 72t74 30q46 0 74 -29.5t28 -72.5zM1042 1663q0 -42 -28 -72
t-74 -30q-44 0 -73 30.5t-29 71.5q0 42 28.5 72t73.5 30q46 0 74 -29.5t28 -72.5z" />
    <glyph glyph-name="Igrave" unicode="&#xcc;" horiz-adv-x="772" 
d="M678 0h-584v25h70q81 0 108 24t27 86v1211q0 65 -28.5 87.5t-106.5 22.5h-70v25h584v-25h-76q-76 0 -102.5 -23t-26.5 -87v-1211q0 -61 25 -85.5t104 -24.5h76v-25zM150 1853q0 28 14 43t39 15q27 0 48.5 -13t65.5 -55l273 -268h-49q-207 121 -305 184q-86 55 -86 94z
" />
    <glyph glyph-name="Iacute" unicode="&#xcd;" horiz-adv-x="772" 
d="M678 0h-584v25h70q81 0 108 24t27 86v1211q0 65 -28.5 87.5t-106.5 22.5h-70v25h584v-25h-76q-76 0 -102.5 -23t-26.5 -87v-1211q0 -61 25 -85.5t104 -24.5h76v-25zM721 1853q0 -39 -86 -94q-44 -28 -120 -74t-131 -78l-54 -32h-49l272 268q43 42 65.5 55t49.5 13
q25 0 39 -15t14 -43z" />
    <glyph glyph-name="Icircumflex" unicode="&#xce;" horiz-adv-x="772" 
d="M678 0h-584v25h70q81 0 108 24t27 86v1211q0 65 -28.5 87.5t-106.5 22.5h-70v25h584v-25h-76q-76 0 -102.5 -23t-26.5 -87v-1211q0 -61 25 -85.5t104 -24.5h76v-25zM526 1636q-64 48 -141 115l-141 -115q-22 -18 -53 -41.5t-51 -38.5l-21 -14h-31q41 38 125 135
q28 33 63 79t56 76l22 30h62q75 -111 141 -185q62 -74 123 -135h-29q-74 55 -125 94z" />
    <glyph glyph-name="Idieresis" unicode="&#xcf;" horiz-adv-x="772" 
d="M678 0h-584v25h70q81 0 108 24t27 86v1211q0 65 -28.5 87.5t-106.5 22.5h-70v25h584v-25h-76q-76 0 -102.5 -23t-26.5 -87v-1211q0 -61 25 -85.5t104 -24.5h76v-25zM291 1663q0 -41 -28.5 -71.5t-74.5 -30.5q-44 0 -73 30.5t-29 71.5q0 42 28.5 72t73.5 30
q46 0 74.5 -29.5t28.5 -72.5zM686 1663q0 -42 -28 -72t-74 -30q-44 0 -73.5 30.5t-29.5 71.5q0 42 29 72t74 30q46 0 74 -29.5t28 -72.5z" />
    <glyph glyph-name="Eth" unicode="&#xd0;" horiz-adv-x="1740" 
d="M305 1346q0 62 -31.5 86t-103.5 24h-70v25h318q38 1 189 5.5t218 4.5q151 0 275 -30t205.5 -76.5t143 -112t94 -128t52.5 -134t25.5 -120t5.5 -95.5q0 -64 -7.5 -129t-30 -146.5t-58.5 -153.5t-98 -142.5t-143.5 -121t-200.5 -81.5t-263 -31q-32 0 -109.5 3t-92.5 3
q-126 4 -168 4h-355v25h70q83 0 109 22.5t26 87.5v625h-244v33h244v553zM1436 776q0 58 -7.5 118.5t-27 129.5t-49 130.5t-78 119.5t-110 100t-149 67t-190.5 25q-98 0 -179.5 -11t-166.5 -48v-614h352v-33h-352v-678q122 -68 340 -68q127 0 230.5 40t174.5 110.5
t119.5 167.5t70.5 208t22 236z" />
    <glyph glyph-name="Ntilde" unicode="&#xd1;" horiz-adv-x="1632" 
d="M1538 1456h-125q-70 -112 -70 -495v-990h-26l-1000 1241v-710q0 -369 70 -477h125v-25h-418v25h125q30 47 47 152t19 164.5t4 160.5v745q-23 30 -89 111.5t-96 122.5h218l993 -1243v784q0 133 -18.5 261.5t-49.5 172.5h-127v25h418v-25zM836 1720q102 -61 155 -61
q109 0 191 102l20 -16q-103 -176 -246 -176q-67 0 -174 67q-100 62 -155 62q-110 0 -191 -103l-20 17q49 81 108 128.5t138 47.5q61 0 174 -68z" />
    <glyph glyph-name="Ograve" unicode="&#xd2;" horiz-adv-x="1777" 
d="M1657 743q0 -68 -11.5 -139t-38 -147.5t-66.5 -145.5t-102.5 -132t-139.5 -108.5t-183 -72.5t-229 -27q-122 0 -227 27t-181.5 72.5t-138.5 108.5t-102 132t-67 145.5t-38.5 147.5t-11.5 139q0 72 12.5 145.5t41 149.5t70.5 145t104.5 129.5t139 105t179 70t219.5 25.5
q165 0 298.5 -47t220 -123t144.5 -178t82.5 -207t24.5 -215zM1466 743q0 216 -65 382.5t-197.5 265t-316.5 98.5q-275 0 -425.5 -201t-150.5 -545q0 -116 22.5 -224t70 -203.5t115 -166.5t162 -112t206.5 -41q114 0 210 41t163 112t114 166.5t69.5 203.5t22.5 224zM655 1853
q0 27 14.5 42.5t39.5 15.5q27 0 48.5 -13t65.5 -55l273 -268h-49q-208 121 -306 184q-86 55 -86 94z" />
    <glyph glyph-name="Oacute" unicode="&#xd3;" horiz-adv-x="1777" 
d="M1657 743q0 -68 -11.5 -139t-38 -147.5t-66.5 -145.5t-102.5 -132t-139.5 -108.5t-183 -72.5t-229 -27q-122 0 -227 27t-181.5 72.5t-138.5 108.5t-102 132t-67 145.5t-38.5 147.5t-11.5 139q0 72 12.5 145.5t41 149.5t70.5 145t104.5 129.5t139 105t179 70t219.5 25.5
q165 0 298.5 -47t220 -123t144.5 -178t82.5 -207t24.5 -215zM1466 743q0 216 -65 382.5t-197.5 265t-316.5 98.5q-275 0 -425.5 -201t-150.5 -545q0 -116 22.5 -224t70 -203.5t115 -166.5t162 -112t206.5 -41q114 0 210 41t163 112t114 166.5t69.5 203.5t22.5 224z
M1247 1853q0 -39 -86 -94q-44 -28 -120 -74t-131 -78l-54 -32h-49l272 268q43 42 65.5 55t49.5 13q25 0 39 -15t14 -43z" />
    <glyph glyph-name="Ocircumflex" unicode="&#xd4;" horiz-adv-x="1777" 
d="M1657 743q0 -68 -11.5 -139t-38 -147.5t-66.5 -145.5t-102.5 -132t-139.5 -108.5t-183 -72.5t-229 -27q-122 0 -227 27t-181.5 72.5t-138.5 108.5t-102 132t-67 145.5t-38.5 147.5t-11.5 139q0 72 12.5 145.5t41 149.5t70.5 145t104.5 129.5t139 105t179 70t219.5 25.5
q165 0 298.5 -47t220 -123t144.5 -178t82.5 -207t24.5 -215zM1466 743q0 216 -65 382.5t-197.5 265t-316.5 98.5q-275 0 -425.5 -201t-150.5 -545q0 -116 22.5 -224t70 -203.5t115 -166.5t162 -112t206.5 -41q114 0 210 41t163 112t114 166.5t69.5 203.5t22.5 224z
M1030 1636q-64 48 -141 115l-141 -115q-22 -18 -53 -41.5t-51 -38.5l-21 -14h-31q41 38 125 135q28 33 63.5 79t56.5 76l21 30h62q75 -111 141 -185q62 -74 123 -135h-29q-74 55 -125 94z" />
    <glyph glyph-name="Otilde" unicode="&#xd5;" horiz-adv-x="1777" 
d="M1657 743q0 -68 -11.5 -139t-38 -147.5t-66.5 -145.5t-102.5 -132t-139.5 -108.5t-183 -72.5t-229 -27q-122 0 -227 27t-181.5 72.5t-138.5 108.5t-102 132t-67 145.5t-38.5 147.5t-11.5 139q0 72 12.5 145.5t41 149.5t70.5 145t104.5 129.5t139 105t179 70t219.5 25.5
q165 0 298.5 -47t220 -123t144.5 -178t82.5 -207t24.5 -215zM1466 743q0 216 -65 382.5t-197.5 265t-316.5 98.5q-275 0 -425.5 -201t-150.5 -545q0 -116 22.5 -224t70 -203.5t115 -166.5t162 -112t206.5 -41q114 0 210 41t163 112t114 166.5t69.5 203.5t22.5 224zM932 1720
q102 -61 155 -61q109 0 191 102l20 -16q-103 -176 -245 -176q-67 0 -174 67q-100 62 -156 62q-110 0 -191 -103l-20 17q49 81 108 128.5t138 47.5q61 0 174 -68z" />
    <glyph glyph-name="Odieresis" unicode="&#xd6;" horiz-adv-x="1777" 
d="M1657 743q0 -68 -11.5 -139t-38 -147.5t-66.5 -145.5t-102.5 -132t-139.5 -108.5t-183 -72.5t-229 -27q-122 0 -227 27t-181.5 72.5t-138.5 108.5t-102 132t-67 145.5t-38.5 147.5t-11.5 139q0 72 12.5 145.5t41 149.5t70.5 145t104.5 129.5t139 105t179 70t219.5 25.5
q165 0 298.5 -47t220 -123t144.5 -178t82.5 -207t24.5 -215zM1466 743q0 216 -65 382.5t-197.5 265t-316.5 98.5q-275 0 -425.5 -201t-150.5 -545q0 -116 22.5 -224t70 -203.5t115 -166.5t162 -112t206.5 -41q114 0 210 41t163 112t114 166.5t69.5 203.5t22.5 224zM797 1663
q0 -41 -28.5 -71.5t-74.5 -30.5q-44 0 -73 30.5t-29 71.5q0 42 28.5 72t73.5 30q46 0 74.5 -29.5t28.5 -72.5zM1192 1663q0 -42 -28 -72t-74 -30q-44 0 -73.5 30.5t-29.5 71.5q0 42 29 72t74 30q46 0 74 -29.5t28 -72.5z" />
    <glyph glyph-name="multiply" unicode="&#xd7;" 
d="M930 242l-387 376l-387 -376l-25 24l387 379l-389 379l27 27l387 -381l387 381l24 -27l-387 -379l387 -381z" />
    <glyph glyph-name="Oslash" unicode="&#xd8;" horiz-adv-x="1777" 
d="M1657 743q0 -68 -11.5 -139t-38 -147.5t-66.5 -145.5t-102.5 -132t-139.5 -108.5t-183 -72.5t-229 -27q-306 0 -508 170l-152 -174l-26 27l151 172q-81 78 -134.5 182.5t-75 201.5t-21.5 193q0 72 12.5 145.5t41 149.5t70.5 145t104.5 129.5t139 105t179 70t219.5 25.5
q303 0 502 -157l137 157l26 -24l-137 -156q122 -111 182 -268t60 -322zM1466 743q0 305 -127 500l-884 -1016q160 -231 432 -231q114 0 210 41t163 112t114 166.5t69.5 203.5t22.5 224zM311 743q0 -281 123 -483l883 1014q-158 215 -430 215q-275 0 -425.5 -201t-150.5 -545
z" />
    <glyph glyph-name="Ugrave" unicode="&#xd9;" horiz-adv-x="1656" 
d="M1595 1456h-120q-35 -62 -49.5 -160t-20.5 -295v-354q0 -119 -16 -216t-54.5 -183t-100 -143.5t-156 -91t-218.5 -33.5q-122 0 -219.5 23.5t-158.5 57t-105 87t-64.5 96.5t-32 104t-13 90.5t-1.5 73.5v4v830q0 58 -33 84t-104 26h-68v25h584v-25h-76q-129 0 -129 -110
v-865q0 -111 31.5 -198t77.5 -136.5t106 -81.5t110 -42.5t97 -10.5q121 0 212 33.5t148 89.5t92 139t48.5 172.5t13.5 200.5v373q0 171 -22 288t-45 148h-125v25h411v-25zM606 1853q0 28 14 43t39 15q27 0 49.5 -13t65.5 -55l273 -268h-50q-207 121 -305 184q-86 55 -86 94z
" />
    <glyph glyph-name="Uacute" unicode="&#xda;" horiz-adv-x="1656" 
d="M1595 1456h-120q-35 -62 -49.5 -160t-20.5 -295v-354q0 -119 -16 -216t-54.5 -183t-100 -143.5t-156 -91t-218.5 -33.5q-122 0 -219.5 23.5t-158.5 57t-105 87t-64.5 96.5t-32 104t-13 90.5t-1.5 73.5v4v830q0 58 -33 84t-104 26h-68v25h584v-25h-76q-129 0 -129 -110
v-865q0 -111 31.5 -198t77.5 -136.5t106 -81.5t110 -42.5t97 -10.5q121 0 212 33.5t148 89.5t92 139t48.5 172.5t13.5 200.5v373q0 171 -22 288t-45 148h-125v25h411v-25zM1260 1853q0 -39 -86 -94q-44 -28 -120.5 -74t-131.5 -78l-54 -32h-49l273 268q44 42 65.5 55
t48.5 13q25 0 39.5 -15.5t14.5 -42.5z" />
    <glyph glyph-name="Ucircumflex" unicode="&#xdb;" horiz-adv-x="1656" 
d="M1595 1456h-120q-35 -62 -49.5 -160t-20.5 -295v-354q0 -119 -16 -216t-54.5 -183t-100 -143.5t-156 -91t-218.5 -33.5q-122 0 -219.5 23.5t-158.5 57t-105 87t-64.5 96.5t-32 104t-13 90.5t-1.5 73.5v4v830q0 58 -33 84t-104 26h-68v25h584v-25h-76q-129 0 -129 -110
v-865q0 -111 31.5 -198t77.5 -136.5t106 -81.5t110 -42.5t97 -10.5q121 0 212 33.5t148 89.5t92 139t48.5 172.5t13.5 200.5v373q0 171 -22 288t-45 148h-125v25h411v-25zM1047 1636q-71 53 -142 115l-141 -115q-22 -18 -53 -41.5t-51 -38.5l-21 -14h-31q41 38 125 135
q28 33 63 79t56 76l22 30h62q75 -111 141 -185q62 -74 123 -135h-29q-73 55 -124 94z" />
    <glyph glyph-name="Udieresis" unicode="&#xdc;" horiz-adv-x="1656" 
d="M1595 1456h-120q-35 -62 -49.5 -160t-20.5 -295v-354q0 -119 -16 -216t-54.5 -183t-100 -143.5t-156 -91t-218.5 -33.5q-122 0 -219.5 23.5t-158.5 57t-105 87t-64.5 96.5t-32 104t-13 90.5t-1.5 73.5v4v830q0 58 -33 84t-104 26h-68v25h584v-25h-76q-129 0 -129 -110
v-865q0 -111 31.5 -198t77.5 -136.5t106 -81.5t110 -42.5t97 -10.5q121 0 212 33.5t148 89.5t92 139t48.5 172.5t13.5 200.5v373q0 171 -22 288t-45 148h-125v25h411v-25zM801 1663q0 -41 -28.5 -71.5t-74.5 -30.5q-44 0 -73 30.5t-29 71.5q0 42 28.5 72t73.5 30
q46 0 74.5 -29.5t28.5 -72.5zM1196 1663q0 -42 -28 -72t-74 -30q-44 0 -73.5 30.5t-29.5 71.5q0 42 29 72t74 30q46 0 74 -29.5t28 -72.5z" />
    <glyph glyph-name="Yacute" unicode="&#xdd;" horiz-adv-x="1486" 
d="M1487 1456h-64q-99 -50 -178 -190l-196 -326l-199 -328v-477q0 -58 31 -84t104 -26h70v-25h-582v25h70q73 0 103 27t30 83v461q-72 119 -218.5 359.5t-217.5 359.5q-19 30 -31.5 46.5t-40 41t-69.5 37.5t-99 16v25h567v-25h-82q-57 0 -72.5 -33t15.5 -80l410 -696
l182 305q108 184 137 240q74 148 74 199q0 34 -22.5 49.5t-73.5 15.5h-60v25h412v-25zM1151 1853q0 -39 -86 -94q-44 -28 -120 -74t-131 -78l-54 -32h-49l272 268q43 42 65.5 55t49.5 13q25 0 39 -15t14 -43z" />
    <glyph glyph-name="Thorn" unicode="&#xde;" horiz-adv-x="1361" 
d="M676 0h-582v25h70q79 0 106 24t27 86v1211q0 65 -28.5 87.5t-104.5 22.5h-70v25h582v-25h-74q-77 0 -104 -23t-27 -87v-136q121 31 254 31q126 0 224 -24t159.5 -63t101 -93.5t55 -111t15.5 -120.5q0 -93 -37 -174t-107 -142.5t-180 -96.5t-247 -35q-152 0 -238 16v-262
q0 -61 25.5 -85.5t105.5 -24.5h74v-25zM1090 829q0 186 -103 287t-280 101q-140 0 -236 -29v-764q109 -16 227 -16q175 0 283.5 106t108.5 315z" />
    <glyph glyph-name="germandbls" unicode="&#xdf;" horiz-adv-x="1163" 
d="M1112 315q0 -134 -104.5 -236t-253.5 -102q-104 0 -159.5 37.5t-55.5 94.5q0 41 23 64.5t54 23.5q41 0 62.5 -20t21.5 -54q0 -4 -0.5 -11t-1.5 -20.5t-2 -28.5q0 -25 25 -43t70 -18q90 0 144 65t54 177q0 92 -42.5 170t-149.5 145l-103 64q-95 59 -136.5 103.5
t-41.5 92.5q0 34 16 69t33.5 58t63.5 78q32 38 49 61.5t41 64.5t35.5 84.5t11.5 92.5q0 122 -46 182t-155 60q-227 0 -227 -473v-983q0 -48 20 -68t76 -20h29v-25h-432v25h69q54 0 75.5 20t21.5 68v848h-166v22l166 29v14q0 60 3 109t13.5 109.5t28 107.5t49.5 94t75.5 78
t108.5 50t146 19q48 0 98.5 -12.5t100 -39t81 -77.5t31.5 -118q0 -75 -48 -142t-169 -176q-88 -81 -88 -129q0 -33 38 -68t111 -81l156 -101q58 -37 96 -78t55 -86t23 -83t6 -87z" />
    <glyph glyph-name="agrave" unicode="&#xe0;" horiz-adv-x="991" 
d="M879 27q26 0 47 27.5t30 78.5h25q-13 -86 -52.5 -121t-99.5 -35q-155 0 -155 211q-66 -69 -126.5 -114.5t-110.5 -65t-83 -25.5t-69 -6q-118 0 -179 58t-61 151q0 60 27.5 112.5t75.5 91t104.5 69t125 52.5t126.5 35.5t117 22.5l53 9v104q0 157 -55.5 230t-200.5 73
q-67 0 -117.5 -25t-50.5 -75q0 -19 9 -41t9 -41q0 -36 -22 -57t-64 -21q-34 0 -56 23.5t-22 62.5q0 79 93.5 139t232.5 60q80 0 145 -15.5t121 -51t87.5 -102t31.5 -159.5v-543q0 -112 64 -112zM674 221v332q-80 -15 -144 -32.5t-125.5 -45.5t-102.5 -63t-66 -86t-25 -113
q0 -88 45.5 -129t116.5 -41q69 0 156 56.5t145 121.5zM203 1430q0 57 53 57q27 0 49.5 -13t65.5 -55l272 -268h-49q-207 121 -305 184q-86 55 -86 95z" />
    <glyph glyph-name="aacute" unicode="&#xe1;" horiz-adv-x="991" 
d="M879 27q26 0 47 27.5t30 78.5h25q-13 -86 -52.5 -121t-99.5 -35q-155 0 -155 211q-66 -69 -126.5 -114.5t-110.5 -65t-83 -25.5t-69 -6q-118 0 -179 58t-61 151q0 60 27.5 112.5t75.5 91t104.5 69t125 52.5t126.5 35.5t117 22.5l53 9v104q0 157 -55.5 230t-200.5 73
q-67 0 -117.5 -25t-50.5 -75q0 -19 9 -41t9 -41q0 -36 -22 -57t-64 -21q-34 0 -56 23.5t-22 62.5q0 79 93.5 139t232.5 60q80 0 145 -15.5t121 -51t87.5 -102t31.5 -159.5v-543q0 -112 64 -112zM674 221v332q-80 -15 -144 -32.5t-125.5 -45.5t-102.5 -63t-66 -86t-25 -113
q0 -88 45.5 -129t116.5 -41q69 0 156 56.5t145 121.5zM805 1430q0 -40 -86 -95q-44 -28 -120 -74t-131 -78l-54 -32h-49l272 268q43 42 65.5 55t49.5 13q53 0 53 -57z" />
    <glyph glyph-name="acircumflex" unicode="&#xe2;" horiz-adv-x="991" 
d="M879 27q26 0 47 27.5t30 78.5h25q-13 -86 -52.5 -121t-99.5 -35q-155 0 -155 211q-66 -69 -126.5 -114.5t-110.5 -65t-83 -25.5t-69 -6q-118 0 -179 58t-61 151q0 60 27.5 112.5t75.5 91t104.5 69t125 52.5t126.5 35.5t117 22.5l53 9v104q0 157 -55.5 230t-200.5 73
q-67 0 -117.5 -25t-50.5 -75q0 -19 9 -41t9 -41q0 -36 -22 -57t-64 -21q-34 0 -56 23.5t-22 62.5q0 79 93.5 139t232.5 60q80 0 145 -15.5t121 -51t87.5 -102t31.5 -159.5v-543q0 -112 64 -112zM674 221v332q-80 -15 -144 -32.5t-125.5 -45.5t-102.5 -63t-66 -86t-25 -113
q0 -88 45.5 -129t116.5 -41q69 0 156 56.5t145 121.5zM623 1231q-71 53 -142 115l-141 -115q-22 -18 -53 -41.5t-51 -37.5l-21 -15h-31q41 38 125 135q28 33 63.5 79t57.5 75l21 30h61q75 -110 141 -184q62 -74 123 -135h-28q-74 55 -125 94z" />
    <glyph glyph-name="atilde" unicode="&#xe3;" horiz-adv-x="991" 
d="M879 27q26 0 47 27.5t30 78.5h25q-13 -86 -52.5 -121t-99.5 -35q-155 0 -155 211q-66 -69 -126.5 -114.5t-110.5 -65t-83 -25.5t-69 -6q-118 0 -179 58t-61 151q0 60 27.5 112.5t75.5 91t104.5 69t125 52.5t126.5 35.5t117 22.5l53 9v104q0 157 -55.5 230t-200.5 73
q-67 0 -117.5 -25t-50.5 -75q0 -19 9 -41t9 -41q0 -36 -22 -57t-64 -21q-34 0 -56 23.5t-22 62.5q0 79 93.5 139t232.5 60q80 0 145 -15.5t121 -51t87.5 -102t31.5 -159.5v-543q0 -112 64 -112zM674 221v332q-80 -15 -144 -32.5t-125.5 -45.5t-102.5 -63t-66 -86t-25 -113
q0 -88 45.5 -129t116.5 -41q69 0 156 56.5t145 121.5zM506 1311q103 -62 156 -62q107 0 190 103l20 -17q-103 -176 -245 -176q-41 0 -80.5 17t-93.5 51q-99 61 -156 61q-111 0 -191 -102l-20 16q49 81 108 128.5t138 47.5q62 0 174 -67z" />
    <glyph glyph-name="adieresis" unicode="&#xe4;" horiz-adv-x="991" 
d="M879 27q26 0 47 27.5t30 78.5h25q-13 -86 -52.5 -121t-99.5 -35q-155 0 -155 211q-66 -69 -126.5 -114.5t-110.5 -65t-83 -25.5t-69 -6q-118 0 -179 58t-61 151q0 60 27.5 112.5t75.5 91t104.5 69t125 52.5t126.5 35.5t117 22.5l53 9v104q0 157 -55.5 230t-200.5 73
q-67 0 -117.5 -25t-50.5 -75q0 -19 9 -41t9 -41q0 -36 -22 -57t-64 -21q-34 0 -56 23.5t-22 62.5q0 79 93.5 139t232.5 60q80 0 145 -15.5t121 -51t87.5 -102t31.5 -159.5v-543q0 -112 64 -112zM674 221v332q-80 -15 -144 -32.5t-125.5 -45.5t-102.5 -63t-66 -86t-25 -113
q0 -88 45.5 -129t116.5 -41q69 0 156 56.5t145 121.5zM369 1305q0 -42 -28.5 -72.5t-74.5 -30.5q-44 0 -73 31t-29 72q0 42 28.5 72t73.5 30q46 0 74.5 -29.5t28.5 -72.5zM764 1305q0 -42 -28.5 -72.5t-73.5 -30.5q-44 0 -73.5 31t-29.5 72q0 42 29 72t74 30q46 0 74 -29.5
t28 -72.5z" />
    <glyph glyph-name="aring" unicode="&#xe5;" horiz-adv-x="991" 
d="M879 27q26 0 47 27.5t30 78.5h25q-13 -86 -52.5 -121t-99.5 -35q-155 0 -155 211q-66 -69 -126.5 -114.5t-110.5 -65t-83 -25.5t-69 -6q-118 0 -179 58t-61 151q0 60 27.5 112.5t75.5 91t104.5 69t125 52.5t126.5 35.5t117 22.5l53 9v104q0 157 -55.5 230t-200.5 73
q-67 0 -117.5 -25t-50.5 -75q0 -19 9 -41t9 -41q0 -36 -22 -57t-64 -21q-34 0 -56 23.5t-22 62.5q0 79 93.5 139t232.5 60q80 0 145 -15.5t121 -51t87.5 -102t31.5 -159.5v-543q0 -112 64 -112zM674 221v332q-80 -15 -144 -32.5t-125.5 -45.5t-102.5 -63t-66 -86t-25 -113
q0 -88 45.5 -129t116.5 -41q69 0 156 56.5t145 121.5zM285 1290q0 74 51.5 126t124.5 52t125.5 -52t52.5 -126q0 -72 -52.5 -124t-125.5 -52t-124.5 52t-51.5 124zM317 1290q0 -59 42 -101t102 -42q61 0 103 42t42 101q0 60 -42 103t-103 43q-60 0 -102 -43t-42 -103z" />
    <glyph glyph-name="ae" unicode="&#xe6;" horiz-adv-x="1558" 
d="M1122 1010q96 0 171.5 -38t120 -101t68 -138.5t25.5 -157.5h-676q1 -137 21 -239.5t50.5 -160t75 -92.5t85 -45.5t88.5 -10.5q99 0 179 48t149 154l20 -14q-65 -112 -156.5 -175t-228.5 -63q-54 0 -108.5 12.5t-110.5 39t-104.5 75t-79.5 113.5q-44 -66 -102 -115.5
t-115.5 -75t-107.5 -37.5t-91 -12q-122 0 -186 58t-64 151q0 70 39.5 130.5t99.5 101t140 73t152.5 50.5t144.5 28l53 9v104q0 157 -54.5 230t-199.5 73q-68 0 -119 -25t-51 -75q0 -19 9 -40t9 -40q0 -37 -21.5 -58.5t-62.5 -21.5q-35 0 -57.5 23.5t-22.5 62.5
q0 79 94.5 139t233.5 60q257 0 342 -160q109 160 348 160zM674 301v252q-81 -15 -143.5 -32t-125 -44.5t-103 -62t-66 -85t-25.5 -112.5q0 -90 46 -132t126 -42q105 0 198 75.5t93 182.5zM831 600h521q0 107 -25 191.5t-81.5 139t-139.5 54.5q-246 0 -275 -385z" />
    <glyph glyph-name="ccedilla" unicode="&#xe7;" horiz-adv-x="921" 
d="M551 27q101 0 188.5 58.5t139.5 176.5l22 -10q-17 -39 -34.5 -70.5t-50 -71.5t-71 -66.5t-96.5 -46t-127 -20.5l-45 -106q43 14 107 14q68 0 117 -31.5t49 -95.5q0 -77 -74.5 -123.5t-179.5 -46.5q-102 0 -179 39l11 23q69 -37 155 -37q78 0 114 38.5t36 92.5t-27 78
t-84 24q-25 0 -65 -12l-17 14l54 129q-192 8 -317.5 143.5t-125.5 362.5q0 82 18.5 158t58.5 143.5t97 117.5t139.5 79t180.5 29q141 0 225 -50.5t84 -123.5q0 -50 -24.5 -75.5t-61.5 -25.5q-86 0 -86 90q0 9 3 33.5t3 38.5q0 37 -40 62.5t-111 25.5q-65 0 -119.5 -25
t-101 -80.5t-73 -156.5t-26.5 -240q0 -227 94 -341.5t240 -114.5z" />
    <glyph glyph-name="egrave" unicode="&#xe8;" horiz-adv-x="952" 
d="M508 1010q97 0 173.5 -38t122.5 -101t70.5 -138.5t26.5 -157.5h-684q1 -137 21.5 -239.5t51 -160t75.5 -92.5t85.5 -45.5t88.5 -10.5q203 0 331 202l21 -14q-138 -238 -391 -238q-59 0 -117.5 14.5t-119.5 51.5t-107 93t-75.5 147t-29.5 204q0 239 122.5 381t334.5 142z
M217 600h526q0 106 -26 191t-83.5 139.5t-139.5 54.5q-248 0 -277 -385zM193 1430q0 57 53 57q27 0 48.5 -13t65.5 -55l273 -268h-49q-207 121 -305 184q-86 55 -86 95z" />
    <glyph glyph-name="eacute" unicode="&#xe9;" horiz-adv-x="952" 
d="M508 1010q97 0 173.5 -38t122.5 -101t70.5 -138.5t26.5 -157.5h-684q1 -137 21.5 -239.5t51 -160t75.5 -92.5t85.5 -45.5t88.5 -10.5q203 0 331 202l21 -14q-138 -238 -391 -238q-59 0 -117.5 14.5t-119.5 51.5t-107 93t-75.5 147t-29.5 204q0 239 122.5 381t334.5 142z
M217 600h526q0 106 -26 191t-83.5 139.5t-139.5 54.5q-248 0 -277 -385zM807 1430q0 -40 -86 -95q-44 -28 -120 -74t-131 -78l-54 -32h-49l272 268q43 42 65.5 55t49.5 13q53 0 53 -57z" />
    <glyph glyph-name="ecircumflex" unicode="&#xea;" horiz-adv-x="952" 
d="M508 1010q97 0 173.5 -38t122.5 -101t70.5 -138.5t26.5 -157.5h-684q1 -137 21.5 -239.5t51 -160t75.5 -92.5t85.5 -45.5t88.5 -10.5q203 0 331 202l21 -14q-138 -238 -391 -238q-59 0 -117.5 14.5t-119.5 51.5t-107 93t-75.5 147t-29.5 204q0 239 122.5 381t334.5 142z
M217 600h526q0 106 -26 191t-83.5 139.5t-139.5 54.5q-248 0 -277 -385zM627 1231q-71 53 -142 115l-141 -115q-22 -18 -53 -41.5t-51 -37.5l-21 -15h-31q41 38 125 135q28 33 63.5 79t57.5 75l21 30h61q75 -110 141 -184q62 -74 123 -135h-28q-74 55 -125 94z" />
    <glyph glyph-name="edieresis" unicode="&#xeb;" horiz-adv-x="952" 
d="M508 1010q97 0 173.5 -38t122.5 -101t70.5 -138.5t26.5 -157.5h-684q1 -137 21.5 -239.5t51 -160t75.5 -92.5t85.5 -45.5t88.5 -10.5q203 0 331 202l21 -14q-138 -238 -391 -238q-59 0 -117.5 14.5t-119.5 51.5t-107 93t-75.5 147t-29.5 204q0 239 122.5 381t334.5 142z
M217 600h526q0 106 -26 191t-83.5 139.5t-139.5 54.5q-248 0 -277 -385zM391 1305q0 -42 -28.5 -72.5t-73.5 -30.5q-44 0 -73.5 31t-29.5 72q0 42 29 72t74 30q46 0 74 -29.5t28 -72.5zM786 1305q0 -42 -28.5 -72.5t-73.5 -30.5q-44 0 -73 31t-29 72q0 42 28.5 72t73.5 30
q46 0 74 -29.5t28 -72.5z" />
    <glyph glyph-name="igrave" unicode="&#xec;" horiz-adv-x="530" 
d="M500 0h-469v25h65q59 0 79 19.5t20 68.5v714q0 23 -3.5 36t-11.5 23t-28.5 14t-46.5 6t-74 3v25q158 10 305 80v-901q0 -48 19.5 -68t76.5 -20h68v-25zM-55 1430q0 57 53 57q27 0 49.5 -13t65.5 -55l272 -268h-49q-207 121 -305 184q-86 55 -86 95z" />
    <glyph glyph-name="iacute" unicode="&#xed;" horiz-adv-x="530" 
d="M500 0h-469v25h65q59 0 79 19.5t20 68.5v714q0 23 -3.5 36t-11.5 23t-28.5 14t-46.5 6t-74 3v25q158 10 305 80v-901q0 -48 19.5 -68t76.5 -20h68v-25zM561 1430q0 -40 -86 -95q-44 -28 -120 -74t-131 -78l-54 -32h-49l272 268q43 42 65.5 55t49.5 13q53 0 53 -57z" />
    <glyph glyph-name="icircumflex" unicode="&#xee;" horiz-adv-x="530" 
d="M500 0h-469v25h65q59 0 79 19.5t20 68.5v714q0 23 -3.5 36t-11.5 23t-28.5 14t-46.5 6t-74 3v25q158 10 305 80v-901q0 -48 19.5 -68t76.5 -20h68v-25zM375 1231q-71 53 -142 115l-141 -115q-22 -18 -53 -41.5t-51 -37.5l-21 -15h-30q36 33 124 135q28 33 63.5 79
t57.5 75l21 30h61q76 -110 142 -184q67 -80 122 -135h-28q-74 55 -125 94z" />
    <glyph glyph-name="idieresis" unicode="&#xef;" horiz-adv-x="530" 
d="M500 0h-469v25h65q59 0 79 19.5t20 68.5v714q0 23 -3.5 36t-11.5 23t-28.5 14t-46.5 6t-74 3v25q158 10 305 80v-901q0 -48 19.5 -68t76.5 -20h68v-25zM156 1305q0 -42 -28.5 -72.5t-74.5 -30.5q-44 0 -73 31t-29 72q0 42 28.5 72t73.5 30q46 0 74.5 -29.5t28.5 -72.5z
M551 1305q0 -42 -28.5 -72.5t-73.5 -30.5q-44 0 -73.5 31t-29.5 72q0 42 29 72t74 30q46 0 74 -29.5t28 -72.5z" />
    <glyph glyph-name="eth" unicode="&#xf0;" 
d="M770 1444l18 -23l-124 -104q366 -240 366 -758q0 -164 -62.5 -297t-175 -209t-251.5 -76q-214 0 -352 141.5t-138 373.5q0 251 133.5 384.5t352.5 133.5q152 0 292 -95q-24 102 -88.5 196.5t-138.5 156.5l-125 -101l-18 23l116 98q-65 55 -165 97t-207 57v24
q83 -2 206.5 -33.5t229.5 -95.5zM864 516q0 129 -27.5 223.5t-75 146t-103.5 75.5t-121 24q-52 0 -96.5 -14.5t-86.5 -50t-71.5 -90.5t-47.5 -141.5t-18 -196.5q0 -109 18 -195t48.5 -140.5t73 -90t87.5 -50t97 -14.5q63 0 119.5 30.5t103 90.5t73.5 161.5t27 231.5z" />
    <glyph glyph-name="ntilde" unicode="&#xf1;" horiz-adv-x="1161" 
d="M1130 0h-468v25h65q59 0 78.5 20t19.5 68v551q0 59 -8.5 106t-21 77.5t-32.5 53t-39 33.5t-45 17.5t-44.5 8t-44.5 1.5q-104 0 -254 -93v-755q0 -54 18 -71t78 -17h68v-25h-469v25h63q60 0 80.5 18t20.5 70v714q0 53 -27 67t-137 15v25q155 9 305 80v-117
q162 113 313 113q62 0 111.5 -13t82.5 -33t56.5 -51.5t36.5 -62t20 -72.5t9 -73.5t2 -73.5v-518q0 -48 19.5 -68t76.5 -20h67v-25zM616 1311q103 -62 156 -62q108 0 191 103l20 -17q-103 -176 -246 -176q-41 0 -80.5 17t-93.5 51q-99 61 -155 61q-111 0 -191 -102l-20 16
q50 82 108 129t137 47q62 0 174 -67z" />
    <glyph glyph-name="ograve" unicode="&#xf2;" 
d="M1030 492q0 -230 -137.5 -372.5t-351.5 -142.5t-352 141.5t-138 373.5q0 251 135.5 384.5t354.5 133.5q223 0 356 -129.5t133 -388.5zM864 492q0 110 -18 196.5t-48 141.5t-72.5 90.5t-87.5 50t-97 14.5q-65 0 -120.5 -24.5t-102.5 -79t-74 -153.5t-27 -236
q0 -109 18 -195t48.5 -140.5t73 -90t87.5 -50t97 -14.5t97 14.5t87.5 50t72.5 90t48 140t18 195.5zM244 1430q0 57 53 57q27 0 49.5 -13t65.5 -55l272 -268h-49q-207 121 -305 184q-86 55 -86 95z" />
    <glyph glyph-name="oacute" unicode="&#xf3;" 
d="M1030 492q0 -230 -137.5 -372.5t-351.5 -142.5t-352 141.5t-138 373.5q0 251 135.5 384.5t354.5 133.5q223 0 356 -129.5t133 -388.5zM864 492q0 110 -18 196.5t-48 141.5t-72.5 90.5t-87.5 50t-97 14.5q-65 0 -120.5 -24.5t-102.5 -79t-74 -153.5t-27 -236
q0 -109 18 -195t48.5 -140.5t73 -90t87.5 -50t97 -14.5t97 14.5t87.5 50t72.5 90t48 140t18 195.5zM809 1430q0 -40 -86 -95q-44 -28 -120 -74t-131 -78l-54 -32h-49l272 268q43 42 65.5 55t49.5 13q53 0 53 -57z" />
    <glyph glyph-name="ocircumflex" unicode="&#xf4;" 
d="M1030 492q0 -230 -137.5 -372.5t-351.5 -142.5t-352 141.5t-138 373.5q0 251 135.5 384.5t354.5 133.5q223 0 356 -129.5t133 -388.5zM864 492q0 110 -18 196.5t-48 141.5t-72.5 90.5t-87.5 50t-97 14.5q-65 0 -120.5 -24.5t-102.5 -79t-74 -153.5t-27 -236
q0 -109 18 -195t48.5 -140.5t73 -90t87.5 -50t97 -14.5t97 14.5t87.5 50t72.5 90t48 140t18 195.5zM684 1231q-64 48 -141 115l-142 -115q-22 -18 -53 -41.5t-52 -37.5l-20 -15h-30q41 38 125 135q28 33 63.5 79t56.5 75l21 30h61q76 -110 142 -184q62 -74 123 -135h-29
q-74 55 -125 94z" />
    <glyph glyph-name="otilde" unicode="&#xf5;" 
d="M1030 492q0 -230 -137.5 -372.5t-351.5 -142.5t-352 141.5t-138 373.5q0 251 135.5 384.5t354.5 133.5q223 0 356 -129.5t133 -388.5zM864 492q0 110 -18 196.5t-48 141.5t-72.5 90.5t-87.5 50t-97 14.5q-65 0 -120.5 -24.5t-102.5 -79t-74 -153.5t-27 -236
q0 -109 18 -195t48.5 -140.5t73 -90t87.5 -50t97 -14.5t97 14.5t87.5 50t72.5 90t48 140t18 195.5zM582 1311q103 -62 155 -62q108 0 191 103l20 -17q-103 -176 -246 -176q-41 0 -80.5 17t-93.5 51q-99 61 -155 61q-111 0 -191 -102l-20 16q49 81 108 128.5t138 47.5
q62 0 174 -67z" />
    <glyph glyph-name="odieresis" unicode="&#xf6;" 
d="M1030 492q0 -230 -137.5 -372.5t-351.5 -142.5t-352 141.5t-138 373.5q0 251 135.5 384.5t354.5 133.5q223 0 356 -129.5t133 -388.5zM864 492q0 110 -18 196.5t-48 141.5t-72.5 90.5t-87.5 50t-97 14.5q-65 0 -120.5 -24.5t-102.5 -79t-74 -153.5t-27 -236
q0 -109 18 -195t48.5 -140.5t73 -90t87.5 -50t97 -14.5t97 14.5t87.5 50t72.5 90t48 140t18 195.5zM451 1305q0 -42 -28.5 -72.5t-74.5 -30.5q-44 0 -73 31t-29 72q0 42 28.5 72t73.5 30q46 0 74.5 -29.5t28.5 -72.5zM846 1305q0 -42 -28.5 -72.5t-74.5 -30.5q-44 0 -73 31
t-29 72q0 42 28.5 72t73.5 30q46 0 74.5 -29.5t28.5 -72.5z" />
    <glyph glyph-name="divide" unicode="&#xf7;" 
d="M1063 674h-1045v33h1045v-33zM643 395q0 -42 -28.5 -72t-73.5 -30q-42 0 -72.5 29.5t-30.5 72.5q0 42 30.5 72.5t72.5 30.5q45 0 73.5 -30.5t28.5 -72.5zM643 985q0 -42 -28.5 -72t-73.5 -30q-42 0 -72.5 29.5t-30.5 72.5q0 42 30.5 72t72.5 30q45 0 73.5 -30t28.5 -72z
" />
    <glyph glyph-name="oslash" unicode="&#xf8;" 
d="M1030 492q0 -230 -137.5 -372.5t-351.5 -142.5q-207 0 -340 127l-117 -129l-21 21l117 131q-129 138 -129 365q0 251 135.5 384.5t354.5 133.5q207 0 333 -111l103 115l22 -21l-102 -114q133 -133 133 -387zM864 492q0 179 -49 296l-545 -606q83 -180 271 -180
q52 0 97 14.5t87.5 50t72.5 90t48 140t18 195.5zM217 492q0 -173 41 -279l545 606q-82 166 -262 166q-65 0 -120.5 -24.5t-102.5 -79t-74 -153.5t-27 -236z" />
    <glyph glyph-name="ugrave" unicode="&#xf9;" horiz-adv-x="1155" 
d="M1124 0h-305v111q-167 -134 -334 -134q-68 0 -120.5 19t-84 49t-51.5 71.5t-27 81.5t-7 85v544q0 37 -9.5 52t-42.5 22t-112 8v25q164 9 305 80v-735q0 -67 16 -116.5t38 -74.5t55.5 -40t58.5 -18t57 -3q58 0 128.5 32.5t129.5 79.5v688q0 37 -9.5 52t-42.5 22t-112 8v25
q153 11 306 80v-901q0 -46 20 -67t78 -21h65v-25zM260 1430q0 57 53 57q27 0 49.5 -13t65.5 -55l272 -268h-49q-207 121 -305 184q-86 55 -86 95z" />
    <glyph glyph-name="uacute" unicode="&#xfa;" horiz-adv-x="1155" 
d="M1124 0h-305v111q-167 -134 -334 -134q-68 0 -120.5 19t-84 49t-51.5 71.5t-27 81.5t-7 85v544q0 37 -9.5 52t-42.5 22t-112 8v25q164 9 305 80v-735q0 -67 16 -116.5t38 -74.5t55.5 -40t58.5 -18t57 -3q58 0 128.5 32.5t129.5 79.5v688q0 37 -9.5 52t-42.5 22t-112 8v25
q153 11 306 80v-901q0 -46 20 -67t78 -21h65v-25zM911 1430q0 -40 -86 -95q-44 -28 -120 -74t-131 -78l-54 -32h-49l272 268q43 42 65.5 55t49.5 13q53 0 53 -57z" />
    <glyph glyph-name="ucircumflex" unicode="&#xfb;" horiz-adv-x="1155" 
d="M1124 0h-305v111q-167 -134 -334 -134q-68 0 -120.5 19t-84 49t-51.5 71.5t-27 81.5t-7 85v544q0 37 -9.5 52t-42.5 22t-112 8v25q164 9 305 80v-735q0 -67 16 -116.5t38 -74.5t55.5 -40t58.5 -18t57 -3q58 0 128.5 32.5t129.5 79.5v688q0 37 -9.5 52t-42.5 22t-112 8v25
q153 11 306 80v-901q0 -46 20 -67t78 -21h65v-25zM711 1231q-71 53 -142 115l-141 -115q-22 -18 -53 -41.5t-51 -37.5l-21 -15h-31q41 38 125 135q28 33 63.5 79t57.5 75l21 30h61q75 -110 141 -184q62 -74 123 -135h-28q-74 55 -125 94z" />
    <glyph glyph-name="udieresis" unicode="&#xfc;" horiz-adv-x="1155" 
d="M1124 0h-305v111q-167 -134 -334 -134q-68 0 -120.5 19t-84 49t-51.5 71.5t-27 81.5t-7 85v544q0 37 -9.5 52t-42.5 22t-112 8v25q164 9 305 80v-735q0 -67 16 -116.5t38 -74.5t55.5 -40t58.5 -18t57 -3q58 0 128.5 32.5t129.5 79.5v688q0 37 -9.5 52t-42.5 22t-112 8v25
q153 11 306 80v-901q0 -46 20 -67t78 -21h65v-25zM485 1305q0 -42 -28.5 -72.5t-73.5 -30.5q-44 0 -73 31t-29 72q0 42 28.5 72t73.5 30q46 0 74 -29.5t28 -72.5zM881 1305q0 -42 -28.5 -72.5t-74.5 -30.5q-44 0 -73 31t-29 72q0 42 28.5 72t73.5 30q46 0 74.5 -29.5
t28.5 -72.5z" />
    <glyph glyph-name="yacute" unicode="&#xfd;" horiz-adv-x="1095" 
d="M1096 961h-21q-68 0 -104 -70q-23 -45 -76 -178l-152 -410q-82 -212 -168 -420q-80 -195 -141 -270q-78 -88 -184 -88q-74 0 -119 35.5t-45 95.5q0 41 25 64.5t61 23.5t59 -19.5t23 -56.5l-2 -45q-2 -24 12.5 -36.5t46.5 -12.5q52 0 101 59q94 126 161 332
q-60 135 -199.5 443t-209.5 466q-10 21 -17 31.5t-22 26t-39 22.5t-57 7h-29v24h449v-24h-66q-70 0 -70 -54q0 -15 13 -45l323 -733q248 672 248 743q0 89 -76 89h-57v24h332v-24zM926 1430q0 -40 -86 -95q-44 -28 -120 -74t-130 -78l-55 -32h-50l273 268q44 42 65.5 55
t48.5 13q25 0 39.5 -15t14.5 -42z" />
    <glyph glyph-name="thorn" unicode="&#xfe;" horiz-adv-x="1146" 
d="M930 489q0 241 -88.5 356.5t-251.5 115.5q-111 0 -254 -109v-774q84 -51 229 -51q160 0 262.5 121t102.5 341zM195 1423q0 53 -27 67t-137 15v25q142 9 305 80v-729q144 129 303 129q64 0 125 -15t122.5 -52.5t107 -94.5t74 -147.5t28.5 -204.5q0 -143 -55.5 -259
t-167 -187t-261.5 -73q-159 0 -276 74v-393q0 -54 17.5 -71t78.5 -17h68v-25h-469v25h63q61 0 81 17.5t20 70.5v1765z" />
    <glyph glyph-name="ydieresis" unicode="&#xff;" horiz-adv-x="1095" 
d="M1096 961h-21q-68 0 -104 -70q-23 -45 -76 -178l-152 -410q-82 -212 -168 -420q-80 -195 -141 -270q-78 -88 -184 -88q-74 0 -119 35.5t-45 95.5q0 41 25 64.5t61 23.5t59 -19.5t23 -56.5l-2 -45q-2 -24 12.5 -36.5t46.5 -12.5q52 0 101 59q94 126 161 332
q-60 135 -199.5 443t-209.5 466q-10 21 -17 31.5t-22 26t-39 22.5t-57 7h-29v24h449v-24h-66q-70 0 -70 -54q0 -15 13 -45l323 -733q248 672 248 743q0 89 -76 89h-57v24h332v-24zM492 1305q0 -42 -28.5 -72.5t-74.5 -30.5q-44 0 -73 31t-29 72q0 42 28.5 72t73.5 30
q46 0 74.5 -29.5t28.5 -72.5zM887 1305q0 -42 -28.5 -72.5t-74.5 -30.5q-44 0 -73 31t-29 72q0 42 28.5 72t73.5 30q46 0 74.5 -29.5t28.5 -72.5z" />
    <glyph glyph-name="Amacron" unicode="&#x100;" horiz-adv-x="1458" 
d="M1458 0h-540v25h71q20 0 32.5 1t31 6.5t28 19.5t9.5 36q0 19 -28 104t-140 408h-525l-71 -184q-2 -6 -11.5 -30t-13.5 -35t-13 -34t-13.5 -37t-11.5 -35.5t-11 -36t-8 -31.5t-6 -30t-2 -24q0 -79 71 -98h92v-25h-399v25h61q60 42 136.5 187.5t201.5 471.5l179 481
q104 275 120 316h50l507 -1323q12 -31 23 -51.5t30 -41t47 -30.5t66 -10h37v-25zM911 625l-254 675q-108 -288 -251 -675h505zM1022 1604h-596v32h596v-32z" />
    <glyph glyph-name="amacron" unicode="&#x101;" horiz-adv-x="991" 
d="M879 27q26 0 47 27.5t30 78.5h25q-13 -86 -52.5 -121t-99.5 -35q-155 0 -155 211q-66 -69 -126.5 -114.5t-110.5 -65t-83 -25.5t-69 -6q-118 0 -179 58t-61 151q0 60 27.5 112.5t75.5 91t104.5 69t125 52.5t126.5 35.5t117 22.5l53 9v104q0 157 -55.5 230t-200.5 73
q-67 0 -117.5 -25t-50.5 -75q0 -19 9 -41t9 -41q0 -36 -22 -57t-64 -21q-34 0 -56 23.5t-22 62.5q0 79 93.5 139t232.5 60q80 0 145 -15.5t121 -51t87.5 -102t31.5 -159.5v-543q0 -112 64 -112zM674 221v332q-80 -15 -144 -32.5t-125.5 -45.5t-102.5 -63t-66 -86t-25 -113
q0 -88 45.5 -129t116.5 -41q69 0 156 56.5t145 121.5zM752 1178h-596v32h596v-32z" />
    <glyph glyph-name="Abreve" unicode="&#x102;" horiz-adv-x="1458" 
d="M1458 0h-540v25h71q20 0 32.5 1t31 6.5t28 19.5t9.5 36q0 19 -28 104t-140 408h-525l-71 -184q-2 -6 -11.5 -30t-13.5 -35t-13 -34t-13.5 -37t-11.5 -35.5t-11 -36t-8 -31.5t-6 -30t-2 -24q0 -79 71 -98h92v-25h-399v25h61q60 42 136.5 187.5t201.5 471.5l179 481
q104 275 120 316h50l507 -1323q12 -31 23 -51.5t30 -41t47 -30.5t66 -10h37v-25zM911 625l-254 675q-108 -288 -251 -675h505zM723 1593q-120 0 -208 65.5t-105 184.5h28q26 -82 104.5 -118.5t180.5 -36.5t181.5 36.5t105.5 118.5h26q-17 -120 -104.5 -185t-208.5 -65z" />
    <glyph glyph-name="abreve" unicode="&#x103;" horiz-adv-x="991" 
d="M879 27q26 0 47 27.5t30 78.5h25q-13 -86 -52.5 -121t-99.5 -35q-155 0 -155 211q-66 -69 -126.5 -114.5t-110.5 -65t-83 -25.5t-69 -6q-118 0 -179 58t-61 151q0 60 27.5 112.5t75.5 91t104.5 69t125 52.5t126.5 35.5t117 22.5l53 9v104q0 157 -55.5 230t-200.5 73
q-67 0 -117.5 -25t-50.5 -75q0 -19 9 -41t9 -41q0 -36 -22 -57t-64 -21q-34 0 -56 23.5t-22 62.5q0 79 93.5 139t232.5 60q80 0 145 -15.5t121 -51t87.5 -102t31.5 -159.5v-543q0 -112 64 -112zM674 221v332q-80 -15 -144 -32.5t-125.5 -45.5t-102.5 -63t-66 -86t-25 -113
q0 -88 45.5 -129t116.5 -41q69 0 156 56.5t145 121.5zM467 1137q-132 0 -218 88t-97 215h24q27 -92 105.5 -150.5t185.5 -58.5q108 0 186 58.5t103 150.5h26q-11 -127 -97 -215t-218 -88z" />
    <glyph glyph-name="Aogonek" unicode="&#x104;" horiz-adv-x="1458" 
d="M1378 -301q79 0 176 82l17 -19q-129 -122 -260 -122q-70 0 -110 38.5t-40 98.5q0 106 117 223h-360v25h71q20 0 32.5 1t31 6.5t28 19.5t9.5 36q0 19 -28 104t-140 408h-525l-71 -184q-2 -6 -11.5 -30t-13.5 -35t-13 -34t-13.5 -37t-11.5 -35.5t-11 -36t-8 -31.5t-6 -30
t-2 -24q0 -79 71 -98h92v-25h-399v25h61q60 42 136.5 187.5t201.5 471.5l179 481q104 275 120 316h50l507 -1323q12 -31 23 -51.5t30 -41t47 -30.5t66 -10h37v-25h-139q-59 -91 -59 -184q0 -53 30.5 -85t87.5 -32zM911 625l-254 675l-251 -675h505z" />
    <glyph glyph-name="aogonek" unicode="&#x105;" horiz-adv-x="991" 
d="M975 -252q35 0 75.5 20.5t73.5 51.5l17 -19q-106 -106 -217 -106q-61 0 -95 33t-34 86q0 82 73 168q-15 -5 -39 -5q-155 0 -155 211q-66 -69 -126.5 -114.5t-110.5 -65t-83 -25.5t-69 -6q-118 0 -179 58t-61 151q0 60 27.5 112.5t75.5 91t104.5 69t125 52.5t126.5 35.5
t117 22.5l53 9v104q0 157 -55.5 230t-200.5 73q-67 0 -117.5 -25t-50.5 -75q0 -19 9 -41t9 -41q0 -36 -22 -57t-64 -21q-34 0 -56 23.5t-22 62.5q0 79 93.5 139t232.5 60q80 0 145 -15.5t121 -51t87.5 -102t31.5 -159.5v-543q0 -112 64 -112q26 0 47 27.5t30 78.5h25
q-11 -70 -45 -113q-62 -85 -62 -176q0 -45 26 -70.5t75 -25.5zM674 221v332q-80 -15 -144 -32.5t-125.5 -45.5t-102.5 -63t-66 -86t-25 -113q0 -88 45.5 -129t116.5 -41q69 0 156 56.5t145 121.5z" />
    <glyph glyph-name="Cacute" unicode="&#x106;" horiz-adv-x="1521" 
d="M1370 0h-24l4 78q-103 -60 -241 -83.5t-237 -23.5q-184 0 -328.5 56.5t-236 158t-139 238.5t-47.5 303q0 109 22.5 213.5t79 210t141 184.5t219.5 128.5t304 49.5q105 0 210.5 -23.5t243.5 -84.5l-2 76h25l27 -373h-25l-12 94q-66 127 -190.5 207t-307.5 80
q-111 0 -202.5 -40t-154.5 -110t-106 -165.5t-62.5 -204.5t-19.5 -230q0 -186 46 -331.5t125 -233.5t178 -133t212 -45q162 0 302 70t192 170l27 122h26zM1180 1853q0 -39 -86 -94q-44 -28 -120.5 -74t-131.5 -78l-54 -32h-49l273 268q44 42 65.5 55t48.5 13
q25 0 39.5 -15.5t14.5 -42.5z" />
    <glyph glyph-name="cacute" unicode="&#x107;" horiz-adv-x="921" 
d="M551 27q101 0 188.5 58.5t139.5 176.5l22 -10q-17 -39 -34.5 -71t-51 -72t-72 -67t-98 -46t-129.5 -19q-199 0 -332 136t-133 370q0 82 18.5 158t58.5 143.5t97 117.5t139.5 79t180.5 29q141 0 225 -50.5t84 -123.5q0 -50 -24.5 -75.5t-61.5 -25.5q-86 0 -86 90
q0 9 3 33.5t3 38.5q0 37 -40 62.5t-111 25.5q-65 0 -119.5 -25t-101 -80.5t-73 -156.5t-26.5 -240q0 -227 94 -341.5t240 -114.5zM813 1430q0 -40 -86 -95q-44 -28 -120 -74t-131 -78l-54 -32h-49l272 268q43 42 65.5 55t49.5 13q53 0 53 -57z" />
    <glyph glyph-name="Cdotaccent" unicode="&#x10a;" horiz-adv-x="1521" 
d="M1370 0h-24l4 78q-103 -60 -241 -83.5t-237 -23.5q-184 0 -328.5 56.5t-236 158t-139 238.5t-47.5 303q0 109 22.5 213.5t79 210t141 184.5t219.5 128.5t304 49.5q105 0 210.5 -23.5t243.5 -84.5l-2 76h25l27 -373h-25l-12 94q-66 127 -190.5 207t-307.5 80
q-111 0 -202.5 -40t-154.5 -110t-106 -165.5t-62.5 -204.5t-19.5 -230q0 -186 46 -331.5t125 -233.5t178 -133t212 -45q162 0 302 70t192 170l27 122h26zM995 1708q0 -42 -28 -72t-74 -30q-44 0 -73 30.5t-29 71.5q0 42 28.5 72t73.5 30q46 0 74 -29.5t28 -72.5z" />
    <glyph glyph-name="cdotaccent" unicode="&#x10b;" horiz-adv-x="921" 
d="M551 27q101 0 188.5 58.5t139.5 176.5l22 -10q-17 -39 -34.5 -71t-51 -72t-72 -67t-98 -46t-129.5 -19q-199 0 -332 136t-133 370q0 82 18.5 158t58.5 143.5t97 117.5t139.5 79t180.5 29q141 0 225 -50.5t84 -123.5q0 -50 -24.5 -75.5t-61.5 -25.5q-86 0 -86 90
q0 9 3 33.5t3 38.5q0 37 -40 62.5t-111 25.5q-65 0 -119.5 -25t-101 -80.5t-73 -156.5t-26.5 -240q0 -227 94 -341.5t240 -114.5zM635 1305q0 -42 -28.5 -72.5t-74.5 -30.5q-44 0 -73 31t-29 72q0 42 28.5 72t73.5 30q46 0 74.5 -29.5t28.5 -72.5z" />
    <glyph glyph-name="Ccaron" unicode="&#x10c;" horiz-adv-x="1521" 
d="M1370 0h-24l4 78q-103 -60 -241 -83.5t-237 -23.5q-184 0 -328.5 56.5t-236 158t-139 238.5t-47.5 303q0 109 22.5 213.5t79 210t141 184.5t219.5 128.5t304 49.5q105 0 210.5 -23.5t243.5 -84.5l-2 76h25l27 -373h-25l-12 94q-66 127 -190.5 207t-307.5 80
q-111 0 -202.5 -40t-154.5 -110t-106 -165.5t-62.5 -204.5t-19.5 -230q0 -186 46 -331.5t125 -233.5t178 -133t212 -45q162 0 302 70t192 170l27 122h26zM1036 1786l125 94h29q-61 -61 -123 -135q-29 -33 -64.5 -79t-56.5 -76l-20 -29h-62q-78 110 -141 184q-84 97 -125 135
h31q76 -53 125 -94l141 -115q77 67 141 115z" />
    <glyph glyph-name="ccaron" unicode="&#x10d;" horiz-adv-x="921" 
d="M551 27q101 0 188.5 58.5t139.5 176.5l22 -10q-17 -39 -34.5 -71t-51 -72t-72 -67t-98 -46t-129.5 -19q-199 0 -332 136t-133 370q0 82 18.5 158t58.5 143.5t97 117.5t139.5 79t180.5 29q141 0 225 -50.5t84 -123.5q0 -50 -24.5 -75.5t-61.5 -25.5q-86 0 -86 90
q0 9 3 33.5t3 38.5q0 37 -40 62.5t-111 25.5q-65 0 -119.5 -25t-101 -80.5t-73 -156.5t-26.5 -240q0 -227 94 -341.5t240 -114.5zM649 1382l125 95h29q-56 -56 -123 -136q-29 -33 -64.5 -79t-55.5 -76l-21 -29h-62q-78 110 -141 184q-89 102 -125 136h31q76 -54 125 -95
l141 -114q69 60 141 114z" />
    <glyph glyph-name="Dcaron" unicode="&#x10e;" horiz-adv-x="1734" 
d="M1430 776q0 58 -7.5 118.5t-27 129.5t-49 130.5t-78 119.5t-110 100t-149 67t-190.5 25q-98 0 -179.5 -11t-166.5 -48v-1325q122 -68 340 -68q127 0 230.5 40t174.5 110.5t119.5 167.5t70.5 208t22 236zM299 1346q0 62 -31.5 86t-103.5 24h-70v25h318q38 1 189 5.5
t218 4.5q151 0 275 -30t205.5 -76.5t143 -112t94 -128t52.5 -134t25.5 -120t5.5 -95.5q0 -64 -7.5 -129t-30 -146.5t-58.5 -153.5t-98 -142.5t-143.5 -121t-200.5 -81.5t-263 -31q-32 0 -110.5 3t-92.5 3q-126 4 -167 4h-355v25h70q83 0 109 22.5t26 87.5v1211zM958 1786
l125 94h29q-61 -61 -123 -135q-29 -33 -64.5 -79t-56.5 -76l-20 -29h-62q-78 110 -141 184q-84 97 -125 135h31q76 -53 125 -94l141 -115q77 67 141 115z" />
    <glyph glyph-name="dcaron" unicode="&#x10f;" horiz-adv-x="1171" 
d="M1133 0h-306v106q-57 -54 -137.5 -91.5t-171.5 -37.5q-55 0 -113.5 13.5t-123 49.5t-114.5 91t-83 146t-33 206q0 155 70.5 275.5t187.5 184.5t260 67q127 0 258 -45v460q0 37 -9 51.5t-42.5 22t-111.5 8.5v25q170 8 305 78v-1497q0 -46 20 -67t78 -21h66v-25zM827 139
v719q-31 63 -99 95t-148 32q-175 0 -269 -124.5t-94 -360.5q0 -113 23 -199.5t59 -137t86 -82.5t96 -43t97 -11q137 0 249 112zM1102 1061l-21 14q78 126 78 250q0 102 -59 176l10 25h127q16 -57 16 -109q0 -170 -151 -356z" />
    <glyph glyph-name="Dcroat" unicode="&#x110;" horiz-adv-x="1740" 
d="M305 1346q0 62 -31.5 86t-103.5 24h-70v25h318q38 1 189 5.5t218 4.5q151 0 275 -30t205.5 -76.5t143 -112t94 -128t52.5 -134t25.5 -120t5.5 -95.5q0 -64 -7.5 -129t-30 -146.5t-58.5 -153.5t-98 -142.5t-143.5 -121t-200.5 -81.5t-263 -31q-32 0 -109.5 3t-92.5 3
q-126 4 -168 4h-355v25h70q83 0 109 22.5t26 87.5v625h-244v33h244v553zM1436 776q0 58 -7.5 118.5t-27 129.5t-49 130.5t-78 119.5t-110 100t-149 67t-190.5 25q-98 0 -179.5 -11t-166.5 -48v-614h352v-33h-352v-678q122 -68 340 -68q127 0 230.5 40t174.5 110.5
t119.5 167.5t70.5 208t22 236z" />
    <glyph glyph-name="dcroat" unicode="&#x111;" horiz-adv-x="1163" 
d="M1133 0h-306v106q-57 -54 -137.5 -91.5t-171.5 -37.5q-55 0 -113.5 13.5t-123 49.5t-114.5 91t-83 146t-33 206q0 155 70.5 275.5t187.5 184.5t260 67q127 0 258 -45v333h-381v33h381v94q0 37 -9 51.5t-42.5 22t-111.5 8.5v25q170 8 305 78v-279h129v-33h-129v-1185
q0 -46 20 -67t78 -21h66v-25zM827 139v719q-31 63 -99 95t-148 32q-175 0 -269 -124.5t-94 -360.5q0 -113 23 -199.5t59 -137t86 -82.5t96 -43t97 -11q137 0 249 112z" />
    <glyph glyph-name="Emacron" unicode="&#x112;" horiz-adv-x="1357" 
d="M94 1481h1135l18 -310h-24l-23 170q-41 53 -184.5 84t-315.5 31q-98 0 -144 -9t-64.5 -32t-18.5 -72v-555h117q114 0 193.5 9.5t119 21t60 32.5t23.5 34t3 35v47h25v-381h-25v51q0 22 -3 35t-23.5 33t-60 31t-119 19.5t-193.5 8.5h-117v-629q0 -66 34 -88t97 -22
q131 0 264 11.5t205 29.5q155 44 197 157l22 92h25l-60 -315h-1163v25h72q81 0 107 22.5t26 87.5v1211q0 67 -33 88.5t-100 21.5h-72v25zM1032 1604h-596v32h596v-32z" />
    <glyph glyph-name="emacron" unicode="&#x113;" horiz-adv-x="952" 
d="M508 1010q97 0 173.5 -38t122.5 -101t70.5 -138.5t26.5 -157.5h-684q1 -137 21.5 -239.5t51 -160t75.5 -92.5t85.5 -45.5t88.5 -10.5q203 0 331 202l21 -14q-138 -238 -391 -238q-59 0 -117.5 14.5t-119.5 51.5t-107 93t-75.5 147t-29.5 204q0 239 122.5 381t334.5 142z
M217 600h526q0 106 -26 191t-83.5 139.5t-139.5 54.5q-248 0 -277 -385zM788 1178h-595v32h595v-32z" />
    <glyph glyph-name="Edotaccent" unicode="&#x116;" horiz-adv-x="1357" 
d="M94 1481h1135l18 -310h-24l-23 170q-41 53 -184.5 84t-315.5 31q-98 0 -144 -9t-64.5 -32t-18.5 -72v-555h117q114 0 193.5 9.5t119 21t60 32.5t23.5 34t3 35v47h25v-381h-25v51q0 22 -3 35t-23.5 33t-60 31t-119 19.5t-193.5 8.5h-117v-629q0 -66 34 -88t97 -22
q131 0 264 11.5t205 29.5q155 44 197 157l22 92h25l-60 -315h-1163v25h72q81 0 107 22.5t26 87.5v1211q0 67 -33 88.5t-100 21.5h-72v25zM838 1708q0 -41 -28.5 -71.5t-74.5 -30.5q-44 0 -73 30.5t-29 71.5q0 42 28.5 72t73.5 30q46 0 74.5 -29.5t28.5 -72.5z" />
    <glyph glyph-name="edotaccent" unicode="&#x117;" horiz-adv-x="952" 
d="M508 1010q97 0 173.5 -38t122.5 -101t70.5 -138.5t26.5 -157.5h-684q1 -137 21.5 -239.5t51 -160t75.5 -92.5t85.5 -45.5t88.5 -10.5q203 0 331 202l21 -14q-138 -238 -391 -238q-59 0 -117.5 14.5t-119.5 51.5t-107 93t-75.5 147t-29.5 204q0 239 122.5 381t334.5 142z
M217 600h526q0 106 -26 191t-83.5 139.5t-139.5 54.5q-248 0 -277 -385zM596 1305q0 -42 -28.5 -72.5t-73.5 -30.5q-44 0 -73.5 31t-29.5 72q0 42 29 72t74 30q46 0 74 -29.5t28 -72.5z" />
    <glyph glyph-name="Eogonek" unicode="&#x118;" horiz-adv-x="1357" 
d="M1225 -301q79 0 176 82l16 -19q-129 -122 -260 -122q-70 0 -109.5 38.5t-39.5 98.5q0 107 116 223h-1030v25h72q81 0 107 22.5t26 87.5v1211q0 67 -33 88.5t-100 21.5h-72v25h1135l18 -310h-24l-23 170q-41 53 -184.5 84t-315.5 31q-98 0 -144 -9t-64.5 -32t-18.5 -72
v-555h117q114 0 193.5 9.5t119 21t60 32.5t23.5 34t3 35v47h25v-381h-25v51q0 22 -3 35t-23.5 33t-60 31t-119 19.5t-193.5 8.5h-117v-629q0 -66 34 -88t97 -22q131 0 264 11.5t205 29.5q155 44 197 157l22 92h25l-60 -315h-92q-59 -91 -59 -184q0 -53 31 -85t88 -32z" />
    <glyph glyph-name="eogonek" unicode="&#x119;" horiz-adv-x="952" 
d="M731 -252q35 0 76.5 20.5t73.5 51.5l16 -19q-106 -106 -217 -106q-61 0 -95 33t-34 86q0 89 88 184q-61 -21 -139 -21q-59 0 -117.5 14.5t-119.5 51.5t-107 93t-75.5 147t-29.5 204q0 239 122.5 381t334.5 142q97 0 173.5 -38t122.5 -101t70.5 -138.5t26.5 -157.5h-684
q1 -137 21.5 -239.5t51 -160t75.5 -92.5t85.5 -45.5t88.5 -10.5q203 0 331 202l21 -14q-83 -142 -201 -197q-59 -86 -59 -174q0 -45 25.5 -70.5t74.5 -25.5zM217 600h526q0 106 -26 191t-83.5 139.5t-139.5 54.5q-248 0 -277 -385z" />
    <glyph glyph-name="Ecaron" unicode="&#x11a;" horiz-adv-x="1357" 
d="M94 1481h1135l18 -310h-24l-23 170q-41 53 -184.5 84t-315.5 31q-98 0 -144 -9t-64.5 -32t-18.5 -72v-555h117q114 0 193.5 9.5t119 21t60 32.5t23.5 34t3 35v47h25v-381h-25v51q0 22 -3 35t-23.5 33t-60 31t-119 19.5t-193.5 8.5h-117v-629q0 -66 34 -88t97 -22
q131 0 264 11.5t205 29.5q155 44 197 157l22 92h25l-60 -315h-1163v25h72q81 0 107 22.5t26 87.5v1211q0 67 -33 88.5t-100 21.5h-72v25zM879 1786l125 94h28q-61 -61 -123 -135q-29 -33 -64.5 -79t-56.5 -76l-20 -29h-61q-79 110 -142 184q-84 97 -125 135h31
q76 -53 125 -94l141 -115q71 62 142 115z" />
    <glyph glyph-name="ecaron" unicode="&#x11b;" horiz-adv-x="952" 
d="M508 1010q97 0 173.5 -38t122.5 -101t70.5 -138.5t26.5 -157.5h-684q1 -137 21.5 -239.5t51 -160t75.5 -92.5t85.5 -45.5t88.5 -10.5q203 0 331 202l21 -14q-138 -238 -391 -238q-59 0 -117.5 14.5t-119.5 51.5t-107 93t-75.5 147t-29.5 204q0 239 122.5 381t334.5 142z
M217 600h526q0 106 -26 191t-83.5 139.5t-139.5 54.5q-248 0 -277 -385zM598 1382l125 95h29q-56 -56 -123 -136q-29 -33 -64.5 -79t-56.5 -76l-21 -29h-61q-78 110 -141 184q-89 102 -125 136h30q76 -54 125 -95l142 -114q69 60 141 114z" />
    <glyph glyph-name="Gbreve" unicode="&#x11e;" horiz-adv-x="1679" 
d="M1669 686h-57q-32 0 -50 -2t-40 -11t-32.5 -31t-10.5 -58v-394q-106 -99 -269 -159t-325 -60q-161 0 -291.5 43t-217 115t-145 171t-84.5 206.5t-26 224.5q0 222 99.5 400.5t277.5 280t401 101.5q104 0 208.5 -21t256.5 -87q0 14 -1 39t-1 37h24q27 -371 27 -373h-24
l-13 94q-65 126 -189.5 206.5t-295.5 80.5q-125 0 -231 -51.5t-183.5 -147t-121.5 -240t-44 -321.5q0 -160 36 -288.5t93 -210t134 -136t153.5 -76.5t155.5 -22q99 0 177.5 22.5t123 55.5t73.5 75t38.5 75t9.5 61v299q0 62 -32 82t-99 20h-50v25h545v-25zM891 1593
q-120 0 -208 65.5t-105 184.5h28q26 -82 104.5 -118.5t180.5 -36.5t181.5 36.5t105.5 118.5h26q-17 -120 -104.5 -185t-208.5 -65z" />
    <glyph glyph-name="gbreve" unicode="&#x11f;" horiz-adv-x="1077" 
d="M1077 1094q0 -35 -22 -60.5t-58 -25.5q-59 0 -79 51q-1 1 -2.5 6t-2.5 6.5t-3 5.5t-3.5 5.5t-4 3.5t-5.5 3t-6 1q-20 0 -52 -48t-51 -86q94 -44 146.5 -108t52.5 -164q0 -79 -30.5 -141t-77.5 -99.5t-109 -62t-120 -34t-115 -9.5h-39q-89 0 -138 -8q-44 -7 -64 -29
t-20 -49q0 -24 14 -43t32.5 -31t50 -22.5t53.5 -15.5t55 -11l178 -33q79 -15 141 -34.5t121.5 -51t92 -80t32.5 -110.5q0 -45 -13 -84.5t-48 -79t-90.5 -68t-147 -46t-210.5 -17.5q-124 0 -219 17t-149.5 43.5t-89 62.5t-46 69.5t-11.5 69.5q0 90 69 159t224 99
q-135 46 -135 156q0 63 45 105.5t135 51.5q-125 40 -195.5 126.5t-70.5 199.5q0 151 121 238.5t326 87.5q122 0 223 -43q20 42 36 69t44.5 65.5t63.5 58.5t75 20q43 0 69.5 -25t26.5 -61zM821 680q0 305 -291 305q-65 0 -115 -20.5t-79 -52t-47.5 -76t-24.5 -85.5t-6 -87
q0 -28 4.5 -60t22 -77t45.5 -80t80.5 -60t121.5 -25q72 0 128.5 26.5t91 72t52 101.5t17.5 118zM930 -227q0 63 -65.5 120t-209.5 84q-34 6 -94.5 17.5t-111 20.5t-93.5 16q-97 -23 -163 -84.5t-66 -145.5q0 -252 416 -252q191 0 289 61.5t98 162.5zM530 1137
q-132 0 -218 88t-97 215h25q27 -92 105 -150.5t185 -58.5q108 0 186 58.5t103 150.5h27q-11 -127 -97.5 -215t-218.5 -88z" />
    <glyph glyph-name="Gdotaccent" unicode="&#x120;" horiz-adv-x="1679" 
d="M1669 686h-57q-32 0 -50 -2t-40 -11t-32.5 -31t-10.5 -58v-394q-106 -99 -269 -159t-325 -60q-161 0 -291.5 43t-217 115t-145 171t-84.5 206.5t-26 224.5q0 222 99.5 400.5t277.5 280t401 101.5q104 0 208.5 -21t256.5 -87q0 14 -1 39t-1 37h24q27 -371 27 -373h-24
l-13 94q-65 126 -189.5 206.5t-295.5 80.5q-125 0 -231 -51.5t-183.5 -147t-121.5 -240t-44 -321.5q0 -160 36 -288.5t93 -210t134 -136t153.5 -76.5t155.5 -22q99 0 177.5 22.5t123 55.5t73.5 75t38.5 75t9.5 61v299q0 62 -32 82t-99 20h-50v25h545v-25zM1001 1708
q0 -42 -28 -72t-74 -30q-44 0 -73 30.5t-29 71.5q0 42 28.5 72t73.5 30q46 0 74 -29.5t28 -72.5z" />
    <glyph glyph-name="gdotaccent" unicode="&#x121;" horiz-adv-x="1077" 
d="M1077 1094q0 -35 -22 -60.5t-58 -25.5q-59 0 -79 51q-1 1 -2.5 6t-2.5 6.5t-3 5.5t-3.5 5.5t-4 3.5t-5.5 3t-6 1q-20 0 -52 -48t-51 -86q94 -44 146.5 -108t52.5 -164q0 -79 -30.5 -141t-77.5 -99.5t-109 -62t-120 -34t-115 -9.5h-39q-89 0 -138 -8q-44 -7 -64 -29
t-20 -49q0 -24 14 -43t32.5 -31t50 -22.5t53.5 -15.5t55 -11l178 -33q79 -15 141 -34.5t121.5 -51t92 -80t32.5 -110.5q0 -45 -13 -84.5t-48 -79t-90.5 -68t-147 -46t-210.5 -17.5q-124 0 -219 17t-149.5 43.5t-89 62.5t-46 69.5t-11.5 69.5q0 90 69 159t224 99
q-135 46 -135 156q0 63 45 105.5t135 51.5q-125 40 -195.5 126.5t-70.5 199.5q0 151 121 238.5t326 87.5q122 0 223 -43q20 42 36 69t44.5 65.5t63.5 58.5t75 20q43 0 69.5 -25t26.5 -61zM821 680q0 305 -291 305q-65 0 -115 -20.5t-79 -52t-47.5 -76t-24.5 -85.5t-6 -87
q0 -28 4.5 -60t22 -77t45.5 -80t80.5 -60t121.5 -25q72 0 128.5 26.5t91 72t52 101.5t17.5 118zM930 -227q0 63 -65.5 120t-209.5 84q-34 6 -94.5 17.5t-111 20.5t-93.5 16q-97 -23 -163 -84.5t-66 -145.5q0 -252 416 -252q191 0 289 61.5t98 162.5zM641 1305
q0 -42 -28.5 -72.5t-73.5 -30.5q-44 0 -73.5 31t-29.5 72q0 42 29 72t74 30q46 0 74 -29.5t28 -72.5z" />
    <glyph glyph-name="Gcommaaccent" unicode="&#x122;" horiz-adv-x="1679" 
d="M1669 686h-57q-32 0 -50 -2t-40 -11t-32.5 -31t-10.5 -58v-394q-106 -99 -269 -159t-325 -60q-161 0 -291.5 43t-217 115t-145 171t-84.5 206.5t-26 224.5q0 222 99.5 400.5t277.5 280t401 101.5q104 0 208.5 -21t256.5 -87q0 14 -1 39t-1 37h24q27 -371 27 -373h-24
l-13 94q-65 126 -189.5 206.5t-295.5 80.5q-125 0 -231 -51.5t-183.5 -147t-121.5 -240t-44 -321.5q0 -160 36 -288.5t93 -210t134 -136t153.5 -76.5t155.5 -22q99 0 177.5 22.5t123 55.5t73.5 75t38.5 75t9.5 61v299q0 62 -32 82t-99 20h-50v25h545v-25zM993 -328
q0 -104 -55.5 -211t-140.5 -184l-19 18q63 64 95 127.5t32 112.5q0 8 -1 16t-2 13.5t-4.5 12t-5 10t-7 9t-7.5 8t-10 8t-10 7t-12 8.5t-12 8q-64 41 -64 95q0 39 29 65.5t75 26.5q52 0 85.5 -39t33.5 -111z" />
    <glyph glyph-name="gcommaaccent" unicode="&#x123;" horiz-adv-x="1077" 
d="M1077 1094q0 -35 -22 -60.5t-58 -25.5q-59 0 -79 51q-1 1 -2.5 6t-2.5 6.5t-3 5.5t-3.5 5.5t-4 3.5t-5.5 3t-6 1q-20 0 -52 -48t-51 -86q94 -44 146.5 -108t52.5 -164q0 -79 -30.5 -141t-77.5 -99.5t-109 -62t-120 -34t-115 -9.5h-39q-89 0 -138 -8q-44 -7 -64 -29
t-20 -49q0 -24 14 -43t32.5 -31t50 -22.5t53.5 -15.5t55 -11l178 -33q79 -15 141 -34.5t121.5 -51t92 -80t32.5 -110.5q0 -45 -13 -84.5t-48 -79t-90.5 -68t-147 -46t-210.5 -17.5q-124 0 -219 17t-149.5 43.5t-89 62.5t-46 69.5t-11.5 69.5q0 90 69 159t224 99
q-135 46 -135 156q0 63 45 105.5t135 51.5q-125 40 -195.5 126.5t-70.5 199.5q0 151 121 238.5t326 87.5q122 0 223 -43q20 42 36 69t44.5 65.5t63.5 58.5t75 20q43 0 69.5 -25t26.5 -61zM821 680q0 305 -291 305q-65 0 -115 -20.5t-79 -52t-47.5 -76t-24.5 -85.5t-6 -87
q0 -28 4.5 -60t22 -77t45.5 -80t80.5 -60t121.5 -25q72 0 128.5 26.5t91 72t52 101.5t17.5 118zM930 -227q0 63 -65.5 120t-209.5 84q-34 6 -94.5 17.5t-111 20.5t-93.5 16q-97 -23 -163 -84.5t-66 -145.5q0 -252 416 -252q191 0 289 61.5t98 162.5zM449 1313q0 157 145 317
l18 -16q-40 -47 -63 -101t-23 -92q0 -15 8 -27t17 -18t27.5 -16.5t27.5 -16.5q45 -26 45 -81q0 -35 -25.5 -59.5t-66.5 -24.5q-48 0 -79 35t-31 100z" />
    <glyph glyph-name="Hbar" unicode="&#x126;" horiz-adv-x="1765" 
d="M1671 0h-584v25h70q79 0 107 22.5t28 87.5v619h-819v-619q0 -66 27.5 -88t101.5 -22h76v-25h-584v25h70q79 0 107 22.5t28 87.5v981h-205v25h205v205q0 61 -29 85.5t-106 24.5h-70v25h584v-25h-76q-74 0 -101.5 -22t-27.5 -88v-205h819v205q0 65 -28 87.5t-107 22.5h-70
v25h584v-25h-76q-74 0 -101.5 -22t-27.5 -88v-205h201v-25h-201v-981q0 -66 27.5 -88t101.5 -22h76v-25zM473 778h819v338h-819v-338z" />
    <glyph glyph-name="hbar" unicode="&#x127;" horiz-adv-x="1161" 
d="M1130 0h-468v25h65q59 0 78.5 20t19.5 68v551q0 59 -8.5 106t-21 77.5t-32.5 53t-39 33.5t-45 17.5t-44.5 8t-44.5 1.5q-104 0 -254 -93v-755q0 -54 18 -71t78 -17h68v-25h-469v25h63q60 0 80.5 18t20.5 70v1114h-150v33h150v167q0 35 -11 50.5t-44 22t-109 7.5v25
q172 11 305 78v-350h489v-33h-489v-330q162 113 313 113q62 0 111.5 -13t82.5 -33t56.5 -51.5t36.5 -62t20 -72.5t9 -73.5t2 -73.5v-518q0 -48 19.5 -68t76.5 -20h67v-25z" />
    <glyph glyph-name="Imacron" unicode="&#x12a;" horiz-adv-x="772" 
d="M678 0h-584v25h70q81 0 108 24t27 86v1211q0 65 -28.5 87.5t-106.5 22.5h-70v25h584v-25h-76q-76 0 -102.5 -23t-26.5 -87v-1211q0 -61 25 -85.5t104 -24.5h76v-25zM686 1604h-596v32h596v-32z" />
    <glyph glyph-name="imacron" unicode="&#x12b;" horiz-adv-x="530" 
d="M500 0h-469v25h65q59 0 79 19.5t20 68.5v714q0 23 -3.5 36t-11.5 23t-28.5 14t-46.5 6t-74 3v25q158 10 305 80v-901q0 -48 19.5 -68t76.5 -20h68v-25zM561 1178h-596v32h596v-32z" />
    <glyph glyph-name="Iogonek" unicode="&#x12e;" horiz-adv-x="772" 
d="M678 0h-172q-60 -92 -60 -184q0 -53 31 -85t88 -32q79 0 176 82l17 -19q-129 -122 -260 -122q-70 0 -110 38.5t-40 98.5q0 106 117 223h-371v25h70q81 0 108 24t27 86v1211q0 65 -28.5 87.5t-106.5 22.5h-70v25h584v-25h-76q-76 0 -102.5 -23t-26.5 -87v-1211
q0 -61 25 -85.5t104 -24.5h76v-25z" />
    <glyph glyph-name="iogonek" unicode="&#x12f;" horiz-adv-x="530" 
d="M500 0h-140q-49 -79 -49 -156q0 -45 26 -70.5t75 -25.5q35 0 75.5 20.5t73.5 51.5l17 -19q-106 -106 -218 -106q-61 0 -95 33t-34 86q0 88 91 186h-291v25h65q59 0 79 19.5t20 68.5v714q0 23 -3.5 36t-11.5 23t-28.5 14t-46.5 6t-74 3v25q158 10 305 80v-901
q0 -48 19.5 -68t76.5 -20h68v-25zM367 1305q0 -42 -28.5 -72.5t-74.5 -30.5q-44 0 -73 31t-29 72q0 42 28.5 72t73.5 30q46 0 74.5 -29.5t28.5 -72.5z" />
    <glyph glyph-name="Idotaccent" unicode="&#x130;" horiz-adv-x="772" 
d="M678 0h-584v25h70q81 0 108 24t27 86v1211q0 65 -28.5 87.5t-106.5 22.5h-70v25h584v-25h-76q-76 0 -102.5 -23t-26.5 -87v-1211q0 -61 25 -85.5t104 -24.5h76v-25zM487 1708q0 -42 -28 -72t-74 -30q-44 0 -73 30.5t-29 71.5q0 42 28.5 72t73.5 30q46 0 74 -29.5
t28 -72.5z" />
    <glyph glyph-name="dotlessi" unicode="&#x131;" horiz-adv-x="530" 
d="M500 0h-469v25h65q59 0 79 19.5t20 68.5v714q0 23 -3.5 36t-11.5 23t-28.5 14t-46.5 6t-74 3v25q158 10 305 80v-901q0 -48 19.5 -68t76.5 -20h68v-25z" />
    <glyph glyph-name="Kcommaaccent" unicode="&#x136;" horiz-adv-x="1591" 
d="M1581 0h-354l-697 778l334 312q151 141 211 208.5t60 102.5q0 55 -91 55h-73v25h512v-25h-53q-53 0 -125 -37t-199 -145l-436 -404l659 -731q26 -28 40 -41t45.5 -34.5t72.5 -32t94 -11.5v-20zM676 0h-582v25h70q80 0 106.5 25.5t26.5 84.5v1211q0 66 -26.5 88t-106.5 22
h-70v25h582v-25h-76q-74 0 -101.5 -25t-27.5 -85v-1211q0 -59 28.5 -84.5t100.5 -25.5h76v-25zM915 -328q0 -104 -55.5 -211t-140.5 -184l-19 18q63 64 95 127.5t32 112.5q0 8 -1 16t-2 13.5t-4.5 12t-5 10t-7 9t-7.5 8t-10 8t-10 7t-12 8.5t-12 8q-64 41 -64 95
q0 39 29.5 65.5t75.5 26.5q52 0 85 -39t33 -111z" />
    <glyph glyph-name="kcommaaccent" unicode="&#x137;" horiz-adv-x="1132" 
d="M195 1427q0 33 -9 47.5t-44 23t-111 9.5v25q170 11 305 78v-1252q260 289 319 365q22 27 39 51q26 36 33.5 47t22 33t18.5 33.5t4 21.5q0 30 -25 41t-83 11h-31v24h385v-24h-35q-22 0 -38.5 -4.5t-50 -29t-75.5 -71.5q-11 -12 -95 -103.5t-140 -154.5
q46 -59 176.5 -229.5t202.5 -262.5q42 -51 76 -66t79 -15h15v-25h-482v25h66q88 0 88 47q0 23 -21 51l-286 379l-162 -176v-213q0 -53 18.5 -70.5t77.5 -17.5h68v-25h-469v25h65q61 0 80 17t19 71v1314zM627 -313q0 -80 -40.5 -163.5t-105.5 -154.5l-18 17q41 47 63.5 100.5
t22.5 91.5q0 15 -8 27t-17 18t-27.5 16.5t-27.5 16.5q-45 26 -45 82q0 35 25.5 59.5t66.5 24.5q48 0 79.5 -35t31.5 -100z" />
    <glyph glyph-name="Lacute" unicode="&#x139;" horiz-adv-x="1325" 
d="M700 25q230 0 369 41q149 44 197 161l32 123h27l-65 -350h-1166v25h72q133 0 133 110v1211q0 65 -29 87.5t-104 22.5h-70v25h584v-25h-78q-78 0 -103.5 -23t-25.5 -87v-1211q0 -43 14.5 -64.5t64 -33.5t148.5 -12zM776 1853q0 -39 -86 -94q-44 -28 -120 -74t-130 -78
l-55 -32h-49l272 268q43 42 65.5 55t49.5 13q25 0 39 -15t14 -43z" />
    <glyph glyph-name="lacute" unicode="&#x13a;" horiz-adv-x="530" 
d="M195 1427q0 33 -9 47.5t-44 23t-111 9.5v25q157 9 305 78v-1497q0 -49 18 -68.5t76 -19.5h70v-25h-469v25h65q54 0 76.5 20.5t22.5 67.5v1314zM618 1925q0 -39 -86 -94q-44 -28 -120 -74t-130 -78l-55 -32h-49l273 268q43 42 65 54.5t49 12.5q53 0 53 -57z" />
    <glyph glyph-name="Lcommaaccent" unicode="&#x13b;" horiz-adv-x="1325" 
d="M700 25q230 0 369 41q149 44 197 161l32 123h27l-65 -350h-1166v25h72q133 0 133 110v1211q0 65 -29 87.5t-104 22.5h-70v25h584v-25h-78q-78 0 -103.5 -23t-25.5 -87v-1211q0 -43 14.5 -64.5t64 -33.5t148.5 -12zM842 -328q0 -103 -55.5 -210.5t-141.5 -184.5l-18 18
q63 64 95 127.5t32 112.5q0 9 -1 17t-3.5 15.5l-4 12t-7.5 11t-8 9.5t-10.5 9t-10.5 8t-13.5 9t-13.5 9q-64 41 -64 95q0 39 29.5 65.5t75.5 26.5q52 0 85.5 -39t33.5 -111z" />
    <glyph glyph-name="lcommaaccent" unicode="&#x13c;" horiz-adv-x="530" 
d="M195 1427q0 33 -9 47.5t-44 23t-111 9.5v25q157 9 305 78v-1497q0 -49 18 -68.5t76 -19.5h70v-25h-469v25h65q54 0 76.5 20.5t22.5 67.5v1314zM369 -313q0 -80 -40.5 -163.5t-105.5 -154.5l-18 17q41 47 63.5 100.5t22.5 91.5q0 15 -8 27t-17 18t-27.5 16.5t-27.5 16.5
q-45 26 -45 82q0 35 25.5 59.5t66.5 24.5q48 0 79.5 -35t31.5 -100z" />
    <glyph glyph-name="Lcaron" unicode="&#x13d;" horiz-adv-x="1325" 
d="M700 25q230 0 369 41q149 44 197 161l32 123h27l-65 -350h-1166v25h72q133 0 133 110v1211q0 65 -29 87.5t-104 22.5h-70v25h584v-25h-78q-78 0 -103.5 -23t-25.5 -87v-1211q0 -43 14.5 -64.5t64 -33.5t148.5 -12zM1104 1372q0 -156 -146 -317l-18 16q40 47 63 101t23 92
q0 15 -8 27t-17.5 18t-27.5 16t-27 16q-45 26 -45 82q0 35 25.5 59.5t66.5 24.5q48 0 79.5 -35t31.5 -100z" />
    <glyph glyph-name="lcaron" unicode="&#x13e;" horiz-adv-x="657" 
d="M195 1427q0 33 -9 47.5t-44 23t-111 9.5v25q157 9 305 78v-1497q0 -49 18 -68.5t76 -19.5h70v-25h-469v25h65q54 0 76.5 20.5t22.5 67.5v1314zM510 1061l-21 14q78 126 78 250q0 102 -59 176l10 25h127q17 -61 17 -109q0 -169 -152 -356z" />
    <glyph glyph-name="Ldot" unicode="&#x13f;" horiz-adv-x="1325" 
d="M700 25q230 0 369 41q149 44 197 161l32 123h27l-65 -350h-1166v25h72q133 0 133 110v1211q0 65 -29 87.5t-104 22.5h-70v25h584v-25h-78q-78 0 -103.5 -23t-25.5 -87v-1211q0 -43 14.5 -64.5t64 -33.5t148.5 -12zM1047 752q0 -42 -28.5 -72.5t-74.5 -30.5q-44 0 -73 31
t-29 72q0 42 28.5 72t73.5 30q46 0 74.5 -29.5t28.5 -72.5z" />
    <glyph glyph-name="ldot" unicode="&#x140;" horiz-adv-x="628" 
d="M195 1427q0 33 -9 47.5t-44 23t-111 9.5v25q157 9 305 78v-1497q0 -49 18 -68.5t76 -19.5h70v-25h-469v25h65q54 0 76.5 20.5t22.5 67.5v1314zM702 782q0 -42 -28 -72t-74 -30q-44 0 -73 30.5t-29 71.5q0 42 28.5 72.5t73.5 30.5q46 0 74 -30t28 -73z" />
    <glyph glyph-name="Lslash" unicode="&#x141;" horiz-adv-x="1351" 
d="M727 25q230 0 369 41q148 43 196 161l33 123h27l-66 -350h-1165v25h72q133 0 133 110v475l-191 -159l-22 28l213 178v689q0 65 -29 87.5t-104 22.5h-70v25h584v-25h-78q-78 0 -103.5 -23t-25.5 -87v-543l315 264l23 -29l-338 -282v-621q0 -43 14.5 -64.5t64 -33.5
t148.5 -12z" />
    <glyph glyph-name="lslash" unicode="&#x142;" horiz-adv-x="612" 
d="M236 1427q0 33 -9 47.5t-44 23t-111 9.5v25q157 9 305 78v-846l184 154l21 -25l-205 -172v-608q0 -49 18 -68.5t76 -19.5h70v-25h-469v25h65q54 0 76.5 20.5t22.5 67.5v491l-185 -153l-20 26l205 170v780z" />
    <glyph glyph-name="Nacute" unicode="&#x143;" horiz-adv-x="1632" 
d="M1538 1456h-125q-70 -112 -70 -495v-990h-26l-1000 1241v-710q0 -369 70 -477h125v-25h-418v25h125q30 47 47 152t19 164.5t4 160.5v745q-23 30 -89 111.5t-96 122.5h218l993 -1243v784q0 133 -18.5 261.5t-49.5 172.5h-127v25h418v-25zM1104 1853q0 -39 -86 -94
q-44 -28 -120 -74t-130 -78l-55 -32h-49l272 268q43 42 65.5 55t49.5 13q25 0 39 -15t14 -43z" />
    <glyph glyph-name="nacute" unicode="&#x144;" horiz-adv-x="1161" 
d="M1130 0h-468v25h65q59 0 78.5 20t19.5 68v551q0 59 -8.5 106t-21 77.5t-32.5 53t-39 33.5t-45 17.5t-44.5 8t-44.5 1.5q-104 0 -254 -93v-755q0 -54 18 -71t78 -17h68v-25h-469v25h63q60 0 80.5 18t20.5 70v714q0 53 -27 67t-137 15v25q155 9 305 80v-117
q162 113 313 113q62 0 111.5 -13t82.5 -33t56.5 -51.5t36.5 -62t20 -72.5t9 -73.5t2 -73.5v-518q0 -48 19.5 -68t76.5 -20h67v-25zM909 1430q0 -40 -86 -95q-44 -28 -120 -74t-131 -78l-54 -32h-49l272 268q43 42 65.5 55t49.5 13q53 0 53 -57z" />
    <glyph glyph-name="Ncommaaccent" unicode="&#x145;" horiz-adv-x="1632" 
d="M1538 1456h-125q-70 -112 -70 -495v-990h-26l-1000 1241v-710q0 -369 70 -477h125v-25h-418v25h125q30 47 47 152t19 164.5t4 160.5v745q-23 30 -89 111.5t-96 122.5h218l993 -1243v784q0 133 -18.5 261.5t-49.5 172.5h-127v25h418v-25zM897 -328q0 -103 -55.5 -210.5
t-141.5 -184.5l-18 18q63 64 95 127.5t32 112.5q0 9 -1 17t-3.5 15.5l-4 12t-7.5 11t-8 9.5t-10.5 9t-10.5 8t-13.5 9t-13.5 9q-63 40 -63 95q0 39 29 65.5t75 26.5q52 0 85.5 -39t33.5 -111z" />
    <glyph glyph-name="ncommaaccent" unicode="&#x146;" horiz-adv-x="1161" 
d="M1130 0h-468v25h65q59 0 78.5 20t19.5 68v551q0 59 -8.5 106t-21 77.5t-32.5 53t-39 33.5t-45 17.5t-44.5 8t-44.5 1.5q-104 0 -254 -93v-755q0 -54 18 -71t78 -17h68v-25h-469v25h63q60 0 80.5 18t20.5 70v714q0 53 -27 67t-137 15v25q155 9 305 80v-117
q162 113 313 113q62 0 111.5 -13t82.5 -33t56.5 -51.5t36.5 -62t20 -72.5t9 -73.5t2 -73.5v-518q0 -48 19.5 -68t76.5 -20h67v-25zM668 -313q0 -80 -40.5 -163.5t-105.5 -154.5l-18 17q41 47 63.5 100.5t22.5 91.5q0 15 -8 27t-17 18t-27.5 16.5t-27.5 16.5q-45 26 -45 82
q0 35 25.5 59.5t66.5 24.5q48 0 79.5 -35t31.5 -100z" />
    <glyph glyph-name="Ncaron" unicode="&#x147;" horiz-adv-x="1632" 
d="M1538 1456h-125q-70 -112 -70 -495v-990h-26l-1000 1241v-710q0 -369 70 -477h125v-25h-418v25h125q30 47 47 152t19 164.5t4 160.5v745q-23 30 -89 111.5t-96 122.5h218l993 -1243v784q0 133 -18.5 261.5t-49.5 172.5h-127v25h418v-25zM938 1786l125 94h29
q-61 -61 -123 -135q-29 -33 -64.5 -79t-56.5 -76l-21 -29h-61q-78 110 -141 184q-84 97 -125 135h30q76 -53 125 -94l142 -115q77 67 141 115z" />
    <glyph glyph-name="ncaron" unicode="&#x148;" horiz-adv-x="1161" 
d="M1130 0h-468v25h65q59 0 78.5 20t19.5 68v551q0 59 -8.5 106t-21 77.5t-32.5 53t-39 33.5t-45 17.5t-44.5 8t-44.5 1.5q-104 0 -254 -93v-755q0 -54 18 -71t78 -17h68v-25h-469v25h63q60 0 80.5 18t20.5 70v714q0 53 -27 67t-137 15v25q155 9 305 80v-117
q162 113 313 113q62 0 111.5 -13t82.5 -33t56.5 -51.5t36.5 -62t20 -72.5t9 -73.5t2 -73.5v-518q0 -48 19.5 -68t76.5 -20h67v-25zM676 1382l125 95h28q-49 -49 -122 -136q-29 -33 -64.5 -79t-56.5 -76l-21 -29h-61q-79 110 -142 184q-93 107 -124 136h30q76 -54 125 -95
l142 -114q69 60 141 114z" />
    <glyph glyph-name="Omacron" unicode="&#x14c;" horiz-adv-x="1777" 
d="M1657 743q0 -68 -11.5 -139t-38 -147.5t-66.5 -145.5t-102.5 -132t-139.5 -108.5t-183 -72.5t-229 -27q-122 0 -227 27t-181.5 72.5t-138.5 108.5t-102 132t-67 145.5t-38.5 147.5t-11.5 139q0 72 12.5 145.5t41 149.5t70.5 145t104.5 129.5t139 105t179 70t219.5 25.5
q165 0 298.5 -47t220 -123t144.5 -178t82.5 -207t24.5 -215zM1466 743q0 216 -65 382.5t-197.5 265t-316.5 98.5q-275 0 -425.5 -201t-150.5 -545q0 -116 22.5 -224t70 -203.5t115 -166.5t162 -112t206.5 -41q114 0 210 41t163 112t114 166.5t69.5 203.5t22.5 224z
M1188 1604h-596v32h596v-32z" />
    <glyph glyph-name="omacron" unicode="&#x14d;" 
d="M1030 492q0 -230 -137.5 -372.5t-351.5 -142.5t-352 141.5t-138 373.5q0 251 135.5 384.5t354.5 133.5q223 0 356 -129.5t133 -388.5zM864 492q0 110 -18 196.5t-48 141.5t-72.5 90.5t-87.5 50t-97 14.5q-65 0 -120.5 -24.5t-102.5 -79t-74 -153.5t-27 -236
q0 -109 18 -195t48.5 -140.5t73 -90t87.5 -50t97 -14.5t97 14.5t87.5 50t72.5 90t48 140t18 195.5zM842 1178h-596v32h596v-32z" />
    <glyph glyph-name="Ohungarumlaut" unicode="&#x150;" horiz-adv-x="1777" 
d="M1657 743q0 -68 -11.5 -139t-38 -147.5t-66.5 -145.5t-102.5 -132t-139.5 -108.5t-183 -72.5t-229 -27q-122 0 -227 27t-181.5 72.5t-138.5 108.5t-102 132t-67 145.5t-38.5 147.5t-11.5 139q0 72 12.5 145.5t41 149.5t70.5 145t104.5 129.5t139 105t179 70t219.5 25.5
q165 0 298.5 -47t220 -123t144.5 -178t82.5 -207t24.5 -215zM1466 743q0 216 -65 382.5t-197.5 265t-316.5 98.5q-275 0 -425.5 -201t-150.5 -545q0 -116 22.5 -224t70 -203.5t115 -166.5t162 -112t206.5 -41q114 0 210 41t163 112t114 166.5t69.5 203.5t22.5 224z
M1030 1853q0 -39 -86 -94q-44 -28 -120 -74t-130 -78l-55 -32h-49l272 268q43 42 65.5 55t49.5 13q25 0 39 -15t14 -43zM1380 1853q0 -39 -86 -94q-44 -28 -120 -74t-130 -78l-55 -32h-49l272 268q43 42 65.5 55t49.5 13q25 0 39 -15t14 -43z" />
    <glyph glyph-name="ohungarumlaut" unicode="&#x151;" 
d="M1030 492q0 -230 -137.5 -372.5t-351.5 -142.5t-352 141.5t-138 373.5q0 251 135.5 384.5t354.5 133.5q223 0 356 -129.5t133 -388.5zM864 492q0 110 -18 196.5t-48 141.5t-72.5 90.5t-87.5 50t-97 14.5q-65 0 -120.5 -24.5t-102.5 -79t-74 -153.5t-27 -236
q0 -109 18 -195t48.5 -140.5t73 -90t87.5 -50t97 -14.5t97 14.5t87.5 50t72.5 90t48 140t18 195.5zM702 1430q0 -40 -86 -95q-44 -28 -120 -74t-130 -78l-55 -32h-49l273 268q44 42 65.5 55t48.5 13q53 0 53 -57zM1059 1430q0 -40 -86 -95q-44 -28 -120 -74t-131 -78
l-54 -32h-50l273 268q43 42 65.5 55t49.5 13q53 0 53 -57z" />
    <glyph glyph-name="OE" unicode="&#x152;" horiz-adv-x="2349" 
d="M1290 86v1319q-175 84 -405 84q-187 0 -321.5 -92.5t-203.5 -260t-69 -393.5q0 -116 22.5 -224t69.5 -203.5t114 -166.5t162 -112t207 -41q305 0 424 90zM2249 0h-885q-76 0 -254 -14q-35 -2 -91.5 -6t-93.5 -6.5t-59 -2.5q-123 0 -228 24.5t-182 67.5t-139 102.5
t-102 127t-66.5 145.5t-37.5 152.5t-11 152.5q0 72 11.5 145t38.5 150t67 145t101 129t136 105.5t176.5 70t219.5 25.5q117 0 317 -16q192 -16 297 -16h756l18 -310h-24l-23 170q-40 53 -183.5 84t-315.5 31q-98 0 -144.5 -9t-65 -32t-18.5 -72v-555h115q115 0 195.5 9.5
t119.5 21.5t60 33.5t23.5 34.5t2.5 35v45h25v-381h-25v49q0 23 -2.5 35.5t-23.5 33t-60.5 31.5t-119.5 20t-195 9h-115v-629q0 -66 34.5 -88t96.5 -22q316 0 471 41q83 23 126 61.5t67 95.5l25 92h24z" />
    <glyph glyph-name="oe" unicode="&#x153;" horiz-adv-x="1757" 
d="M1321 1010q96 0 171.5 -38t120 -101t68 -138.5t25.5 -157.5h-676q1 -137 21 -239.5t50.5 -160t75.5 -92.5t85.5 -45.5t89.5 -10.5q98 0 177 48t148 154l21 -14q-65 -112 -156.5 -175t-228.5 -63q-114 0 -214 53t-157 173q-61 -105 -165.5 -165.5t-235.5 -60.5
q-214 0 -352 141.5t-138 373.5q0 251 135.5 384.5t354.5 133.5q139 0 244 -57t165 -167q58 105 153.5 164.5t217.5 59.5zM864 492q0 110 -18 196.5t-48 141.5t-72.5 90.5t-87.5 50t-97 14.5q-65 0 -120.5 -24.5t-102.5 -79t-74 -153.5t-27 -236q0 -109 18 -195t48.5 -140.5
t73 -90t87.5 -50t97 -14.5t97 14.5t87.5 50t72.5 90t48 140t18 195.5zM1030 600h520q0 107 -24.5 191.5t-82 139t-140.5 54.5q-119 0 -189.5 -96t-83.5 -289z" />
    <glyph glyph-name="Racute" unicode="&#x154;" horiz-adv-x="1531" 
d="M1417 20q38 0 58 39t22 86h25q-1 -23 -3.5 -42t-13.5 -45t-28.5 -43.5t-51 -30.5t-79.5 -13q-51 0 -96.5 21t-81.5 55t-73 92t-66 117.5t-66 144.5q-73 170 -201 270t-291 91v-627q0 -57 30.5 -83.5t98.5 -26.5h76v-25h-582v25h70q72 0 102.5 26t30.5 84v1211
q0 70 -28.5 90t-104.5 20h-70v25h232q71 -1 223.5 10.5t216.5 11.5q137 0 240.5 -23.5t163 -59.5t96.5 -87.5t49 -99.5t12 -103q0 -124 -77.5 -215t-204.5 -136t-285 -46q284 -89 432 -354q32 -56 113 -234q36 -77 59 -100q26 -24 53 -25zM1137 1120q0 176 -105 267.5
t-289 91.5q-151 0 -272 -56v-637l109 -10q110 -12 168 -12q175 0 282 99.5t107 256.5zM1104 1853q0 -39 -86 -94q-44 -28 -120 -74t-130 -78l-55 -32h-49l272 268q43 42 65.5 55t49.5 13q25 0 39 -15t14 -43z" />
    <glyph glyph-name="racute" unicode="&#x155;" horiz-adv-x="792" 
d="M195 827q0 53 -27 67t-137 15v25q156 11 305 80v-207q38 98 106.5 150.5t155.5 52.5q74 0 114 -37.5t40 -85.5q0 -46 -25 -70t-59 -24q-31 0 -53.5 17t-22.5 46q0 8 2 24t2 23q0 30 -16.5 44t-55.5 14q-69 0 -128.5 -97t-59.5 -194v-557q0 -52 19 -70t81 -18h64v-25h-469
v25h65q60 0 79.5 18t19.5 70v714zM764 1430q0 -40 -86 -95q-44 -28 -120 -74t-130 -78l-55 -32h-49l272 268q43 42 65.5 55t49.5 13q53 0 53 -57z" />
    <glyph glyph-name="Rcommaaccent" unicode="&#x156;" horiz-adv-x="1531" 
d="M1417 20q38 0 58 39t22 86h25q-1 -23 -3.5 -42t-13.5 -45t-28.5 -43.5t-51 -30.5t-79.5 -13q-51 0 -96.5 21t-81.5 55t-73 92t-66 117.5t-66 144.5q-73 170 -201 270t-291 91v-627q0 -57 30.5 -83.5t98.5 -26.5h76v-25h-582v25h70q72 0 102.5 26t30.5 84v1211
q0 70 -28.5 90t-104.5 20h-70v25h232q71 -1 223.5 10.5t216.5 11.5q137 0 240.5 -23.5t163 -59.5t96.5 -87.5t49 -99.5t12 -103q0 -124 -77.5 -215t-204.5 -136t-285 -46q284 -89 432 -354q32 -56 113 -234q36 -77 59 -100q26 -24 53 -25zM1137 1120q0 176 -105 267.5
t-289 91.5q-151 0 -272 -56v-637l109 -10q110 -12 168 -12q175 0 282 99.5t107 256.5zM946 -328q0 -104 -55.5 -211t-140.5 -184l-19 18q63 64 95 127.5t32 112.5q0 9 -1 17t-3.5 15.5l-4 12t-7.5 11t-8 9.5t-10.5 9t-10.5 8t-13.5 9t-13.5 9q-63 40 -63 95q0 39 29 65.5
t75 26.5q52 0 85.5 -39t33.5 -111z" />
    <glyph glyph-name="rcommaaccent" unicode="&#x157;" horiz-adv-x="792" 
d="M195 827q0 53 -27 67t-137 15v25q156 11 305 80v-207q38 98 106.5 150.5t155.5 52.5q74 0 114 -37.5t40 -85.5q0 -46 -25 -70t-59 -24q-31 0 -53.5 17t-22.5 46q0 8 2 24t2 23q0 30 -16.5 44t-55.5 14q-69 0 -128.5 -97t-59.5 -194v-557q0 -52 19 -70t81 -18h64v-25h-469
v25h65q60 0 79.5 18t19.5 70v714zM369 -313q0 -80 -40.5 -163.5t-105.5 -154.5l-18 17q41 47 63.5 100.5t22.5 91.5q0 15 -8 27t-17 18t-27.5 16.5t-27.5 16.5q-45 26 -45 82q0 35 25.5 59.5t66.5 24.5q48 0 79.5 -35t31.5 -100z" />
    <glyph glyph-name="Rcaron" unicode="&#x158;" horiz-adv-x="1531" 
d="M1417 20q38 0 58 39t22 86h25q-1 -23 -3.5 -42t-13.5 -45t-28.5 -43.5t-51 -30.5t-79.5 -13q-51 0 -96.5 21t-81.5 55t-73 92t-66 117.5t-66 144.5q-73 170 -201 270t-291 91v-627q0 -57 30.5 -83.5t98.5 -26.5h76v-25h-582v25h70q72 0 102.5 26t30.5 84v1211
q0 70 -28.5 90t-104.5 20h-70v25h232q71 -1 223.5 10.5t216.5 11.5q137 0 240.5 -23.5t163 -59.5t96.5 -87.5t49 -99.5t12 -103q0 -124 -77.5 -215t-204.5 -136t-285 -46q284 -89 432 -354q32 -56 113 -234q36 -77 59 -100q26 -24 53 -25zM1137 1120q0 176 -105 267.5
t-289 91.5q-151 0 -272 -56v-637l109 -10q110 -12 168 -12q175 0 282 99.5t107 256.5zM846 1786l125 94h28q-55 -55 -122 -135q-29 -33 -64.5 -79t-56.5 -76l-21 -29h-61q-79 110 -142 184q-88 102 -124 135h30q76 -53 125 -94l142 -115q77 67 141 115z" />
    <glyph glyph-name="rcaron" unicode="&#x159;" horiz-adv-x="792" 
d="M195 827q0 53 -27 67t-137 15v25q156 11 305 80v-207q38 98 106.5 150.5t155.5 52.5q74 0 114 -37.5t40 -85.5q0 -46 -25 -70t-59 -24q-31 0 -53.5 17t-22.5 46q0 8 2 24t2 23q0 30 -16.5 44t-55.5 14q-69 0 -128.5 -97t-59.5 -194v-557q0 -52 19 -70t81 -18h64v-25h-469
v25h65q60 0 79.5 18t19.5 70v714zM506 1382l125 95h28q-49 -49 -122 -136q-29 -33 -64.5 -79t-56.5 -76l-21 -29h-61q-78 110 -141 184q-89 102 -125 136h30q76 -54 125 -95l142 -114q69 60 141 114z" />
    <glyph glyph-name="Sacute" unicode="&#x15a;" horiz-adv-x="1208" 
d="M1102 371q0 -167 -131 -283.5t-357 -116.5q-242 0 -471 113q0 -15 1 -43t1 -41h-24l-31 397h25l10 -88q60 -127 193 -220t294 -93q173 0 256.5 82t83.5 203q0 225 -387 421q-66 36 -109 61t-97.5 61t-88.5 70t-65.5 76t-46.5 90.5t-15 102.5q0 72 23 132t72.5 110.5
t140 79t213.5 28.5q213 0 399 -104v72h25l20 -359h-24l-6 78q-11 41 -30 79t-52.5 77.5t-77 68t-107.5 46.5t-141 18q-92 0 -155.5 -18.5t-95 -52.5t-44 -71t-12.5 -85q0 -58 21 -109.5t52.5 -89.5t85 -77.5t101 -66.5t117.5 -63q55 -29 91.5 -50t86 -53t82.5 -59.5
t69 -65.5t57 -75.5t34.5 -84.5t13.5 -97zM932 1853q0 -39 -86 -94q-44 -28 -120 -74t-130 -78l-55 -32h-49l272 268q43 42 65.5 55t49.5 13q25 0 39 -15t14 -43z" />
    <glyph glyph-name="sacute" unicode="&#x15b;" horiz-adv-x="849" 
d="M768 260q0 -125 -86.5 -204t-251.5 -79q-145 0 -313 80v-57h-25l-10 266h24q30 -113 129 -188.5t205 -75.5q91 0 147 60t56 139q0 38 -15 70.5t-44 58.5t-54.5 43t-62.5 37l-143 79q-113 64 -161 122.5t-48 142.5q0 68 27.5 119.5t72 80t93.5 42.5t100 14q129 0 276 -78
v53h25l10 -268h-25l-2 45q-15 37 -35 69.5t-53 70.5t-83 60.5t-109 22.5q-80 0 -123 -47t-43 -111q0 -100 92 -159q42 -26 145 -76q140 -69 212.5 -144t72.5 -188zM764 1430q0 -40 -86 -95q-44 -28 -120 -74t-130 -78l-55 -32h-49l272 268q43 42 65.5 55t49.5 13
q53 0 53 -57z" />
    <glyph glyph-name="Scedilla" unicode="&#x15e;" horiz-adv-x="1208" 
d="M1102 371q0 -167 -131 -283.5t-357 -116.5h-8l-49 -118q53 20 113 20q73 0 130.5 -38t57.5 -109q0 -89 -79.5 -143t-200.5 -54q-102 0 -187 45l10 23q75 -43 162 -43q78 0 120 47.5t42 105.5q0 57 -32 88t-89 31q-32 0 -67 -12l-19 14l57 143q-211 5 -432 113
q0 -15 1 -43t1 -41h-24l-31 397h25l10 -88q60 -127 193 -220t294 -93q173 0 256.5 82t83.5 203q0 225 -387 421q-66 36 -109 61t-97.5 61t-88.5 70t-65.5 76t-46.5 90.5t-15 102.5q0 72 23 132t72.5 110.5t140 79t213.5 28.5q213 0 399 -104v72h25l20 -359h-24l-6 78
q-11 41 -30 79t-52.5 77.5t-77 68t-107.5 46.5t-141 18q-92 0 -155.5 -18.5t-95 -52.5t-44 -71t-12.5 -85q0 -58 21 -109.5t52.5 -89.5t85 -77.5t101 -66.5t117.5 -63q55 -29 91.5 -50t86 -53t82.5 -59.5t69 -65.5t57 -75.5t34.5 -84.5t13.5 -97z" />
    <glyph glyph-name="scedilla" unicode="&#x15f;" horiz-adv-x="849" 
d="M768 260q0 -125 -86.5 -204t-251.5 -79h-10l-45 -106q43 14 106 14q68 0 117 -31.5t49 -95.5q0 -77 -74.5 -123.5t-179.5 -46.5q-101 0 -178 39l10 23q69 -37 156 -37q78 0 113.5 38t35.5 93q0 54 -26.5 78t-83.5 24q-26 0 -66 -12l-16 14l53 132q-141 10 -274 77v-57
h-25l-10 266h24q30 -113 129 -188.5t205 -75.5q91 0 147 60t56 139q0 38 -15 70.5t-44 58.5t-54.5 43t-62.5 37l-143 79q-113 64 -161 122.5t-48 142.5q0 68 27.5 119.5t72 80t93.5 42.5t100 14q129 0 276 -78v53h25l10 -268h-25l-2 45q-15 37 -35 69.5t-53 70.5t-83 60.5
t-109 22.5q-80 0 -123 -47t-43 -111q0 -100 92 -159q42 -26 145 -76q140 -69 212.5 -144t72.5 -188z" />
    <glyph glyph-name="Scaron" unicode="&#x160;" horiz-adv-x="1208" 
d="M1102 371q0 -167 -131 -283.5t-357 -116.5q-242 0 -471 113q0 -15 1 -43t1 -41h-24l-31 397h25l10 -88q60 -127 193 -220t294 -93q173 0 256.5 82t83.5 203q0 225 -387 421q-66 36 -109 61t-97.5 61t-88.5 70t-65.5 76t-46.5 90.5t-15 102.5q0 72 23 132t72.5 110.5
t140 79t213.5 28.5q213 0 399 -104v72h25l20 -359h-24l-6 78q-11 41 -30 79t-52.5 77.5t-77 68t-107.5 46.5t-141 18q-92 0 -155.5 -18.5t-95 -52.5t-44 -71t-12.5 -85q0 -58 21 -109.5t52.5 -89.5t85 -77.5t101 -66.5t117.5 -63q55 -29 91.5 -50t86 -53t82.5 -59.5
t69 -65.5t57 -75.5t34.5 -84.5t13.5 -97zM737 1786l125 94h29q-61 -61 -123 -135q-29 -33 -64.5 -79t-55.5 -76l-21 -29h-62q-78 110 -141 184q-84 97 -125 135h31q76 -53 125 -94l141 -115q77 67 141 115z" />
    <glyph glyph-name="scaron" unicode="&#x161;" horiz-adv-x="849" 
d="M768 260q0 -125 -86.5 -204t-251.5 -79q-145 0 -313 80v-57h-25l-10 266h24q30 -113 129 -188.5t205 -75.5q91 0 147 60t56 139q0 38 -15 70.5t-44 58.5t-54.5 43t-62.5 37l-143 79q-113 64 -161 122.5t-48 142.5q0 68 27.5 119.5t72 80t93.5 42.5t100 14q129 0 276 -78
v53h25l10 -268h-25l-2 45q-15 37 -35 69.5t-53 70.5t-83 60.5t-109 22.5q-80 0 -123 -47t-43 -111q0 -100 92 -159q42 -26 145 -76q140 -69 212.5 -144t72.5 -188zM571 1382l125 95h29q-56 -56 -123 -136q-29 -33 -64.5 -79t-55.5 -76l-21 -29h-62q-78 110 -141 184
q-89 102 -125 136h31q76 -54 125 -95l141 -114q69 60 141 114z" />
    <glyph glyph-name="Tcedilla" unicode="&#x162;" horiz-adv-x="1366" 
d="M653 -471q-101 0 -186 45l10 23q75 -43 162 -43q78 0 120 47.5t42 105.5q0 57 -32 88t-89 31q-33 0 -68 -12l-18 14l68 172h-273v25h72q80 0 106.5 23t26.5 87v1251q0 32 -23.5 51t-93.5 19q-168 0 -265.5 -30t-145.5 -117v2l-21 -160h-25l19 330h1284l23 -330h-25
l-18 158q-48 83 -151.5 115t-264.5 32q-70 0 -94.5 -18t-24.5 -49v-1254q0 -63 25.5 -86.5t111.5 -23.5h68v-25h-281l-59 -147q53 20 112 20q73 0 131 -38t58 -109q0 -89 -80 -143t-201 -54z" />
    <glyph glyph-name="tcedilla" unicode="&#x163;" horiz-adv-x="782" 
d="M455 -412q-102 0 -179 39l11 23q69 -37 155 -37q78 0 114 38.5t36 92.5t-27 78t-84 24q-25 0 -65 -12l-17 14l56 132q-118 13 -179 89t-61 207v685h-205v24h62q70 12 122 57.5t80 111.5t41.5 136t14.5 144h26v-449h56q186 0 282 21l11 -45h-349v-715q0 -180 127 -213h23
l-2 -4q10 -2 35 -2q28 0 56.5 8.5t62 29t65.5 61.5t57 99l23 -10q-16 -45 -41.5 -85t-62 -75.5t-87.5 -56.5t-110 -21h-21l-45 -106q43 14 107 14q68 0 117 -31.5t49 -95.5q0 -77 -74.5 -123.5t-179.5 -46.5z" />
    <glyph glyph-name="Tcaron" unicode="&#x164;" horiz-adv-x="1366" 
d="M39 1481h1284l23 -330h-25l-18 158q-48 83 -151.5 115t-264.5 32q-70 0 -94.5 -18t-24.5 -49v-1254q0 -63 25.5 -86.5t111.5 -23.5h68v-25h-584v25h72q80 0 106.5 23t26.5 87v1251q0 32 -23.5 51t-93.5 19q-168 0 -265.5 -30t-145.5 -117v2l-21 -160h-25zM821 1786
l125 94h29q-61 -61 -123 -135q-29 -33 -64.5 -79t-55.5 -76l-21 -29h-62q-78 110 -141 184q-84 97 -125 135h31q76 -53 125 -94l141 -115q77 67 141 115z" />
    <glyph glyph-name="tcaron" unicode="&#x165;" horiz-adv-x="782" 
d="M539 27q28 0 56.5 8.5t62 29t65.5 61.5t57 99l23 -10q-16 -45 -41.5 -85t-62 -75.5t-87.5 -56.5t-110 -21q-140 0 -213.5 77.5t-73.5 221.5v685h-205v24h62q70 12 122 57.5t80 111.5t41.5 136t14.5 144h26v-449h56q186 0 282 21l11 -45h-349v-715q0 -117 52 -168t131 -51
zM532 1061l-20 14q78 126 78 250q0 101 -60 176l11 25h127q16 -57 16 -109q0 -169 -152 -356z" />
    <glyph glyph-name="Umacron" unicode="&#x16a;" horiz-adv-x="1656" 
d="M1595 1456h-120q-35 -62 -49.5 -160t-20.5 -295v-354q0 -119 -16 -216t-54.5 -183t-100 -143.5t-156 -91t-218.5 -33.5q-122 0 -219.5 23.5t-158.5 57t-105 87t-64.5 96.5t-32 104t-13 90.5t-1.5 73.5v4v830q0 58 -33 84t-104 26h-68v25h584v-25h-76q-129 0 -129 -110
v-865q0 -111 31.5 -198t77.5 -136.5t106 -81.5t110 -42.5t97 -10.5q121 0 212 33.5t148 89.5t92 139t48.5 172.5t13.5 200.5v373q0 171 -22 288t-45 148h-125v25h411v-25zM1206 1604h-596v32h596v-32z" />
    <glyph glyph-name="umacron" unicode="&#x16b;" horiz-adv-x="1155" 
d="M1124 0h-305v111q-167 -134 -334 -134q-68 0 -120.5 19t-84 49t-51.5 71.5t-27 81.5t-7 85v544q0 37 -9.5 52t-42.5 22t-112 8v25q164 9 305 80v-735q0 -67 16 -116.5t38 -74.5t55.5 -40t58.5 -18t57 -3q58 0 128.5 32.5t129.5 79.5v688q0 37 -9.5 52t-42.5 22t-112 8v25
q153 11 306 80v-901q0 -46 20 -67t78 -21h65v-25zM862 1178h-596v32h596v-32z" />
    <glyph glyph-name="Uring" unicode="&#x16e;" horiz-adv-x="1656" 
d="M1595 1456h-120q-35 -62 -49.5 -160t-20.5 -295v-354q0 -119 -16 -216t-54.5 -183t-100 -143.5t-156 -91t-218.5 -33.5q-122 0 -219.5 23.5t-158.5 57t-105 87t-64.5 96.5t-32 104t-13 90.5t-1.5 73.5v4v830q0 58 -33 84t-104 26h-68v25h584v-25h-76q-129 0 -129 -110
v-865q0 -111 31.5 -198t77.5 -136.5t106 -81.5t110 -42.5t97 -10.5q121 0 212 33.5t148 89.5t92 139t48.5 172.5t13.5 200.5v373q0 171 -22 288t-45 148h-125v25h411v-25zM727 1702q0 74 51.5 126t124.5 52t125.5 -52t52.5 -126q0 -72 -52.5 -124t-125.5 -52t-124.5 52
t-51.5 124zM760 1702q0 -59 41.5 -101t101.5 -42q61 0 103.5 42t42.5 101q0 60 -42.5 102.5t-103.5 42.5q-60 0 -101.5 -42.5t-41.5 -102.5z" />
    <glyph glyph-name="uring" unicode="&#x16f;" horiz-adv-x="1155" 
d="M1124 0h-305v111q-167 -134 -334 -134q-68 0 -120.5 19t-84 49t-51.5 71.5t-27 81.5t-7 85v544q0 37 -9.5 52t-42.5 22t-112 8v25q164 9 305 80v-735q0 -67 16 -116.5t38 -74.5t55.5 -40t58.5 -18t57 -3q58 0 128.5 32.5t129.5 79.5v688q0 37 -9.5 52t-42.5 22t-112 8v25
q153 11 306 80v-901q0 -46 20 -67t78 -21h65v-25zM389 1290q0 74 51.5 126t124.5 52t125.5 -52t52.5 -126q0 -72 -52.5 -124t-125.5 -52t-124.5 52t-51.5 124zM422 1290q0 -59 41.5 -101t101.5 -42q61 0 103.5 42t42.5 101q0 60 -42.5 103t-103.5 43q-60 0 -101.5 -43
t-41.5 -103z" />
    <glyph glyph-name="Uhungarumlaut" unicode="&#x170;" horiz-adv-x="1656" 
d="M1595 1456h-120q-35 -62 -49.5 -160t-20.5 -295v-354q0 -119 -16 -216t-54.5 -183t-100 -143.5t-156 -91t-218.5 -33.5q-122 0 -219.5 23.5t-158.5 57t-105 87t-64.5 96.5t-32 104t-13 90.5t-1.5 73.5v4v830q0 58 -33 84t-104 26h-68v25h584v-25h-76q-129 0 -129 -110
v-865q0 -111 31.5 -198t77.5 -136.5t106 -81.5t110 -42.5t97 -10.5q121 0 212 33.5t148 89.5t92 139t48.5 172.5t13.5 200.5v373q0 171 -22 288t-45 148h-125v25h411v-25zM1053 1853q0 -39 -86 -94q-44 -28 -120 -74t-131 -78l-54 -32h-50l273 268q44 42 65.5 55t48.5 13
q25 0 39.5 -15.5t14.5 -42.5zM1403 1853q0 -39 -86 -94q-44 -28 -120 -74t-131 -78l-54 -32h-49l272 268q43 42 65.5 55t49.5 13q25 0 39 -15t14 -43z" />
    <glyph glyph-name="uhungarumlaut" unicode="&#x171;" horiz-adv-x="1155" 
d="M1124 0h-305v111q-167 -134 -334 -134q-68 0 -120.5 19t-84 49t-51.5 71.5t-27 81.5t-7 85v544q0 37 -9.5 52t-42.5 22t-112 8v25q164 9 305 80v-735q0 -67 16 -116.5t38 -74.5t55.5 -40t58.5 -18t57 -3q58 0 128.5 32.5t129.5 79.5v688q0 37 -9.5 52t-42.5 22t-112 8v25
q153 11 306 80v-901q0 -46 20 -67t78 -21h65v-25zM700 1430q0 -40 -86 -95q-44 -28 -120 -74t-130 -78l-55 -32h-49l272 268q43 42 65.5 55t49.5 13q53 0 53 -57zM1057 1430q0 -40 -86 -95q-44 -28 -120 -74t-131 -78l-54 -32h-50l273 268q43 42 65.5 55t49.5 13
q53 0 53 -57z" />
    <glyph glyph-name="Uogonek" unicode="&#x172;" horiz-adv-x="1656" 
d="M1595 1456h-120q-35 -62 -49.5 -160t-20.5 -295v-354q0 -116 -15 -211t-51.5 -179t-94 -142t-146.5 -93.5t-205 -39.5q-47 -86 -47 -166q0 -53 31 -85t88 -32q79 0 176 82l16 -19q-129 -122 -260 -122q-70 0 -109.5 38.5t-39.5 98.5q0 95 98 203q-94 1 -172.5 16
t-134.5 37t-101 57.5t-73 68t-48 78t-29.5 77.5t-15 77t-6 66t-0.5 55v4v830q0 58 -33 84t-104 26h-68v25h584v-25h-76q-129 0 -129 -110v-865q0 -111 31.5 -198t77.5 -136.5t106 -81.5t110 -42.5t97 -10.5q121 0 212 33.5t148 89.5t92 139t48.5 172.5t13.5 200.5v373
q0 171 -22 288t-45 148h-125v25h411v-25z" />
    <glyph glyph-name="uogonek" unicode="&#x173;" horiz-adv-x="1155" 
d="M1030 -252q35 0 76.5 20.5t73.5 51.5l16 -19q-106 -106 -217 -106q-61 0 -95 33t-34 86q0 89 90 186h-121v111q-167 -134 -334 -134q-68 0 -120.5 19t-84 49t-51.5 71.5t-27 81.5t-7 85v544q0 37 -9.5 52t-42.5 22t-112 8v25q164 9 305 80v-735q0 -67 16 -116.5t38 -74.5
t55.5 -40t58.5 -18t57 -3q58 0 128.5 32.5t129.5 79.5v688q0 37 -9.5 52t-42.5 22t-112 8v25q153 11 306 80v-901q0 -46 20 -67t78 -21h65v-25h-145q-49 -74 -49 -156q0 -45 25.5 -70.5t74.5 -25.5z" />
    <glyph glyph-name="Ydieresis" unicode="&#x178;" horiz-adv-x="1486" 
d="M1487 1456h-64q-99 -50 -178 -190l-196 -326l-199 -328v-477q0 -58 31 -84t104 -26h70v-25h-582v25h70q73 0 103 27t30 83v461q-72 119 -218.5 359.5t-217.5 359.5q-19 30 -31.5 46.5t-40 41t-69.5 37.5t-99 16v25h567v-25h-82q-57 0 -72.5 -33t15.5 -80l410 -696
l182 305q108 184 137 240q74 148 74 199q0 34 -22.5 49.5t-73.5 15.5h-60v25h412v-25zM715 1663q0 -41 -28.5 -71.5t-74.5 -30.5q-44 0 -73 30.5t-29 71.5q0 42 28.5 72t73.5 30q46 0 74.5 -29.5t28.5 -72.5zM1110 1663q0 -42 -28 -72t-74 -30q-44 0 -73.5 30.5t-29.5 71.5
q0 42 29 72t74 30q46 0 74 -29.5t28 -72.5z" />
    <glyph glyph-name="Zacute" unicode="&#x179;" horiz-adv-x="1343" 
d="M295 25h170q353 0 524 43q83 21 128 61t73 96l35 125h24l-37 -207l-28 -143h-1090v31l897 1425h-243q-187 0 -294.5 -16.5t-156.5 -45.5t-86 -83l-18 -160h-25l18 330h1010v-37zM1053 1853q0 -39 -86 -94q-44 -28 -120 -74t-131 -78l-54 -32h-50l273 268q44 42 65.5 55
t48.5 13q25 0 39.5 -15.5t14.5 -42.5z" />
    <glyph glyph-name="zacute" unicode="&#x17a;" horiz-adv-x="833" 
d="M813 242l-18 -242h-775v31l629 930q-116 0 -193 -4t-154 -15.5t-124.5 -37t-68.5 -64.5q-1 -16 -5.5 -50.5t-5.5 -48.5h-24l16 244h721v-27l-623 -933h129q107 0 198 11t171 45.5t94 90.5l8 70h25zM764 1430q0 -40 -86 -95q-44 -28 -120 -74t-130 -78l-55 -32h-49
l272 268q43 42 65.5 55t49.5 13q53 0 53 -57z" />
    <glyph glyph-name="Zdotaccent" unicode="&#x17b;" horiz-adv-x="1343" 
d="M295 25h170q353 0 524 43q83 21 128 61t73 96l35 125h24l-37 -207l-28 -143h-1090v31l897 1425h-243q-187 0 -294.5 -16.5t-156.5 -45.5t-86 -83l-18 -160h-25l18 330h1010v-37zM788 1708q0 -42 -28 -72t-74 -30q-44 0 -73 30.5t-29 71.5q0 42 28.5 72t73.5 30
q46 0 74 -29.5t28 -72.5z" />
    <glyph glyph-name="zdotaccent" unicode="&#x17c;" horiz-adv-x="833" 
d="M813 242l-18 -242h-775v31l629 930q-116 0 -193 -4t-154 -15.5t-124.5 -37t-68.5 -64.5q-1 -16 -5.5 -50.5t-5.5 -48.5h-24l16 244h721v-27l-623 -933h129q107 0 198 11t171 45.5t94 90.5l8 70h25zM537 1305q0 -42 -28.5 -72.5t-74.5 -30.5q-44 0 -73 31t-29 72
q0 42 28.5 72t73.5 30q46 0 74.5 -29.5t28.5 -72.5z" />
    <glyph glyph-name="Zcaron" unicode="&#x17d;" horiz-adv-x="1343" 
d="M295 25h170q353 0 524 43q83 21 128 61t73 96l35 125h24l-37 -207l-28 -143h-1090v31l897 1425h-243q-187 0 -294.5 -16.5t-156.5 -45.5t-86 -83l-18 -160h-25l18 330h1010v-37zM817 1786l125 94h29q-61 -61 -123 -135q-29 -33 -64.5 -79t-55.5 -76l-21 -29h-62
q-78 110 -141 184q-84 97 -125 135h31q76 -53 125 -94l141 -115q77 67 141 115z" />
    <glyph glyph-name="zcaron" unicode="&#x17e;" horiz-adv-x="833" 
d="M813 242l-18 -242h-775v31l629 930q-116 0 -193 -4t-154 -15.5t-124.5 -37t-68.5 -64.5q-1 -16 -5.5 -50.5t-5.5 -48.5h-24l16 244h721v-27l-623 -933h129q107 0 198 11t171 45.5t94 90.5l8 70h25zM571 1382l125 95h29q-56 -56 -123 -136q-29 -33 -64.5 -79t-55.5 -76
l-21 -29h-62q-78 110 -141 184q-89 102 -125 136h31q76 -54 125 -95l141 -114q69 60 141 114z" />
    <glyph glyph-name="uni018F" unicode="&#x18f;" horiz-adv-x="1646" 
d="M121 727v39h1214q-1 125 -23 233.5t-67.5 199t-110.5 155t-156 100t-200 35.5q-171 0 -307 -73t-211 -214v2l-12 -96h-25l27 373h24v-76q60 32 129 54t119.5 32t119.5 15.5t96 6t81 0.5q159 0 284.5 -44.5t203 -116t128.5 -169.5t71 -197.5t20 -207.5q0 -78 -9 -153
t-31.5 -157t-58 -152.5t-92.5 -135t-130 -110t-175.5 -72.5t-224.5 -27q-119 0 -218.5 26t-169 70t-123 106t-85.5 128t-52.5 143t-28 144.5t-7.5 138.5zM807 -4q110 0 199.5 41t149.5 111t101 166t59.5 203t18.5 224h-1024q0 -119 15 -224t51.5 -202.5t92 -166.5
t141.5 -110.5t196 -41.5z" />
    <glyph glyph-name="florin" unicode="&#x192;" 
d="M1053 1516q0 -39 -24.5 -64t-65.5 -25q-35 0 -58.5 19.5t-23.5 50.5q0 8 4.5 33.5t-0.5 28.5q-5 16 -35 16q-23 0 -44 -6.5t-46 -27t-47.5 -54t-46.5 -91t-45 -134.5l-68 -258h215l-4 -25h-217l-400 -1434h-122l401 1434h-209l4 25h211q54 178 113.5 302t122.5 191.5
t124.5 96t131.5 28.5q61 0 95 -30t34 -76z" />
    <glyph glyph-name="uni01DD" unicode="&#x1dd;" horiz-adv-x="956" 
d="M446 1010q67 0 128.5 -14t123 -50.5t106.5 -92t73 -145.5t28 -204q0 -241 -122.5 -384t-333.5 -143q-133 0 -223.5 65t-132.5 177t-42 266h688q0 100 -12 179.5t-30 131t-45.5 89t-51.5 56t-56.5 29.5t-52.5 13t-47 2q-118 0 -210 -72t-115 -163v-11h-25l10 244h25v-53
q143 80 317 80zM213 461v-21q0 -198 62.5 -318t187.5 -120q119 0 196.5 132.5t79.5 326.5h-526z" />
    <glyph glyph-name="Scommaaccent" unicode="&#x218;" horiz-adv-x="1208" 
d="M1102 371q0 -167 -131 -283.5t-357 -116.5q-242 0 -471 113q0 -15 1 -43t1 -41h-24l-31 397h25l10 -88q60 -127 193 -220t294 -93q173 0 256.5 82t83.5 203q0 225 -387 421q-66 36 -109 61t-97.5 61t-88.5 70t-65.5 76t-46.5 90.5t-15 102.5q0 72 23 132t72.5 110.5
t140 79t213.5 28.5q213 0 399 -104v72h25l20 -359h-24l-6 78q-11 41 -30 79t-52.5 77.5t-77 68t-107.5 46.5t-141 18q-92 0 -155.5 -18.5t-95 -52.5t-44 -71t-12.5 -85q0 -58 21 -109.5t52.5 -89.5t85 -77.5t101 -66.5t117.5 -63q55 -29 91.5 -50t86 -53t82.5 -59.5
t69 -65.5t57 -75.5t34.5 -84.5t13.5 -97zM711 -328q0 -103 -55.5 -210.5t-141.5 -184.5l-18 18q63 64 95 127.5t32 112.5q0 9 -1 17t-3.5 15.5l-4 12t-7.5 11t-8 9.5t-10.5 9t-10.5 8t-13.5 9t-13.5 9q-64 41 -64 95q0 39 29.5 65.5t75.5 26.5q52 0 85.5 -39t33.5 -111z" />
    <glyph glyph-name="scommaaccent" unicode="&#x219;" horiz-adv-x="849" 
d="M768 260q0 -125 -86.5 -204t-251.5 -79q-145 0 -313 80v-57h-25l-10 266h24q30 -113 129 -188.5t205 -75.5q91 0 147 60t56 139q0 38 -15 70.5t-44 58.5t-54.5 43t-62.5 37l-143 79q-113 64 -161 122.5t-48 142.5q0 68 27.5 119.5t72 80t93.5 42.5t100 14q129 0 276 -78
v53h25l10 -268h-25l-2 45q-15 37 -35 69.5t-53 70.5t-83 60.5t-109 22.5q-80 0 -123 -47t-43 -111q0 -100 92 -159q42 -26 145 -76q140 -69 212.5 -144t72.5 -188zM510 -313q0 -80 -40 -163.5t-105 -154.5l-19 17q41 47 63.5 100.5t22.5 91.5q0 15 -8 27t-17 18t-27.5 16.5
t-27.5 16.5q-45 26 -45 82q0 35 25.5 59.5t66.5 24.5q48 0 79.5 -35t31.5 -100z" />
    <glyph glyph-name="Tcommaaccent" unicode="&#x21a;" horiz-adv-x="1366" 
d="M39 1481h1284l23 -330h-25l-18 158q-48 83 -151.5 115t-264.5 32q-70 0 -94.5 -18t-24.5 -49v-1254q0 -63 25.5 -86.5t111.5 -23.5h68v-25h-584v25h72q80 0 106.5 23t26.5 87v1251q0 32 -23.5 51t-93.5 19q-168 0 -265.5 -30t-145.5 -117v2l-21 -160h-25zM793 -328
q0 -103 -55.5 -210.5t-141.5 -184.5l-18 18q63 64 95 127.5t32 112.5q0 9 -1 17t-3.5 15.5l-4 12t-7.5 11t-8 9.5t-10.5 9t-10.5 8t-13.5 9t-13.5 9q-64 41 -64 95q0 39 29.5 65.5t75.5 26.5q52 0 85.5 -39t33.5 -111z" />
    <glyph glyph-name="tcommaaccent" unicode="&#x21b;" horiz-adv-x="782" 
d="M539 27q28 0 56.5 8.5t62 29t65.5 61.5t57 99l23 -10q-16 -45 -41.5 -85t-62 -75.5t-87.5 -56.5t-110 -21q-140 0 -213.5 77.5t-73.5 221.5v685h-205v24h62q70 12 122 57.5t80 111.5t41.5 136t14.5 144h26v-449h56q186 0 282 21l11 -45h-349v-715q0 -117 52 -168t131 -51
zM555 -313q0 -80 -40 -163.5t-105 -154.5l-19 17q41 47 63.5 100.5t22.5 91.5q0 15 -8 27t-17 18t-27.5 16.5t-27.5 16.5q-45 26 -45 82q0 35 25.5 59.5t66.5 24.5q48 0 79.5 -35t31.5 -100z" />
    <glyph glyph-name="uni0259" unicode="&#x259;" horiz-adv-x="956" 
d="M446 1010q67 0 128.5 -14t123 -50.5t106.5 -92t73 -145.5t28 -204q0 -241 -122.5 -384t-333.5 -143q-133 0 -223.5 65t-132.5 177t-42 266h688q0 100 -12 179.5t-30 131t-45.5 89t-51.5 56t-56.5 29.5t-52.5 13t-47 2q-118 0 -210 -72t-115 -163v-11h-25l10 244h25v-53
q143 80 317 80zM213 461v-21q0 -198 62.5 -318t187.5 -120q119 0 196.5 132.5t79.5 326.5h-526z" />
    <glyph glyph-name="afii57929" unicode="&#x2bc;" horiz-adv-x="458" 
d="M162 1061l-21 14q78 126 78 250q0 102 -59 176l10 25h127q16 -57 16 -109q0 -170 -151 -356z" />
    <glyph glyph-name="circumflex" unicode="&#x2c6;" horiz-adv-x="858" 
d="M571 1231q-64 48 -141 115l-141 -115q-22 -18 -53 -41.5t-52 -37.5l-20 -15h-31q41 38 125 135q28 33 63 79t57 75l21 30h62q75 -110 141 -184q62 -74 123 -135h-29q-74 55 -125 94z" />
    <glyph glyph-name="caron" unicode="&#x2c7;" horiz-adv-x="858" 
d="M571 1382l125 95h29q-56 -56 -123 -136q-29 -33 -64.5 -79t-55.5 -76l-21 -29h-62q-78 110 -141 184q-89 102 -125 136h31q76 -54 125 -95l141 -114q69 60 141 114z" />
    <glyph glyph-name="breve" unicode="&#x2d8;" horiz-adv-x="851" 
d="M426 1137q-132 0 -218 88t-97 215h24q27 -92 105.5 -150.5t185.5 -58.5q108 0 186 58.5t103 150.5h26q-11 -127 -97 -215t-218 -88z" />
    <glyph glyph-name="dotaccent" unicode="&#x2d9;" horiz-adv-x="397" 
d="M301 1305q0 -42 -28.5 -72.5t-73.5 -30.5q-44 0 -73.5 31t-29.5 72q0 42 29 72t74 30q46 0 74 -29.5t28 -72.5z" />
    <glyph glyph-name="ring" unicode="&#x2da;" horiz-adv-x="628" 
d="M137 1290q0 74 51.5 126t124.5 52q74 0 126.5 -52.5t52.5 -125.5q0 -72 -53 -124t-126 -52t-124.5 52t-51.5 124zM170 1290q0 -59 41.5 -101t101.5 -42q61 0 103.5 42t42.5 101q0 60 -42.5 103t-103.5 43q-60 0 -101.5 -43t-41.5 -103z" />
    <glyph glyph-name="ogonek" unicode="&#x2db;" horiz-adv-x="544" 
d="M279 -252q35 0 75.5 20.5t73.5 51.5l16 -19q-106 -106 -217 -106q-61 0 -95 33t-34 86q0 54 34.5 112t90.5 107h27q-72 -97 -72 -189q0 -45 26 -70.5t75 -25.5z" />
    <glyph glyph-name="tilde" unicode="&#x2dc;" horiz-adv-x="827" 
d="M440 1102q103 -62 156 -62q107 0 190 103l21 -17q-103 -176 -246 -176q-41 0 -80.5 17t-93.5 51q-99 61 -156 61q-110 0 -190 -102l-21 16q49 81 108 128.5t138 47.5q62 0 174 -67z" />
    <glyph glyph-name="hungarumlaut" unicode="&#x2dd;" horiz-adv-x="1017" 
d="M551 1430q0 -40 -86 -95q-44 -28 -120 -74t-131 -78l-54 -32h-49l272 268q43 42 65.5 55t49.5 13q53 0 53 -57zM907 1430q0 -40 -86 -95q-44 -28 -120 -74t-131 -78l-54 -32h-49l272 268q43 42 65.5 55t49.5 13q53 0 53 -57z" />
    <glyph glyph-name="acutecomb" unicode="&#x301;" horiz-adv-x="0" 
d="M-221 1430q0 -40 -86 -95q-44 -28 -120 -74t-131 -78l-54 -32h-50l273 268q43 42 65.5 55t49.5 13q53 0 53 -57z" />
    <glyph glyph-name="uni0394" unicode="&#x394;" horiz-adv-x="1275" 
d="M1075 25l-520 1245l-487 -1245h1007zM1243 0h-1210v16l571 1459h21l618 -1457v-18z" />
    <glyph glyph-name="uni0394" unicode="&#x2206;" horiz-adv-x="1275" 
d="M1075 25l-520 1245l-487 -1245h1007zM1243 0h-1210v16l571 1459h21l618 -1457v-18z" />
    <glyph glyph-name="uni03A9" unicode="&#x3a9;" horiz-adv-x="1548" 
d="M774 1513q135 0 256.5 -45t214.5 -126.5t148 -205.5t55 -272q0 -95 -22.5 -184t-69 -173t-129.5 -152t-195 -107l-6 -103h127q126 0 202 45.5t81 102.5l6 59h24l-20 -352h-455l19 281q64 33 110 83.5t72 105t41 128t19.5 138t4.5 149.5q0 93 -16.5 178.5t-53.5 164
t-91.5 136t-137 91.5t-184.5 34t-184.5 -34t-137 -91.5t-91.5 -136t-53.5 -164t-16.5 -178.5q0 -85 4.5 -149.5t20 -137.5t41.5 -128t72 -105.5t110 -83.5l18 -281h-455l-20 352h24l7 -59q5 -57 80.5 -102.5t201.5 -45.5h127l-6 103q-112 39 -195 107t-129.5 152t-69 173
t-22.5 184q0 148 55 272t148 205.5t214.5 126.5t256.5 45z" />
    <glyph glyph-name="uni03A9" unicode="&#x2126;" horiz-adv-x="1548" 
d="M774 1513q135 0 256.5 -45t214.5 -126.5t148 -205.5t55 -272q0 -95 -22.5 -184t-69 -173t-129.5 -152t-195 -107l-6 -103h127q126 0 202 45.5t81 102.5l6 59h24l-20 -352h-455l19 281q64 33 110 83.5t72 105t41 128t19.5 138t4.5 149.5q0 93 -16.5 178.5t-53.5 164
t-91.5 136t-137 91.5t-184.5 34t-184.5 -34t-137 -91.5t-91.5 -136t-53.5 -164t-16.5 -178.5q0 -85 4.5 -149.5t20 -137.5t41.5 -128t72 -105.5t110 -83.5l18 -281h-455l-20 352h24l7 -59q5 -57 80.5 -102.5t201.5 -45.5h127l-6 103q-112 39 -195 107t-129.5 152t-69 173
t-22.5 184q0 148 55 272t148 205.5t214.5 126.5t256.5 45z" />
    <glyph glyph-name="pi" unicode="&#x3c0;" horiz-adv-x="1091" 
d="M1057 0h-305v858h-385q0 -228 -11.5 -364t-44.5 -244q-12 -39 -22.5 -67.5t-31.5 -70.5t-43.5 -68.5t-57 -46.5t-74.5 -20q-102 0 -102 91q0 30 17 54t54 32q156 35 205 112q26 40 43 91.5t25.5 92.5t12.5 116.5t4.5 116t0.5 140.5v35h-12q-179 0 -277 -192l-22 8
q44 155 125 229q90 82 258 82h645v-127h-166v-745q0 -46 21 -67t79 -21h64v-25z" />
    <glyph glyph-name="afii10023" unicode="&#x401;" horiz-adv-x="1357" 
d="M94 1481h1135l18 -310h-24l-23 170q-41 53 -184.5 84t-315.5 31q-98 0 -144 -9t-64.5 -32t-18.5 -72v-555h117q114 0 193.5 9.5t119 21t60 32.5t23.5 34t3 35v47h25v-381h-25v51q0 22 -3 35t-23.5 33t-60 31t-119 19.5t-193.5 8.5h-117v-629q0 -66 34 -88t97 -22
q131 0 264 11.5t205 29.5q155 44 197 157l22 92h25l-60 -315h-1163v25h72q81 0 107 22.5t26 87.5v1211q0 67 -33 88.5t-100 21.5h-72v25zM647 1663q0 -42 -28 -72t-74 -30q-44 0 -73.5 30.5t-29.5 71.5q0 42 29 72t74 30q46 0 74 -29.5t28 -72.5zM1042 1663q0 -42 -28 -72
t-74 -30q-44 0 -73 30.5t-29 71.5q0 42 28.5 72t73.5 30q46 0 74 -29.5t28 -72.5z" />
    <glyph glyph-name="afii10051" unicode="&#x402;" horiz-adv-x="1603" 
d="M668 834v-699q0 -66 16 -88t74 -22h18v-25h-487v25h69q82 0 109 23t27 87v1231q0 90 -99 90q-143 0 -219.5 -35t-109.5 -112v2l-21 -160h-25l19 330h1257l19 -330h-25l-20 158q-95 147 -488 147q-114 0 -114 -88v-510q128 35 264 35q92 0 173 -12t161.5 -44.5
t137.5 -83.5t92.5 -135t35.5 -192q0 -77 -27 -153t-78 -140t-134 -103.5t-185 -39.5q-112 0 -165.5 40t-53.5 95q0 38 22.5 62t67.5 24q41 0 64.5 -22t23.5 -56q0 -12 -5.5 -33t-6.5 -34q-2 -21 13 -36.5t52 -15.5q221 0 221 400q0 109 -28.5 192.5t-72.5 132t-104.5 79.5
t-116.5 41.5t-118 10.5q-55 0 -113 -9t-89 -18z" />
    <glyph glyph-name="afii10052" unicode="&#x403;" horiz-adv-x="1167" 
d="M1124 1481l23 -330h-25l-16 158q-18 31 -45 54.5t-54 39t-69.5 26t-73.5 16t-86 8t-86.5 3t-93.5 0.5q-125 0 -125 -67v-1254q0 -66 28.5 -88t102.5 -22h86v-25h-596v25h74q77 0 104 22t27 88v1211q0 60 -27.5 85t-103.5 25h-74v25h1030zM1012 1853q0 -39 -86 -94
q-44 -28 -120 -74t-130 -78l-55 -32h-50l273 268q44 42 65.5 55t48.5 13q25 0 39.5 -15.5t14.5 -42.5z" />
    <glyph glyph-name="afii10053" unicode="&#x404;" horiz-adv-x="1521" 
d="M1370 0h-24l4 78q-103 -60 -241 -83.5t-237 -23.5q-184 0 -328.5 56.5t-236 158t-139 238.5t-47.5 303q0 109 22.5 213.5t79 210t141 184.5t219.5 128.5t304 49.5q105 0 210.5 -23.5t243.5 -84.5l-2 76h25l27 -373h-25l-12 94q-66 127 -190.5 207t-307.5 80
q-134 0 -238.5 -57t-169 -156t-99 -224t-38.5 -270h234q268 0 547 35v-88q-98 14 -191 20.5t-147.5 7.5t-155.5 1h-287v-19q0 -186 46 -331.5t125 -233.5t178 -133t212 -45q162 0 302 70t192 170l27 122h26z" />
    <glyph glyph-name="afii10054" unicode="&#x405;" horiz-adv-x="1208" 
d="M1102 371q0 -167 -131 -283.5t-357 -116.5q-242 0 -471 113q0 -15 1 -43t1 -41h-24l-31 397h25l10 -88q60 -127 193 -220t294 -93q173 0 256.5 82t83.5 203q0 225 -387 421q-66 36 -109 61t-97.5 61t-88.5 70t-65.5 76t-46.5 90.5t-15 102.5q0 72 23 132t72.5 110.5
t140 79t213.5 28.5q213 0 399 -104v72h25l20 -359h-24l-6 78q-11 41 -30 79t-52.5 77.5t-77 68t-107.5 46.5t-141 18q-92 0 -155.5 -18.5t-95 -52.5t-44 -71t-12.5 -85q0 -58 21 -109.5t52.5 -89.5t85 -77.5t101 -66.5t117.5 -63q55 -29 91.5 -50t86 -53t82.5 -59.5
t69 -65.5t57 -75.5t34.5 -84.5t13.5 -97z" />
    <glyph glyph-name="afii10055" unicode="&#x406;" horiz-adv-x="772" 
d="M678 0h-584v25h70q81 0 108 24t27 86v1211q0 65 -28.5 87.5t-106.5 22.5h-70v25h584v-25h-76q-76 0 -102.5 -23t-26.5 -87v-1211q0 -61 25 -85.5t104 -24.5h76v-25z" />
    <glyph glyph-name="afii10056" unicode="&#x407;" horiz-adv-x="772" 
d="M678 0h-584v25h70q81 0 108 24t27 86v1211q0 65 -28.5 87.5t-106.5 22.5h-70v25h584v-25h-76q-76 0 -102.5 -23t-26.5 -87v-1211q0 -61 25 -85.5t104 -24.5h76v-25zM291 1663q0 -41 -28.5 -71.5t-74.5 -30.5q-44 0 -73 30.5t-29 71.5q0 42 28.5 72t73.5 30
q46 0 74.5 -29.5t28.5 -72.5zM686 1663q0 -42 -28 -72t-74 -30q-44 0 -73.5 30.5t-29.5 71.5q0 42 29 72t74 30q46 0 74 -29.5t28 -72.5z" />
    <glyph glyph-name="afii10057" unicode="&#x408;" horiz-adv-x="976" 
d="M915 1456h-69q-80 0 -107.5 -25t-27.5 -85v-721q0 -145 -23.5 -259.5t-62.5 -187.5t-94 -120.5t-114 -67t-126 -19.5q-135 0 -203 55.5t-68 127.5q0 43 26 72.5t73 29.5q45 0 71.5 -23.5t26.5 -72.5q0 -14 -7 -41t-7 -39q0 -84 106 -84q45 0 80.5 17t59.5 44t41 73.5
t26 90.5t14 112t6 121.5t1 133.5v758q0 62 -28 86t-108 24h-77v25h591v-25z" />
    <glyph glyph-name="afii10058" unicode="&#x409;" horiz-adv-x="2230" 
d="M1257 1346v-490q150 53 318 53q130 0 230.5 -24.5t164 -64.5t104.5 -97.5t57.5 -119t16.5 -132.5q0 -68 -17.5 -132.5t-62 -129t-111.5 -112.5t-174.5 -77.5t-242.5 -29.5q-38 0 -153 5.5t-162 4.5h-346v25h75q69 0 99 27t30 83v1221q0 67 -27 83.5t-106 16.5h-149
q-62 0 -100 -8t-57.5 -28.5t-26 -44.5t-9.5 -66q-4 -56 -10 -169t-10 -169q-19 -286 -51 -457q-22 -118 -64.5 -247.5t-105.5 -205.5q-72 -90 -203 -90q-84 0 -134 47t-50 113q0 47 24.5 83t81.5 36q51 0 79 -27t28 -71q-1 -4 -8 -32.5t-7 -43.5q0 -19 14.5 -37.5
t43.5 -18.5q64 0 114 66q51 66 91.5 183.5t62.5 242.5q28 149 51 457q12 147 12 321q0 32 -4 56t-16.5 51.5t-42 43t-74.5 15.5h-98v25h1130v-25h-76q-76 0 -102.5 -25t-26.5 -85zM1257 72q108 -58 275 -58q188 0 307 121.5t119 327.5q0 422 -418 422q-60 0 -138.5 -14.5
t-144.5 -41.5v-757z" />
    <glyph glyph-name="afii10059" unicode="&#x40a;" horiz-adv-x="2439" 
d="M1466 1346v-490q150 53 318 53q130 0 230.5 -24.5t164 -64.5t104.5 -97.5t57.5 -119t16.5 -132.5q0 -68 -17.5 -132.5t-62 -129t-111.5 -112.5t-174.5 -77.5t-242.5 -29.5q-38 0 -153 5.5t-162 4.5h-347v25h70q79 0 107 22.5t28 87.5v619h-819v-619q0 -66 27.5 -88
t101.5 -22h76v-25h-584v25h70q79 0 107 22.5t28 87.5v1211q0 61 -29 85.5t-106 24.5h-70v25h584v-25h-76q-74 0 -101.5 -22t-27.5 -88v-568h819v568q0 65 -28 87.5t-107 22.5h-70v25h584v-25h-76q-76 0 -102.5 -25t-26.5 -85zM1466 72q108 -58 275 -58q188 0 307 121.5
t119 327.5q0 422 -418 422q-60 0 -138.5 -14.5t-144.5 -41.5v-757z" />
    <glyph glyph-name="afii10060" unicode="&#x40b;" horiz-adv-x="1726" 
d="M39 1481h1257l19 -330h-25l-20 158q-95 147 -486 147q-116 0 -116 -88v-606q239 149 497 149q79 0 139.5 -20.5t96.5 -53t59 -78.5t31 -90.5t8 -95.5v-438q0 -66 26.5 -88t108.5 -22h72v-25h-576v25h62q80 0 106.5 24.5t26.5 85.5v465q0 264 -238 264q-190 0 -419 -135
v-594q0 -63 29 -86.5t106 -23.5h59v-25h-575v25h71q82 0 109 23t27 87v1231q0 90 -99 90q-143 0 -219.5 -34.5t-109.5 -110.5l-21 -160h-25z" />
    <glyph glyph-name="afii10061" unicode="&#x40c;" horiz-adv-x="1591" 
d="M1044 1034q-101 -198 -264 -227q122 -23 201 -72t147 -127q61 -72 111 -170.5t107 -247.5q14 -37 24.5 -59.5t27.5 -52t36 -44t41 -14.5q73 0 81 125h25q-7 -174 -160 -174q-45 0 -84.5 14.5t-73.5 45t-61 63t-55 84.5t-47.5 92.5t-46.5 102.5q-60 140 -92 198
q-65 123 -122.5 174.5t-138.5 51.5h-229v-662q0 -62 26.5 -86t102.5 -24h76v-25h-582v25h70q80 0 106.5 23.5t26.5 86.5v1211q0 65 -29 87.5t-104 22.5h-70v25h582v-25h-76q-75 0 -102 -26t-27 -84v-525h225q112 -1 196.5 68.5t133.5 175.5l92 221q53 126 105 176.5
t141 50.5q70 0 106.5 -37t36.5 -85q0 -42 -24.5 -71.5t-73.5 -29.5q-45 0 -69.5 24.5t-24.5 59.5q0 6 7 32t7 32q0 35 -26 35q-27 0 -57.5 -30.5t-55.5 -78t-41.5 -84t-28.5 -68.5q-31 -90 -76 -178zM1233 1853q0 -39 -86 -94q-44 -28 -120 -74t-131 -78l-54 -32h-49
l272 268q43 42 65.5 55t49.5 13q25 0 39 -15t14 -43z" />
    <glyph glyph-name="afii10062" unicode="&#x40e;" horiz-adv-x="1538" 
d="M1538 1456h-57q-74 -26 -135 -133q-48 -81 -104.5 -203.5t-128.5 -289.5t-118 -265q-152 -324 -245 -454q-50 -69 -113 -104.5t-127 -35.5q-34 0 -64 4t-63.5 15.5t-57.5 31t-39.5 53t-15.5 77.5q0 54 30 83t81 29q44 0 73 -23.5t29 -70.5q0 -19 -11 -43.5t-11 -40.5
q0 -29 23 -47.5t51 -18.5q110 0 192 107q18 24 44 67.5t42.5 76t15.5 32.5l-581 1038q-71 115 -187 115h-30v25h559v-25h-78q-41 0 -60.5 -15t-19.5 -36q0 -27 12 -47l480 -881q36 72 166 363q77 171 141.5 340.5t64.5 208.5q0 19 -6 33t-13.5 20t-20 9.5t-19 4t-18.5 0.5
h-82v25h401v-25zM1204 1788q0 -28 -13 -57.5t-42.5 -60t-71.5 -55t-106 -39.5t-140 -15q-95 0 -170 22.5t-117 58t-63.5 73.5t-21.5 73q0 44 29 69t63 25q32 0 59 -18.5t27 -57.5q0 -21 -24.5 -58t-24.5 -62q0 -14 10.5 -29.5t35 -32.5t75.5 -28t122 -11t122 11t75 28
t34.5 32.5t10.5 29.5q0 22 -23.5 60t-23.5 60q0 39 26 57.5t60 18.5q35 0 63.5 -25t28.5 -69z" />
    <glyph glyph-name="afii10145" unicode="&#x40f;" horiz-adv-x="1683" 
d="M1006 1481h583v-25h-69q-76 0 -106 -25.5t-30 -84.5v-1215q0 -65 31 -85.5t105 -20.5h69v-25h-588q-66 -31 -111.5 -131t-45.5 -242h-25q0 142 -44.5 241.5t-110.5 131.5h-570v25h70q86 0 109.5 23t23.5 87v1211q0 60 -27.5 85t-105.5 25h-70v25h582v-25h-76
q-78 0 -103.5 -24.5t-25.5 -85.5v-1213q0 -67 29 -87.5t102 -20.5h473q77 0 106 21.5t29 86.5v1213q0 60 -28 85t-107 25h-69v25z" />
    <glyph glyph-name="afii10017" unicode="&#x410;" horiz-adv-x="1458" 
d="M1458 0h-540v25h71q20 0 32.5 1t31 6.5t28 19.5t9.5 36q0 19 -28 104t-140 408h-525l-71 -184q-2 -6 -11.5 -30t-13.5 -35t-13 -34t-13.5 -37t-11.5 -35.5t-11 -36t-8 -31.5t-6 -30t-2 -24q0 -79 71 -98h92v-25h-399v25h61q60 42 136.5 187.5t201.5 471.5l179 481
q104 275 120 316h50l507 -1323q12 -31 23 -51.5t30 -41t47 -30.5t66 -10h37v-25zM911 625l-254 675q-108 -288 -251 -675h505z" />
    <glyph glyph-name="afii10018" unicode="&#x411;" horiz-adv-x="1476" 
d="M299 1346q0 67 -33 88.5t-100 21.5h-72v25h1147l19 -310h-25l-23 168q-42 56 -179.5 86.5t-323.5 30.5q-143 0 -189.5 -21.5t-46.5 -91.5v-487q150 53 318 53q130 0 230.5 -24.5t164 -64.5t104.5 -97.5t57.5 -119t16.5 -132.5q0 -68 -17.5 -132.5t-62 -129t-111.5 -112.5
t-174.5 -77.5t-242.5 -29.5q-25 0 -86.5 3t-73.5 3q-114 4 -156 4h-346v25h72q68 0 100.5 25.5t32.5 84.5v1211zM1174 463q0 210 -108.5 314t-317.5 104q-149 0 -275 -52v-757q108 -58 275 -58q188 0 307 121.5t119 327.5z" />
    <glyph glyph-name="afii10019" unicode="&#x412;" horiz-adv-x="1488" 
d="M1135 1141q0 60 -16.5 109t-42.5 82t-62.5 58t-72 39t-75.5 23t-68.5 11.5t-54.5 2.5q-66 0 -140.5 -15t-127.5 -38v-584h293q18 0 38.5 1.5t58.5 8t71.5 18t71.5 35.5t64.5 55.5t44.5 81.5t18 112zM1186 438q0 30 -4 59.5t-16.5 67t-33 70t-56.5 64.5t-83 55t-116.5 37
t-153.5 14h-248v-715q54 -35 140 -55.5t153 -20.5q52 0 105 11t111 41t101.5 76t72 122.5t28.5 173.5zM299 1346q0 110 -133 110h-72v25h342q43 1 171.5 5.5t195.5 4.5q111 0 199 -16t145.5 -44.5t95.5 -69t54 -86t16 -99.5q0 -137 -97 -234t-272 -127q188 -26 310 -126.5
t122 -258.5q0 -208 -145.5 -324t-388.5 -116q-12 0 -234 6q-144 4 -219 4h-295v25h72q81 0 107 22.5t26 87.5v1211z" />
    <glyph glyph-name="afii10020" unicode="&#x413;" horiz-adv-x="1167" 
d="M1124 1481l23 -330h-25l-16 158q-18 31 -45 54.5t-54 39t-69.5 26t-73.5 16t-86 8t-86.5 3t-93.5 0.5q-125 0 -125 -67v-1254q0 -66 28.5 -88t102.5 -22h86v-25h-596v25h74q77 0 104 22t27 88v1211q0 60 -27.5 85t-103.5 25h-74v25h1030z" />
    <glyph glyph-name="afii10021" unicode="&#x414;" horiz-adv-x="1505" 
d="M1485 -336h-25v94q0 242 -418 242h-577q-103 0 -180 -14t-121.5 -36t-72 -55t-36.5 -65t-10 -72v-94h-25v361h132q55 0 153 145q131 218 193 582q23 140 37 303.5t14 236.5q0 164 -154 164h-65v25h1116v-25h-100q-59 0 -83 -22t-24 -84v-1194q0 -59 10 -77
q22 -42 133 -51q43 -3 103 -3v-361zM1065 154v1194q0 55 -23.5 81.5t-89.5 26.5h-221q-83 0 -115 -32.5t-32 -94.5q0 -249 -41 -504q-37 -236 -88.5 -402t-139.5 -298q-39 -61 -88 -100h729q60 0 84.5 27t24.5 102z" />
    <glyph glyph-name="afii10022" unicode="&#x415;" horiz-adv-x="1357" 
d="M94 1481h1135l18 -310h-24l-23 170q-41 53 -184.5 84t-315.5 31q-98 0 -144 -9t-64.5 -32t-18.5 -72v-555h117q114 0 193.5 9.5t119 21t60 32.5t23.5 34t3 35v47h25v-381h-25v51q0 22 -3 35t-23.5 33t-60 31t-119 19.5t-193.5 8.5h-117v-629q0 -66 34 -88t97 -22
q131 0 264 11.5t205 29.5q155 44 197 157l22 92h25l-60 -315h-1163v25h72q81 0 107 22.5t26 87.5v1211q0 67 -33 88.5t-100 21.5h-72v25z" />
    <glyph glyph-name="afii10024" unicode="&#x416;" horiz-adv-x="2205" 
d="M557 1034q-45 88 -76 178q-12 33 -28 69t-41.5 83.5t-55.5 78t-57 30.5t-27 -35q0 -6 7.5 -32t7.5 -32q0 -35 -24.5 -59.5t-69.5 -24.5q-49 0 -74 29.5t-25 71.5q0 48 37 85t107 37q89 0 140 -50.5t105 -176.5l92 -221q49 -106 133.5 -175.5t196.5 -68.5h111v525
q0 65 -29 87.5t-104 22.5h-70v25h582v-25h-76q-75 0 -102 -26t-27 -84v-525h110q112 -1 196.5 68.5t133.5 175.5l92 221q53 126 105 176.5t141 50.5q70 0 106.5 -37t36.5 -85q0 -42 -24.5 -71.5t-73.5 -29.5q-45 0 -69.5 24.5t-24.5 59.5q0 6 7 32t7 32q0 35 -26 35
q-27 0 -57.5 -30.5t-55.5 -78t-41.5 -84t-28.5 -68.5q-32 -95 -75 -178q-101 -198 -265 -227q122 -23 201.5 -72t147.5 -127q60 -72 109.5 -170t107.5 -248q14 -37 24.5 -59.5t27.5 -52t36 -44t41 -14.5q39 0 59 35t23 90h24q-7 -174 -160 -174q-45 0 -84.5 14.5t-73.5 45
t-61 63t-55 84.5t-47.5 92.5t-46.5 102.5q-60 140 -92 198q-65 123 -122 174.5t-138 51.5h-115v-662q0 -62 26.5 -86t102.5 -24h76v-25h-582v25h70q80 0 106.5 23.5t26.5 86.5v662h-115q-81 0 -138 -51.5t-122 -174.5q-32 -58 -92 -198q-23 -52 -39.5 -88t-40.5 -81.5
t-45 -76t-49.5 -62.5t-57 -51t-64 -31t-73.5 -12q-153 0 -160 174h25q3 -55 23 -90t59 -35q22 0 41 14.5t36 44t27.5 52t24.5 59.5q58 150 107.5 248t109.5 170q68 78 147 127t201 72q-163 29 -264 227z" />
    <glyph glyph-name="afii10025" unicode="&#x417;" horiz-adv-x="1366" 
d="M225 1481h25v-70q206 102 438 102q112 0 201.5 -22t146.5 -57.5t95 -83t53.5 -96t15.5 -99.5q0 -121 -98.5 -216.5t-270.5 -123.5q86 -13 158.5 -41t134 -74t96.5 -117.5t35 -162.5q0 -203 -159.5 -326t-442.5 -123q-111 0 -200.5 15t-145.5 37.5t-97.5 55t-61.5 60
t-31 60t-13 48.5t-2 32q0 56 33.5 86t83.5 30q52 0 79.5 -28.5t27.5 -75.5q0 -29 -21.5 -70t-21.5 -69q0 -62 98.5 -109t259.5 -47q188 0 306 114.5t118 313.5q0 171 -117 276t-307 105q-84 0 -174 -23v60q83 -13 178 -13q186 0 283.5 88t97.5 238q0 152 -95 243t-245 91
q-141 0 -262.5 -70t-183.5 -200l-13 -97h-24z" />
    <glyph glyph-name="afii10026" unicode="&#x418;" horiz-adv-x="1765" 
d="M1671 0h-586v25h74q77 0 105 23t28 87v1159l-819 -1159q2 -59 27 -84.5t102 -25.5h76v-25h-584v25h70q84 0 109.5 24t25.5 86v1215q0 57 -27 81.5t-108 24.5h-70v25h584v-25h-76q-84 0 -106.5 -20.5t-22.5 -85.5v-1162l819 1158q-2 57 -31.5 83.5t-101.5 26.5h-74v25h586
v-25h-72q-78 0 -105.5 -22t-27.5 -84v-1215q0 -65 26 -87.5t107 -22.5h72v-25z" />
    <glyph glyph-name="afii10027" unicode="&#x419;" horiz-adv-x="1765" 
d="M1671 0h-586v25h74q77 0 105 23t28 87v1159l-819 -1159q2 -59 27 -84.5t102 -25.5h76v-25h-584v25h70q84 0 109.5 24t25.5 86v1215q0 57 -27 81.5t-108 24.5h-70v25h584v-25h-76q-84 0 -106.5 -20.5t-22.5 -85.5v-1162l819 1158q-2 57 -31.5 83.5t-101.5 26.5h-74v25h586
v-25h-72q-78 0 -105.5 -22t-27.5 -84v-1215q0 -65 26 -87.5t107 -22.5h72v-25zM1257 1788q0 -35 -22 -73t-64.5 -73.5t-117 -58t-168.5 -22.5q-77 0 -141.5 15t-106 39.5t-71 55t-42 60t-12.5 57.5q0 44 29 69t63 25q32 0 59 -18.5t27 -57.5q0 -21 -24.5 -58t-24.5 -62
q0 -14 10.5 -29.5t35 -32.5t76 -28t122.5 -11t122 11t75 28t34 32.5t10 29.5q0 22 -23.5 60t-23.5 60q0 39 26 57.5t60 18.5q35 0 63.5 -25t28.5 -69z" />
    <glyph glyph-name="afii10028" unicode="&#x41a;" horiz-adv-x="1591" 
d="M1044 1034q-101 -198 -264 -227q122 -23 201 -72t147 -127q61 -72 111 -170.5t107 -247.5q14 -37 24.5 -59.5t27.5 -52t36 -44t41 -14.5q73 0 81 125h25q-7 -174 -160 -174q-45 0 -84.5 14.5t-73.5 45t-61 63t-55 84.5t-47.5 92.5t-46.5 102.5q-60 140 -92 198
q-65 123 -122.5 174.5t-138.5 51.5h-229v-662q0 -62 26.5 -86t102.5 -24h76v-25h-582v25h70q80 0 106.5 23.5t26.5 86.5v1211q0 65 -29 87.5t-104 22.5h-70v25h582v-25h-76q-75 0 -102 -26t-27 -84v-525h225q112 -1 196.5 68.5t133.5 175.5l92 221q53 126 105 176.5
t141 50.5q70 0 106.5 -37t36.5 -85q0 -42 -24.5 -71.5t-73.5 -29.5q-45 0 -69.5 24.5t-24.5 59.5q0 6 7 32t7 32q0 35 -26 35q-27 0 -57.5 -30.5t-55.5 -78t-41.5 -84t-28.5 -68.5q-31 -90 -76 -178z" />
    <glyph glyph-name="afii10029" unicode="&#x41b;" horiz-adv-x="1556" 
d="M1462 0h-583v25h75q69 0 99 27t30 83v1221q0 67 -27 83.5t-106 16.5h-149q-62 0 -100 -8t-57.5 -28.5t-26 -44.5t-9.5 -66q-4 -56 -10 -169t-10 -169q-19 -286 -51 -457q-22 -118 -64.5 -247.5t-105.5 -205.5q-72 -90 -203 -90q-84 0 -134 47t-50 113q0 47 24.5 83
t81.5 36q51 0 79 -27t28 -71q-1 -4 -8 -32.5t-7 -43.5q0 -19 14.5 -37.5t43.5 -18.5q64 0 114 66q51 66 91.5 183.5t62.5 242.5q28 149 51 457q12 147 12 321q0 32 -4 56t-16.5 51.5t-42 43t-74.5 15.5h-98v25h1130v-25h-78q-69 0 -98 -22.5t-29 -83.5v-1215q0 -62 23.5 -86
t103.5 -24h78v-25z" />
    <glyph glyph-name="afii10030" unicode="&#x41c;" horiz-adv-x="2043" 
d="M1950 0h-584v25h70q79 0 107 22.5t28 87.5v1227l-602 -1120h-43l-609 1128v-854q0 -386 68 -491h127v-25h-418v25h125q70 106 70 555v776q0 100 -88 100h-107v25h357l575 -1065q94 177 285.5 532.5t285.5 532.5h353v-25h-72q-30 0 -44 -1t-35 -6t-30 -16t-16.5 -31.5
t-7.5 -51.5v-1215q0 -64 24.5 -87t106.5 -23h74v-25z" />
    <glyph glyph-name="afii10031" unicode="&#x41d;" horiz-adv-x="1765" 
d="M1671 0h-584v25h70q79 0 107 22.5t28 87.5v619h-819v-619q0 -66 27.5 -88t101.5 -22h76v-25h-584v25h70q79 0 107 22.5t28 87.5v1211q0 61 -29 85.5t-106 24.5h-70v25h584v-25h-76q-74 0 -101.5 -22t-27.5 -88v-568h819v568q0 65 -28 87.5t-107 22.5h-70v25h584v-25h-76
q-74 0 -101.5 -22t-27.5 -88v-1211q0 -66 27.5 -88t101.5 -22h76v-25z" />
    <glyph glyph-name="afii10032" unicode="&#x41e;" horiz-adv-x="1777" 
d="M1657 743q0 -68 -11.5 -139t-38 -147.5t-66.5 -145.5t-102.5 -132t-139.5 -108.5t-183 -72.5t-229 -27q-122 0 -227 27t-181.5 72.5t-138.5 108.5t-102 132t-67 145.5t-38.5 147.5t-11.5 139q0 72 12.5 145.5t41 149.5t70.5 145t104.5 129.5t139 105t179 70t219.5 25.5
q165 0 298.5 -47t220 -123t144.5 -178t82.5 -207t24.5 -215zM1466 743q0 216 -65 382.5t-197.5 265t-316.5 98.5q-275 0 -425.5 -201t-150.5 -545q0 -116 22.5 -224t70 -203.5t115 -166.5t162 -112t206.5 -41q114 0 210 41t163 112t114 166.5t69.5 203.5t22.5 224z" />
    <glyph glyph-name="afii10033" unicode="&#x41f;" horiz-adv-x="1683" 
d="M1589 0h-583v25h69q79 0 107 25t28 85v1213q0 65 -29 86.5t-106 21.5h-473q-73 0 -102 -20.5t-29 -87.5v-1213q0 -61 25.5 -85.5t103.5 -24.5h76v-25h-582v25h70q78 0 105.5 25t27.5 85v1211q0 64 -23.5 87t-109.5 23h-70v25h1495v-25h-69q-74 0 -105 -20.5t-31 -85.5
v-1215q0 -59 30 -84.5t106 -25.5h69v-25z" />
    <glyph glyph-name="afii10034" unicode="&#x420;" horiz-adv-x="1382" 
d="M1300 1065q0 -93 -39 -177.5t-110.5 -150t-183.5 -104.5t-248 -39q-143 0 -246 24v-483q0 -66 24.5 -88t104.5 -22h76v-25h-584v25h72q80 0 106.5 23t26.5 87v1211q0 65 -27 87.5t-106 22.5h-72v25h223q61 1 208.5 11.5t213.5 10.5q125 0 224.5 -26t161 -68.5t102.5 -101
t57 -118t16 -124.5zM1110 1065q0 201 -105.5 307.5t-297.5 106.5q-121 0 -234 -58v-780q99 -23 238 -23q183 0 291 116.5t108 330.5z" />
    <glyph glyph-name="afii10035" unicode="&#x421;" horiz-adv-x="1521" 
d="M1370 0h-24l4 78q-103 -60 -241 -83.5t-237 -23.5q-184 0 -328.5 56.5t-236 158t-139 238.5t-47.5 303q0 109 22.5 213.5t79 210t141 184.5t219.5 128.5t304 49.5q105 0 210.5 -23.5t243.5 -84.5l-2 76h25l27 -373h-25l-12 94q-66 127 -190.5 207t-307.5 80
q-111 0 -202.5 -40t-154.5 -110t-106 -165.5t-62.5 -204.5t-19.5 -230q0 -186 46 -331.5t125 -233.5t178 -133t212 -45q162 0 302 70t192 170l27 122h26z" />
    <glyph glyph-name="afii10036" unicode="&#x422;" horiz-adv-x="1366" 
d="M39 1481h1284l23 -330h-25l-18 158q-48 83 -151.5 115t-264.5 32q-70 0 -94.5 -18t-24.5 -49v-1254q0 -63 25.5 -86.5t111.5 -23.5h68v-25h-584v25h72q80 0 106.5 23t26.5 87v1251q0 32 -23.5 51t-93.5 19q-168 0 -265.5 -30t-145.5 -117v2l-21 -160h-25z" />
    <glyph glyph-name="afii10037" unicode="&#x423;" horiz-adv-x="1538" 
d="M1538 1456h-57q-74 -26 -135 -133q-48 -81 -104.5 -203.5t-128.5 -289.5t-118 -265q-152 -324 -245 -454q-50 -69 -113 -104.5t-127 -35.5q-34 0 -64 4t-63.5 15.5t-57.5 31t-39.5 53t-15.5 77.5q0 54 30 83t81 29q44 0 73 -23.5t29 -70.5q0 -19 -11 -43.5t-11 -40.5
q0 -29 23 -47.5t51 -18.5q110 0 192 107q18 24 44 67.5t42.5 76t15.5 32.5l-581 1038q-71 115 -187 115h-30v25h559v-25h-78q-41 0 -60.5 -15t-19.5 -36q0 -27 12 -47l480 -881q36 72 166 363q77 171 141.5 340.5t64.5 208.5q0 19 -6 33t-13.5 20t-20 9.5t-19 4t-18.5 0.5
h-82v25h401v-25z" />
    <glyph glyph-name="afii10038" unicode="&#x424;" horiz-adv-x="1996" 
d="M1915 733q0 -77 -17.5 -148.5t-64 -143.5t-118 -125t-188 -86t-265.5 -33q-116 0 -177 6v-64q0 -71 24 -92.5t112 -21.5h69v-25h-583v25h69q84 0 109.5 24.5t25.5 89.5v64q-63 -6 -174 -6q-149 0 -266 33t-188.5 86t-118 125t-64.5 143.5t-18 148.5q0 82 18.5 156
t65.5 147.5t119 126.5t188.5 86t265.5 33q106 0 172 -10v78q0 64 -26.5 85t-108.5 21h-69v25h583v-25h-69q-76 0 -106 -24.5t-30 -81.5v-78q68 10 189 10q144 0 257.5 -33t184 -86t116.5 -126.5t64.5 -148t18.5 -155.5zM1724 737q0 264 -122.5 392t-391.5 128
q-64 0 -125 -12v-1016q70 -8 107 -8q86 0 161 15.5t144.5 53t118.5 95t78.5 147.5t29.5 205zM911 229v1016q-56 12 -135 12q-260 0 -382 -129t-122 -391q0 -115 29.5 -205t79 -147.5t119.5 -95t145 -53t162 -15.5q57 0 104 8z" />
    <glyph glyph-name="afii10039" unicode="&#x425;" horiz-adv-x="1599" 
d="M1569 0h-606v25h79q19 0 32.5 1t30 5.5t25.5 15t9 27.5q0 15 -33 69l-358 537q-3 0 -103 -123q-165 -203 -245.5 -318t-80.5 -157q0 -23 14.5 -37t27.5 -17t26 -3h100v-25h-456v25h78q21 13 58.5 44.5t116.5 111t171 186.5q60 71 274 340l-379 565q-47 70 -79.5 104.5
t-78.5 55.5t-112 24v25h579v-25h-114q-56 0 -56 -47q0 -25 37 -80l320 -487q49 62 164.5 223t158.5 231q45 76 45 107q0 32 -24.5 42.5t-75.5 10.5h-82v25h467v-25h-61q-139 -52 -308 -278l-268 -361l395 -586q135 -206 287 -206h25v-25z" />
    <glyph glyph-name="afii10040" unicode="&#x426;" horiz-adv-x="1669" 
d="M1649 -336h-25v94q0 113 -108 177.5t-330 64.5h-1092v25h70q70 0 102.5 26.5t32.5 83.5v1211q0 56 -28 83t-107 27h-70v25h584v-25h-76q-77 0 -103 -23t-26 -87v-1211q0 -63 24.5 -86.5t106.5 -23.5h471q82 0 108.5 27.5t26.5 82.5v1211q0 63 -30 86.5t-105 23.5h-69v25
h583v-25h-69q-81 0 -108.5 -23t-27.5 -87v-1190q0 -40 7 -61.5t34 -39.5t80 -24t144 -6v-361z" />
    <glyph glyph-name="afii10041" unicode="&#x427;" horiz-adv-x="1531" 
d="M1438 0h-596v25h86q79 0 105 26.5t26 83.5v584q-234 -150 -498 -150q-79 0 -139 20.5t-96.5 53t-59 78.5t-31 90.5t-8.5 95.5v439q0 67 -26 88.5t-109 21.5h-72v25h576v-25h-64q-79 0 -105 -24.5t-26 -85.5v-465q0 -263 238 -263q200 0 420 134v594q0 63 -28 86.5
t-103 23.5h-64v25h574v-25h-74q-81 0 -106 -22.5t-25 -87.5v-1211q0 -59 25 -84.5t106 -25.5h74v-25z" />
    <glyph glyph-name="afii10042" unicode="&#x428;" horiz-adv-x="2402" 
d="M2308 0h-2214v25h72q77 0 105 24t28 90v1207q0 66 -28.5 88t-104.5 22h-72v25h574v-25h-64q-81 0 -106 -22.5t-25 -87.5v-1211q0 -62 30 -86t101 -24h375q78 0 106.5 25t28.5 85v1211q0 62 -30 86t-103 24h-61v25h563v-25h-60q-79 0 -107 -23.5t-28 -86.5v-1211
q0 -63 26 -86.5t109 -23.5h373q74 0 103.5 29t29.5 81v1211q0 57 -32.5 83.5t-102.5 26.5h-59v25h573v-25h-70q-76 0 -105.5 -25.5t-29.5 -84.5v-1211q0 -67 26.5 -88.5t108.5 -21.5h70v-25z" />
    <glyph glyph-name="afii10043" unicode="&#x429;" horiz-adv-x="2387" 
d="M2367 -336h-24v94q0 113 -108 177.5t-330 64.5h-1811v25h72q77 0 105 24t28 90v1207q0 66 -28.5 88t-104.5 22h-72v25h574v-25h-64q-81 0 -106 -22.5t-25 -87.5v-1211q0 -62 30 -86t101 -24h375q78 0 106.5 25t28.5 85v1211q0 62 -30 86t-103 24h-61v25h563v-25h-60
q-79 0 -107 -23.5t-28 -86.5v-1211q0 -63 26 -86.5t109 -23.5h373q74 0 103.5 29t29.5 81v1211q0 57 -32.5 83.5t-102.5 26.5h-59v25h573v-25h-70q-76 0 -105.5 -25.5t-29.5 -84.5v-1190q0 -32 4 -51t18.5 -36.5t43.5 -25.5t76.5 -13t121.5 -5v-361z" />
    <glyph glyph-name="afii10044" unicode="&#x42a;" horiz-adv-x="1712" 
d="M37 1481h907v-25h-74q-75 0 -102 -25t-27 -85v-490q154 53 318 53q130 0 230.5 -24.5t163.5 -64.5t104 -98t57 -119t16 -132q0 -68 -17.5 -132.5t-61 -129t-110 -112.5t-173 -77.5t-240.5 -29.5q-39 0 -154 5.5t-163 4.5h-353v25h74q70 0 101.5 25.5t31.5 84.5v1231
q0 90 -116 90q-163 0 -249 -29t-134 -118v2l-21 -160h-25zM1440 463q0 422 -412 422q-155 0 -287 -56v-757q111 -58 279 -58q185 0 302.5 121.5t117.5 327.5z" />
    <glyph glyph-name="afii10045" unicode="&#x42b;" horiz-adv-x="2099" 
d="M2005 0h-582v25h72q71 0 102 22.5t31 87.5v1211q0 59 -29 84.5t-104 25.5h-72v25h582v-25h-74q-44 0 -70.5 -6t-39 -21.5t-16 -33t-3.5 -49.5v-1211q0 -63 24.5 -86.5t104.5 -23.5h74v-25zM473 1346v-490q150 53 303 53q130 0 230.5 -24.5t164 -64.5t104.5 -98t57 -119
t16 -132q0 -68 -17.5 -132.5t-61.5 -129t-110.5 -112.5t-173.5 -77.5t-242 -29.5q-39 0 -152 5.5t-159 4.5h-338v25h70q69 0 102 25.5t33 84.5v1211q0 60 -29.5 85t-105.5 25h-68v25h582v-25h-74q-77 0 -104 -25t-27 -85zM1157 463q0 422 -416 422q-136 0 -268 -56v-757
q111 -58 262 -58q185 0 303.5 122t118.5 327z" />
    <glyph glyph-name="afii10046" unicode="&#x42c;" horiz-adv-x="1445" 
d="M473 1346v-490q150 53 318 53q130 0 230.5 -24.5t164 -64.5t104.5 -97.5t57.5 -119t16.5 -132.5q0 -68 -17.5 -132.5t-62 -129t-111.5 -112.5t-174.5 -77.5t-242.5 -29.5q-38 0 -153.5 5.5t-162.5 4.5h-346v25h72q68 0 100.5 25.5t32.5 84.5v1211q0 60 -29 85t-104 25
h-72v25h584v-25h-76q-76 0 -102.5 -25t-26.5 -85zM1174 463q0 422 -418 422q-60 0 -138.5 -14.5t-144.5 -41.5v-757q108 -58 275 -58q188 0 307 121.5t119 327.5z" />
    <glyph glyph-name="afii10047" unicode="&#x42d;" horiz-adv-x="1517" 
d="M1397 797q0 -405 -198.5 -615.5t-555.5 -210.5q-233 0 -386 88t-153 209q0 66 36 96.5t85 30.5t76 -29t27 -67q0 -32 -20.5 -70.5t-20.5 -66.5q0 -51 60.5 -90.5t140 -57.5t155.5 -18q82 0 152 16.5t122.5 44t95.5 69t72.5 87t51.5 102t35 109.5t21 114.5t10.5 112
t2.5 107.5h-231q-116 0 -178.5 -1t-164 -8.5t-204.5 -23.5v90q263 -33 547 -33h231v43q0 49 -5.5 102.5t-21 120t-39.5 127t-64.5 119t-92.5 101t-127 68.5t-164 26q-163 0 -300 -84.5t-191 -200.5l-7 -46q-6 -46 -6 -50h-24l24 373h25l-2 -76q113 56 247 82t234 26
q139 0 256 -38.5t199 -105.5t139 -158t84 -195.5t27 -218.5z" />
    <glyph glyph-name="afii10048" unicode="&#x42e;" horiz-adv-x="2455" 
d="M2335 743q0 -80 -17 -163.5t-52 -172t-96.5 -165.5t-144 -138.5t-202 -97t-262.5 -35.5q-140 0 -257.5 34t-199.5 94t-144 136.5t-98.5 166.5t-54.5 177.5t-19 176.5h-315v-621q0 -66 26.5 -88t100.5 -22h78v-25h-584v25h74q77 0 104 22t27 88v1211q0 61 -28 85.5
t-103 24.5h-74v25h584v-25h-78q-74 0 -100.5 -22t-26.5 -88v-566h318q5 109 35 211t91 198t148 167t214.5 114t281.5 43q164 0 298 -47t221 -123t146 -178t84 -207t25 -215zM2144 743q0 215 -66 382t-199.5 265.5t-317.5 98.5q-277 0 -429.5 -201t-152.5 -545
q0 -116 23 -224t71 -203.5t116 -166.5t164 -112t208 -41q114 0 210.5 41t164 112t115.5 166.5t70.5 203.5t22.5 224z" />
    <glyph glyph-name="afii10049" unicode="&#x42f;" horiz-adv-x="1540" 
d="M1446 0h-584v25h74q83 0 107 23t24 87v610q-104 1 -186 -26.5t-143.5 -84t-106 -126.5t-86.5 -168q-36 -84 -69.5 -143.5t-78 -114.5t-99.5 -83t-120 -28q-40 0 -71 13t-48 31t-28.5 43.5t-15.5 45t-5 41.5h25q4 -48 24 -86.5t56 -38.5q40 0 74 42t83 159q42 101 76 158
q58 103 161.5 192.5t246.5 141.5h-47q-81 1 -155.5 16.5t-140 48t-113 80t-75.5 116.5t-28 152q0 34 6 67.5t22.5 71.5t42 71.5t67.5 64.5t96 53t131 35.5t169 13.5q63 0 220.5 -11.5t226.5 -10.5h268v-25h-76q-78 0 -103.5 -24t-25.5 -86v-1211q0 -60 25.5 -85t103.5 -25
h76v-25zM1067 770v655q-122 54 -264 54q-85 0 -158.5 -22t-132 -65t-92 -113t-33.5 -159q0 -177 100 -273.5t297 -96.5q72 0 154 6q58 5 129 14z" />
    <glyph glyph-name="afii10065" unicode="&#x430;" horiz-adv-x="991" 
d="M879 27q26 0 47 27.5t30 78.5h25q-13 -86 -52.5 -121t-99.5 -35q-155 0 -155 211q-66 -69 -126.5 -114.5t-110.5 -65t-83 -25.5t-69 -6q-118 0 -179 58t-61 151q0 60 27.5 112.5t75.5 91t104.5 69t125 52.5t126.5 35.5t117 22.5l53 9v104q0 157 -55.5 230t-200.5 73
q-67 0 -117.5 -25t-50.5 -75q0 -19 9 -41t9 -41q0 -36 -22 -57t-64 -21q-34 0 -56 23.5t-22 62.5q0 79 93.5 139t232.5 60q80 0 145 -15.5t121 -51t87.5 -102t31.5 -159.5v-543q0 -112 64 -112zM674 221v332q-80 -15 -144 -32.5t-125.5 -45.5t-102.5 -63t-66 -86t-25 -113
q0 -88 45.5 -129t116.5 -41q69 0 156 56.5t145 121.5z" />
    <glyph glyph-name="afii10066" unicode="&#x431;" horiz-adv-x="1079" 
d="M1028 516q0 -108 -31.5 -199t-83 -152.5t-118 -105t-135 -63t-134.5 -19.5q-64 0 -129 20.5t-127.5 67.5t-111 114.5t-78 170t-29.5 225.5q0 227 31.5 360.5t112.5 231.5q76 89 189 152t288 131q68 25 111.5 46.5t63 40t25.5 31t9 29.5h26q9 -134 -65 -198
q-15 -13 -32 -24.5t-42 -24t-43.5 -21t-55 -23t-57 -22t-70.5 -26t-75 -27.5q-106 -39 -184 -96t-125 -150q-26 -51 -45.5 -143t-22.5 -166h6q22 62 55 113t67.5 85t74.5 59.5t74 40t69.5 23t58 11t40.5 2.5q161 0 274 -66t166 -175.5t53 -252.5zM862 516q0 93 -14.5 168.5
t-36.5 123t-54 83t-60.5 53t-63 27.5t-54.5 12t-42 2q-62 0 -113 -23t-85 -63.5t-58.5 -89.5t-38 -106t-19.5 -108.5t-6 -102.5q0 -30 1 -55t7.5 -79t17.5 -96t35.5 -93.5t57.5 -85.5t86 -57.5t119 -23.5q64 0 116 22.5t85 56t57 84t35.5 94t18.5 100t8 88t1 69.5z" />
    <glyph glyph-name="afii10067" unicode="&#x432;" horiz-adv-x="1028" 
d="M930 774q0 -95 -73 -159t-175 -80q128 -14 208.5 -83t80.5 -182q0 -111 -100 -190.5t-267 -79.5h-573v25h65q64 0 81.5 14t17.5 74v759q0 52 -19.5 70.5t-79.5 18.5h-65v24h538q361 0 361 -211zM776 770q0 50 -21 87t-50 56.5t-69 31t-67.5 14t-56.5 2.5q-176 0 -176 -93
v-323h190q131 0 190.5 53.5t59.5 171.5zM805 272q0 248 -287 248h-182v-409q0 -54 34 -70t111 -16q29 0 48 0.5t56.5 5.5t63 13.5t57.5 27t52 44t33.5 65.5t13.5 91z" />
    <glyph glyph-name="afii10068" unicode="&#x433;" horiz-adv-x="847" 
d="M426 961q-19 0 -30.5 -1.5t-27.5 -8.5t-24 -23.5t-8 -42.5v-772q0 -51 20.5 -69.5t79.5 -18.5h64v-25h-469v25h67q59 0 78 18t19 70v759q0 53 -19 71t-78 18h-67v24h792l15 -240h-25l-8 105q-95 111 -379 111z" />
    <glyph glyph-name="afii10069" unicode="&#x434;" horiz-adv-x="1089" 
d="M1069 -268h-25v69q0 109 -77 154t-219 45h-406q-162 0 -229.5 -52t-67.5 -147v-69h-25v293h74q53 0 101.5 56.5t87.5 158.5q37 99 61 260q31 225 31 323q0 28 -3.5 47.5t-14 42.5t-35.5 35.5t-64 12.5h-45v24h846v-24h-64q-60 0 -80 -18t-20 -69v-763q0 -44 19 -65
t73 -21h82v-293zM754 98v791q0 72 -101 72h-90q-79 0 -112 -35.5t-43 -137.5q-17 -199 -33 -299q-31 -175 -70 -274q-47 -131 -117 -190h480q26 0 37 1t25 7.5t19 22t5 42.5z" />
    <glyph glyph-name="afii10070" unicode="&#x435;" horiz-adv-x="952" 
d="M508 1010q97 0 173.5 -38t122.5 -101t70.5 -138.5t26.5 -157.5h-684q1 -137 21.5 -239.5t51 -160t75.5 -92.5t85.5 -45.5t88.5 -10.5q203 0 331 202l21 -14q-138 -238 -391 -238q-59 0 -117.5 14.5t-119.5 51.5t-107 93t-75.5 147t-29.5 204q0 239 122.5 381t334.5 142z
M217 600h526q0 106 -26 191t-83.5 139.5t-139.5 54.5q-248 0 -277 -385z" />
    <glyph glyph-name="afii10072" unicode="&#x436;" horiz-adv-x="1603" 
d="M233 975q-20 0 -20 -23q0 -8 5 -22.5t5 -26.5q0 -30 -20 -46.5t-51 -16.5q-37 0 -56.5 25t-19.5 57q0 38 28 63t76 25q45 0 74 -13q25 -10 45.5 -30.5t37 -52.5t25.5 -53.5t23 -59.5q44 -121 99 -188.5t137 -67.5h110v329q0 60 -17.5 74.5t-82.5 14.5h-64v22h469v-22h-65
q-64 0 -81.5 -14.5t-17.5 -74.5v-329h111q82 0 137 67.5t99 188.5q14 38 23 59.5t25.5 53.5t37 52.5t45.5 30.5q29 13 73 13q48 0 76.5 -25t28.5 -63q0 -32 -19.5 -57t-56.5 -25q-31 0 -51.5 16.5t-20.5 46.5q0 12 5.5 26.5t5.5 22.5q0 23 -21 23q-19 0 -38.5 -20t-36.5 -52
t-27.5 -56.5t-18.5 -47.5q-20 -52 -33 -81t-36.5 -72t-53.5 -71.5t-67 -44.5q78 -17 149 -71q67 -50 109 -120t78 -163q29 -75 53.5 -112t56.5 -37q26 0 42.5 29.5t21.5 76.5h24q-11 -156 -135 -156q-82 0 -141.5 62.5t-110.5 177.5l-63 148q-41 97 -119 141q-27 14 -88 14
h-64v-407q0 -46 20.5 -67t78.5 -21h65v-25h-469v25h64q60 0 80 19.5t20 68.5v407h-63q-61 0 -88 -14q-78 -44 -119 -141l-64 -148q-51 -115 -110.5 -177.5t-141.5 -62.5q-124 0 -135 156h25q5 -48 21.5 -77t41.5 -29q32 0 57 37.5t54 111.5q36 94 77.5 163.5t108.5 119.5
q71 53 150 71q-37 16 -67 44.5t-54 71t-37.5 72.5t-32.5 81q-8 23 -18.5 47.5t-27.5 56.5t-36.5 52t-38.5 20z" />
    <glyph glyph-name="afii10073" unicode="&#x437;" horiz-adv-x="901" 
d="M807 778q0 -95 -64 -155.5t-172 -79.5q70 -11 129 -40t101.5 -86.5t42.5 -133.5q0 -58 -19.5 -105.5t-50 -78.5t-72 -54.5t-80.5 -36t-80.5 -20t-67 -9.5t-44.5 -2q-200 0 -297.5 58.5t-97.5 138.5q0 47 24.5 70.5t61.5 23.5q36 0 57 -22.5t21 -57.5q0 -18 -9.5 -45
t-9.5 -45q0 -38 56 -67t163 -29q75 0 131 25.5t87 68t46 91t15 102.5q0 59 -15.5 103t-40 69t-60 40.5t-68.5 20t-74 4.5q-51 0 -109 -8v39q47 -6 125 -6q69 0 99 18q106 50 106 201q0 61 -18 105t-49 67t-65 33t-73 10q-114 0 -203 -75t-106 -156v-15h-25l13 246h24l-2 -47
q169 72 299 72q180 0 275.5 -64t95.5 -168z" />
    <glyph glyph-name="afii10074" unicode="&#x438;" horiz-adv-x="1183" 
d="M1153 0h-448v25h43q59 0 79.5 19.5t20.5 68.5v684l-512 -643v-41q0 -47 19 -67.5t77 -20.5h47v-25h-448v25h63q57 0 79 20t22 68v759q0 50 -20 69.5t-81 19.5h-63v24h448v-24h-47q-58 0 -77 -20t-19 -69v-671l512 643v28q0 50 -18.5 69.5t-79.5 19.5h-45v24h448v-24h-63
q-59 0 -80 -20t-21 -69v-759q0 -48 20 -68t78 -20h66v-25z" />
    <glyph glyph-name="afii10075" unicode="&#x439;" horiz-adv-x="1183" 
d="M1153 0h-448v25h43q59 0 79.5 19.5t20.5 68.5v684l-512 -643v-41q0 -47 19 -67.5t77 -20.5h47v-25h-448v25h63q57 0 79 20t22 68v759q0 50 -20 69.5t-81 19.5h-63v24h448v-24h-47q-58 0 -77 -20t-19 -69v-671l512 643v28q0 50 -18.5 69.5t-79.5 19.5h-45v24h448v-24h-63
q-59 0 -80 -20t-21 -69v-759q0 -48 20 -68t78 -20h66v-25zM909 1366q0 -91 -86 -165.5t-231 -74.5t-231.5 74.5t-86.5 165.5q0 43 27.5 68.5t67.5 25.5q33 0 53 -20t20 -49q0 -35 -24 -66q-31 -43 -31 -61q0 -51 54.5 -82t150.5 -31q97 0 151 31t54 82q0 20 -19 49
q-1 2 -6 8.5t-7 10t-6.5 10t-6.5 11.5t-4.5 11.5t-3.5 13t-1 13.5q0 29 21 49t55 20q39 0 64.5 -25.5t25.5 -68.5z" />
    <glyph glyph-name="afii10076" unicode="&#x43a;" horiz-adv-x="1095" 
d="M862 975q-19 0 -38.5 -20t-36.5 -52t-27.5 -56.5t-18.5 -47.5q-20 -52 -33 -81t-36.5 -72t-53.5 -71.5t-67 -44.5q78 -17 149 -71q67 -50 109 -120t78 -163q29 -75 53.5 -112t56.5 -37q26 0 42.5 29.5t21.5 76.5h24q-11 -156 -135 -156q-82 0 -141.5 62.5t-110.5 177.5
q-1 1 -63 148q-41 97 -119 141q-27 14 -88 14h-92v-407q0 -46 20 -67t78 -21h66v-25h-469v25h63q60 0 80.5 20t20.5 68v761q0 60 -18 74.5t-83 14.5h-63v22h469v-22h-66q-63 0 -80.5 -14.5t-17.5 -74.5v-329h139q82 0 137 67.5t99 188.5q14 38 23 59.5t25.5 53.5t37 52.5
t45.5 30.5q29 13 73 13q48 0 76.5 -25t28.5 -63q0 -32 -19.5 -57t-56.5 -25q-31 0 -51.5 16.5t-20.5 46.5q0 12 5.5 26.5t5.5 22.5q0 23 -21 23z" />
    <glyph glyph-name="afii10077" unicode="&#x43b;" horiz-adv-x="1083" 
d="M1053 0h-471v25h65q61 0 79.5 17t18.5 69v772q0 47 -18 62.5t-53 15.5h-133q-57 0 -80 -33.5t-31 -112.5q-1 -10 -12 -129.5t-19 -185.5q-19 -148 -41 -246q-35 -150 -93 -211t-142 -61q-71 0 -107 37t-36 83q0 42 24.5 67.5t61.5 25.5q23 0 41 -12t24 -31q4 -13 4 -68
t49 -55q44 0 87.5 73t68.5 191q14 67 29 194q22 160 22 349q0 125 -119 125h-45v24h826v-24h-70q-60 0 -78 -17.5t-18 -69.5v-761q0 -48 20 -68t78 -20h68v-25z" />
    <glyph glyph-name="afii10078" unicode="&#x43c;" horiz-adv-x="1331" 
d="M1300 0h-469v25h66q60 0 79 17.5t19 70.5v782l-372 -723h-25l-371 723q0 -91 -1 -272.5t-1 -272.5q0 -140 17 -209.5t55 -115.5h78v-25h-340v25h76q77 102 82 325q1 87 5 261t5 261q0 47 -18.5 68t-75.5 21h-78v24h307l332 -655q236 446 338 655h292v-24h-67
q-59 0 -77.5 -18.5t-18.5 -70.5v-759q0 -53 18.5 -70.5t77.5 -17.5h67v-25z" />
    <glyph glyph-name="afii10079" unicode="&#x43d;" horiz-adv-x="1173" 
d="M1143 0h-449v25h47q59 0 78 17.5t19 70.5v407h-502v-407q0 -53 18.5 -70.5t77.5 -17.5h47v-25h-448v25h63q62 0 81.5 18t19.5 70v759q0 53 -19.5 71t-81.5 18h-63v24h448v-24h-47q-60 0 -78 -17.5t-18 -71.5v-327h502v327q0 53 -18 71t-79 18h-47v24h449v-24h-66
q-59 0 -78.5 -17.5t-19.5 -71.5v-759q0 -51 20 -69.5t78 -18.5h66v-25z" />
    <glyph glyph-name="afii10080" unicode="&#x43e;" 
d="M1030 492q0 -230 -137.5 -372.5t-351.5 -142.5t-352 141.5t-138 373.5q0 251 135.5 384.5t354.5 133.5q223 0 356 -129.5t133 -388.5zM864 492q0 110 -18 196.5t-48 141.5t-72.5 90.5t-87.5 50t-97 14.5q-65 0 -120.5 -24.5t-102.5 -79t-74 -153.5t-27 -236
q0 -109 18 -195t48.5 -140.5t73 -90t87.5 -50t97 -14.5t97 14.5t87.5 50t72.5 90t48 140t18 195.5z" />
    <glyph glyph-name="afii10081" unicode="&#x43f;" horiz-adv-x="1163" 
d="M1133 0h-449v25h45q64 0 81 14t17 74v759q0 60 -18 74.5t-82 14.5h-295q-63 0 -79.5 -14.5t-16.5 -74.5v-759q0 -60 16.5 -74t79.5 -14h47v-25h-448v25h63q65 0 83 14t18 74v759q0 60 -18 74.5t-83 14.5h-63v24h1102v-24h-68q-62 0 -79 -14.5t-17 -74.5v-759
q0 -60 17 -74t79 -14h68v-25z" />
    <glyph glyph-name="afii10082" unicode="&#x440;" horiz-adv-x="1146" 
d="M930 489q0 241 -88.5 356.5t-251.5 115.5q-111 0 -254 -109v-774q84 -51 229 -51q160 0 262.5 121t102.5 341zM195 827q0 53 -27 67t-137 15v25q142 9 305 80v-133q144 129 303 129q64 0 125 -15t122.5 -52.5t107 -94.5t74 -147.5t28.5 -204.5q0 -143 -55.5 -259
t-167 -187t-261.5 -73q-159 0 -276 74v-393q0 -54 17.5 -71t78.5 -17h68v-25h-469v25h63q61 0 81 17.5t20 70.5v1169z" />
    <glyph glyph-name="afii10083" unicode="&#x441;" horiz-adv-x="921" 
d="M551 27q101 0 188.5 58.5t139.5 176.5l22 -10q-17 -39 -34.5 -71t-51 -72t-72 -67t-98 -46t-129.5 -19q-199 0 -332 136t-133 370q0 82 18.5 158t58.5 143.5t97 117.5t139.5 79t180.5 29q141 0 225 -50.5t84 -123.5q0 -50 -24.5 -75.5t-61.5 -25.5q-86 0 -86 90
q0 9 3 33.5t3 38.5q0 37 -40 62.5t-111 25.5q-65 0 -119.5 -25t-101 -80.5t-73 -156.5t-26.5 -240q0 -227 94 -341.5t240 -114.5z" />
    <glyph glyph-name="afii10084" unicode="&#x442;" horiz-adv-x="919" 
d="M530 895v-782q0 -60 17.5 -74t81.5 -14h65v-25h-471v25h72q63 0 78.5 14t15.5 74v782q0 66 -70 66q-72 0 -150.5 -24t-123.5 -81l-10 -111h-25l10 240h879l10 -240h-24l-13 111q-42 57 -121 81t-151 24q-70 0 -70 -66z" />
    <glyph glyph-name="afii10085" unicode="&#x443;" horiz-adv-x="1095" 
d="M1096 961h-21q-68 0 -104 -70q-23 -45 -76 -178l-152 -410q-82 -212 -168 -420q-80 -195 -141 -270q-78 -88 -184 -88q-74 0 -119 35.5t-45 95.5q0 41 25 64.5t61 23.5t59 -19.5t23 -56.5l-2 -45q-2 -24 12.5 -36.5t46.5 -12.5q52 0 101 59q94 126 161 332
q-60 135 -199.5 443t-209.5 466q-10 21 -17 31.5t-22 26t-39 22.5t-57 7h-29v24h449v-24h-66q-70 0 -70 -54q0 -15 13 -45l323 -733q248 672 248 743q0 89 -76 89h-57v24h332v-24z" />
    </font>
</defs>
</svg>
