<svg width="64" height="64" viewBox="0 0 64 64" fill="none" xmlns="http://www.w3.org/2000/svg">
<circle cx="32" cy="32" r="32" fill="white"/>
<mask id="mask0_1_82" style="mask-type:alpha" maskUnits="userSpaceOnUse" x="0" y="0" width="64" height="64">
<circle cx="32" cy="32" r="32" fill="white"/>
</mask>
<g mask="url(#mask0_1_82)">
<path d="M-0.92 36.18C1.54 36.18 2.86 34.44 2.86 32.1C2.86 29.76 1.54 28.02 -0.92 28.02C-3.38 28.02 -4.7 29.76 -4.7 32.1C-4.7 34.44 -3.38 36.18 -0.92 36.18ZM-3.62 32.1C-3.62 29.82 -2.42 28.74 -0.92 28.74C0.58 28.74 1.78 29.82 1.78 32.1C1.78 34.38 0.58 35.46 -0.92 35.46C-2.42 35.46 -3.62 34.38 -3.62 32.1ZM4.29625 36H5.31625V32.4H9.09625V31.62H5.31625V28.98H9.93625V28.2H4.29625V36ZM11.2506 36H12.2706V32.4H16.0506V31.62H12.2706V28.98H16.8906V28.2H11.2506V36ZM18.205 36H23.965V35.22H19.225V32.4H23.125V31.62H19.225V28.98H23.965V28.2H18.205V36ZM25.4055 28.2V36H26.4255V32.52H28.4655C29.7255 32.52 30.2655 32.82 30.2655 34.08V34.8C30.2655 35.82 30.5655 36 30.5655 36H31.7055V35.94C31.4655 35.76 31.2855 35.52 31.2855 34.8V33.84C31.2855 32.22 29.9655 32.1 29.9655 32.1V32.04C29.9655 32.04 31.5255 31.68 31.5255 30.18C31.5255 28.8 30.5055 28.2 28.8855 28.2H25.4055ZM26.4255 31.74V28.98H28.7655C29.8455 28.98 30.4455 29.34 30.4455 30.24C30.4455 31.26 29.7855 31.74 28.7055 31.74H26.4255ZM37.1702 36V29.52L41.4302 36H42.6302V28.2H41.6102V34.68L37.3502 28.2H36.1502V36H37.1702ZM44.1944 36H49.9544V35.22H45.2144V32.4H49.1144V31.62H45.2144V28.98H49.9544V28.2H44.1944V36ZM51.0348 28.2L53.1348 36H54.2748L56.0748 29.7L57.8748 36H59.0148L61.1148 28.2H60.0948L58.4028 34.752L56.5548 28.2H55.5948L53.7468 34.752L52.0548 28.2H51.0348ZM62.0702 33.42C62.0702 34.86 62.9702 36.18 65.2502 36.18C67.4102 36.18 68.4302 35.04 68.4302 33.66C68.4302 32.34 67.6502 31.62 65.3102 31.62C63.9302 31.62 63.2702 31.08 63.2702 30.3C63.2702 29.22 64.1102 28.74 65.2502 28.74C66.6902 28.74 67.1702 29.64 67.1702 30.36H68.1902C68.1902 29.34 67.5302 28.02 65.2502 28.02C63.3302 28.02 62.1902 28.98 62.1902 30.3C62.1902 31.5 62.9702 32.4 65.1902 32.4C66.8702 32.4 67.3502 32.94 67.3502 33.78C67.3502 34.56 66.8582 35.46 65.2502 35.46C63.7502 35.46 63.0902 34.5 63.0902 33.42H62.0702Z" fill="#0F0D0D"/>
</g>
</svg>
